<svg width="88" height="88" viewBox="0 0 88 88" fill="none" xmlns="http://www.w3.org/2000/svg">
<g id="Group">
<g id="Group_2">
<path id="Vector" fill-rule="evenodd" clip-rule="evenodd" d="M44 0C19.7313 0 0 19.7313 0 44C0 68.2688 19.7313 88 44 88C68.2688 88 88 68.2688 88 44C88 19.7313 68.2688 0 44 0Z" fill="white"/>
<path id="Vector_2" fill-rule="evenodd" clip-rule="evenodd" d="M65.2783 29.1676C66.3439 30.2332 66.3439 31.9863 65.2783 33.052L39.4971 58.8332C38.9643 59.366 38.2596 59.641 37.5549 59.641C36.8502 59.641 36.1455 59.366 35.6127 58.8332L22.7221 45.9426C21.6564 44.877 21.6564 43.1238 22.7221 42.0582C23.7877 40.9926 25.5408 40.9926 26.6064 42.0582L37.5549 53.0066L61.3939 29.1676C62.4596 28.0848 64.2127 28.0848 65.2783 29.1676Z" fill="#4BAE4F"/>
</g>
</g>
</svg>
