<svg xmlns="http://www.w3.org/2000/svg" width="54" height="32" viewBox="0 0 54 32" fill="none">
  <g clip-path="url(#clip0_243_6615)">
    <path d="M3.65766 0H51.0097C52.6617 0 54.0003 1.32267 54.0003 2.95333V29.0467C54.0003 30.6773 52.6617 32 51.0097 32H3.65766C2.00566 32 0.666992 30.6773 0.666992 29.0467V2.95333C0.666992 1.32267 2.00566 0 3.65766 0Z" fill="white"/>
    <path fill-rule="evenodd" clip-rule="evenodd" d="M13.2349 31.636L50.7642 31.404C51.4763 31.397 52.1577 31.1135 52.6647 30.6134C53.1718 30.1134 53.4646 29.4359 53.4815 28.724L53.6815 17.9854C53.6815 17.9854 39.6015 27.3027 13.2349 31.636Z" fill="#E6772F"/>
    <path fill-rule="evenodd" clip-rule="evenodd" d="M10.1043 14.5862C9.70035 14.9289 9.18701 15.0795 8.36701 15.0795H8.02568V10.9955H8.36701C9.18701 10.9955 9.68168 11.1355 10.1043 11.4942C10.5403 11.8649 10.803 12.4382 10.803 13.0302C10.803 13.6249 10.5403 14.2169 10.1043 14.5862ZM8.62035 9.95286H6.75635V16.1262H8.60968C9.59635 16.1262 10.307 15.9035 10.9297 15.4115C11.2927 15.1311 11.5875 14.7722 11.7921 14.3616C11.9967 13.9511 12.1057 13.4995 12.111 13.0409C12.111 11.2182 10.6763 9.95286 8.62035 9.95286ZM12.6963 9.95152H13.9603V16.1249H12.6963V9.95152ZM17.0643 12.3169C16.3017 12.0515 16.0777 11.8755 16.0777 11.5409C16.0777 11.1542 16.4777 10.8595 17.0243 10.8595C17.4043 10.8595 17.7177 11.0035 18.051 11.3569L18.711 10.5342C18.1769 10.0849 17.4996 9.84178 16.8017 9.84886C15.651 9.84886 14.7737 10.6089 14.7737 11.6142C14.7737 12.4675 15.1817 12.8995 16.371 13.3115C16.8683 13.4755 17.1217 13.5875 17.2497 13.6635C17.503 13.8182 17.6297 14.0422 17.6297 14.2995C17.6297 14.8022 17.2097 15.1702 16.643 15.1702C16.3582 15.1776 16.0772 15.1041 15.8324 14.9583C15.5877 14.8125 15.3893 14.6002 15.2603 14.3462L14.4417 15.0969C15.027 15.9102 15.727 16.2742 16.6923 16.2742C18.0097 16.2742 18.9377 15.4369 18.9377 14.2449C18.9377 13.2635 18.507 12.8182 17.0643 12.3169ZM19.3363 13.0395C19.3363 14.8555 20.8377 16.2622 22.7697 16.2622C23.315 16.2622 23.783 16.1595 24.3563 15.9022V14.4835C23.8497 14.9675 23.403 15.1595 22.8257 15.1595C21.5483 15.1595 20.6443 14.2822 20.6443 13.0315C20.6443 11.8489 21.5777 10.9115 22.7697 10.9115C23.371 10.9115 23.831 11.1142 24.3563 11.6062V10.1889C23.8017 9.92219 23.3457 9.81152 22.7963 9.81152C20.8737 9.81152 19.3363 11.2462 19.3363 13.0395ZM34.6337 14.0955L32.899 9.95152H31.5163L34.2737 16.2809H34.9537L37.7643 9.95152H36.391L34.6337 14.0955ZM38.339 16.1249H41.9363V15.0782H39.6083V13.4115H41.8483V12.3662H39.6083V10.9969H41.9363V9.95152H38.339V16.1249ZM44.4137 12.7902H44.0457V10.9235H44.4337C45.227 10.9235 45.651 11.2382 45.651 11.8395C45.651 12.4582 45.227 12.7902 44.4137 12.7902ZM46.9577 11.7729C46.9577 10.6169 46.1217 9.95152 44.6577 9.95152H42.7737V16.1249H44.0457V13.6422H44.2097L45.963 16.1249H47.523L45.4763 13.5222C46.4323 13.3369 46.9577 12.7169 46.9577 11.7729Z" fill="#1A1919"/>
    <path fill-rule="evenodd" clip-rule="evenodd" d="M28.3042 16.2719C26.4309 16.2719 24.9136 14.8319 24.9136 13.0546C24.9136 11.2773 26.4309 9.83594 28.3042 9.83594C30.1776 9.83594 31.6949 11.2759 31.6949 13.0546C31.6949 14.8319 30.1776 16.2719 28.3042 16.2719Z" fill="#E6772F"/>
    <path d="M15.0536 18.68L17.4082 20.672V18.7747H17.7389V21.3427L15.3829 19.3494V21.2467H15.0522L15.0536 18.68ZM19.5296 18.68H21.3202V18.952H19.9096V19.748H21.2922V20.0214H19.9096V21.0707H21.3202V21.3427H19.5296V18.68ZM23.2762 21.3427H22.9456V18.9494H22.2149V18.6787H24.0056V18.9494H23.2762V21.3427ZM25.8762 20.62L26.6922 18.6787L27.5082 20.62L28.1842 18.7934H28.4829L27.5082 21.3427L26.6922 19.3827L25.8762 21.3427L24.9016 18.7934H25.2002L25.8762 20.62ZM32.0642 20.0107C32.0642 20.7574 31.4629 21.344 30.7216 21.344C30.5466 21.344 30.3733 21.3096 30.2116 21.2426C30.0499 21.1756 29.903 21.0775 29.7792 20.9537C29.6555 20.83 29.5573 20.6831 29.4904 20.5214C29.4234 20.3597 29.3889 20.1864 29.3889 20.0114C29.3889 19.8364 29.4234 19.6631 29.4904 19.5014C29.5573 19.3397 29.6555 19.1928 29.7792 19.069C29.903 18.9453 30.0499 18.8471 30.2116 18.7802C30.3733 18.7132 30.5466 18.6787 30.7216 18.6787C31.4629 18.6787 32.0642 19.2827 32.0642 20.0107ZM29.6776 20.0107C29.6776 20.5974 30.1402 21.08 30.7216 21.08C31.0014 21.0762 31.2683 20.9614 31.4635 20.7609C31.6588 20.5604 31.7665 20.2906 31.7629 20.0107C31.7665 19.7309 31.6588 19.461 31.4635 19.2605C31.2683 19.06 31.0014 18.9452 30.7216 18.9414C30.5829 18.9431 30.4459 18.9722 30.3185 19.0268C30.191 19.0815 30.0756 19.1608 29.9788 19.2601C29.8819 19.3594 29.8056 19.4768 29.7542 19.6056C29.7027 19.7344 29.6772 19.872 29.6789 20.0107H29.6776ZM34.1936 21.3427H33.8549V18.68H34.2909C34.8709 18.68 35.4282 18.8054 35.4282 19.408C35.4282 19.8254 35.1376 20.116 34.6536 20.1374L35.6456 21.324H35.2336L34.2909 20.1574H34.1936V21.3427ZM34.1936 19.9067H34.2909C34.6776 19.9067 35.0642 19.844 35.0642 19.428C35.0642 18.9907 34.7016 18.9494 34.2656 18.9494H34.1696V19.9067H34.1936ZM37.9136 18.7H38.2922L37.0976 19.9387L38.3322 21.3427H37.9336L36.8989 20.124L36.8189 20.1867V21.3227H36.5416V18.6787H36.8189V19.8147L37.9136 18.7Z" fill="#231F20"/>
    <path d="M1.33367 2.67333V29.3267C1.33279 29.5895 1.38374 29.85 1.48361 30.0932C1.58348 30.3363 1.7303 30.5574 1.91568 30.7438C2.10106 30.9301 2.32136 31.0781 2.56399 31.1793C2.80661 31.2805 3.0668 31.3328 3.32967 31.3333H51.3377C51.6005 31.3328 51.8607 31.2805 52.1033 31.1793C52.346 31.0781 52.5663 30.9301 52.7517 30.7438C52.937 30.5574 53.0839 30.3363 53.1837 30.0932C53.2836 29.85 53.3345 29.5895 53.3337 29.3267V2.67333C53.3345 2.41047 53.2836 2.15 53.1837 1.90684C53.0839 1.66368 52.937 1.44259 52.7517 1.25622C52.5663 1.06985 52.346 0.921853 52.1033 0.820692C51.8607 0.71953 51.6005 0.667191 51.3377 0.666667H3.32967C3.0668 0.667191 2.80661 0.71953 2.56399 0.820692C2.32136 0.921853 2.10106 1.06985 1.91568 1.25622C1.7303 1.44259 1.58348 1.66368 1.48361 1.90684C1.38374 2.15 1.33279 2.41047 1.33367 2.67333ZM0.667001 2.67333C0.666124 2.32292 0.73432 1.97576 0.86769 1.65172C1.00106 1.32768 1.19699 1.0331 1.44428 0.784819C1.69156 0.536542 1.98536 0.339437 2.30886 0.204772C2.63237 0.070108 2.97925 0.000524529 3.32967 0L51.3377 0C51.6881 0.000524529 52.035 0.070108 52.3585 0.204772C52.682 0.339437 52.9758 0.536542 53.2231 0.784819C53.4703 1.0331 53.6663 1.32768 53.7996 1.65172C53.933 1.97576 54.0012 2.32292 54.0003 2.67333V29.3267C54.0012 29.6771 53.933 30.0242 53.7996 30.3483C53.6663 30.6723 53.4703 30.9669 53.2231 31.2152C52.9758 31.4635 52.682 31.6606 52.3585 31.7952C52.035 31.9299 51.6881 31.9995 51.3377 32H3.32967C2.97925 31.9995 2.63237 31.9299 2.30886 31.7952C1.98536 31.6606 1.69156 31.4635 1.44428 31.2152C1.19699 30.9669 1.00106 30.6723 0.86769 30.3483C0.73432 30.0242 0.666124 29.6771 0.667001 29.3267V2.67333Z" fill="#BEC8D2"/>
  </g>
  <defs>
    <clipPath id="clip0_243_6615">
      <rect width="53.3333" height="32" fill="white" transform="translate(0.666992)"/>
    </clipPath>
  </defs>
</svg>
