<svg width="48" height="48" viewBox="0 0 48 48" fill="none" xmlns="http://www.w3.org/2000/svg">
<rect width="48" height="48" rx="15" fill="#334C8C" fill-opacity="0.933333"/>
<path d="M30.9943 21.3511L30.5368 25.2489C30.517 25.43 30.4319 25.5972 30.2978 25.7183C30.1637 25.8394 29.9901 25.9058 29.8105 25.9047H25.8163V37.4732C25.8173 37.6113 25.7644 37.7442 25.6692 37.8429C25.5739 37.9416 25.4441 37.9981 25.308 38H21.2375C21.1698 37.999 21.1029 37.9846 21.0407 37.9574C20.9785 37.9302 20.9222 37.8908 20.875 37.8416C20.8278 37.7923 20.7906 37.7341 20.7656 37.6702C20.7406 37.6064 20.7282 37.5382 20.7291 37.4695L20.7509 25.9047H17.7262C17.5336 25.9047 17.3489 25.8271 17.2127 25.6889C17.0765 25.5507 17 25.3633 17 25.1679V21.27C17 21.0746 17.0765 20.8872 17.2127 20.749C17.3489 20.6108 17.5336 20.5332 17.7262 20.5332H20.7328V16.7532C20.7328 12.38 23.2963 10 27.0509 10H30.1265C30.3191 10 30.5038 10.0776 30.64 10.2158C30.7762 10.354 30.8527 10.5414 30.8527 10.7368V14.0195C30.8527 14.2149 30.7762 14.4023 30.64 14.5405C30.5038 14.6787 30.3191 14.7563 30.1265 14.7563H28.2419C26.2012 14.7895 25.8163 15.7805 25.8163 17.2616V20.5221H30.2862C30.3882 20.5239 30.4887 20.5474 30.5811 20.5912C30.6735 20.635 30.7558 20.6981 30.8226 20.7763C30.8894 20.8545 30.9392 20.9461 30.9688 21.0451C30.9984 21.1441 31.0071 21.2484 30.9943 21.3511Z" fill="white"/>
</svg>
