<svg width="71" height="71" viewBox="0 0 71 71" fill="none" xmlns="http://www.w3.org/2000/svg">
<g clip-path="url(#clip0_82_5999)">
<path d="M35.5 71C55.1061 71 71 55.1061 71 35.5C71 15.8939 55.1061 0 35.5 0C15.8939 0 0 15.8939 0 35.5C0 55.1061 15.8939 71 35.5 71Z" fill="#334C8C"/>
<path d="M44.4964 32.1415L43.9078 37.0835C43.8824 37.313 43.7729 37.525 43.6004 37.6786C43.4278 37.8321 43.2046 37.9163 42.9736 37.9149H37.8355V52.582C37.8367 52.7572 37.7687 52.9257 37.6461 53.0508C37.5236 53.1759 37.3566 53.2475 37.1815 53.25H31.9453C31.8582 53.2488 31.7721 53.2304 31.6921 53.196C31.6121 53.1615 31.5397 53.1116 31.479 53.0491C31.4182 52.9867 31.3704 52.9129 31.3382 52.8319C31.306 52.751 31.2901 52.6645 31.2913 52.5774L31.3193 37.9149H27.4284C27.1806 37.9149 26.943 37.8165 26.7678 37.6413C26.5926 37.4661 26.4941 37.2285 26.4941 36.9807V32.0387C26.4941 31.791 26.5926 31.5534 26.7678 31.3782C26.943 31.203 27.1806 31.1045 27.4284 31.1045H31.296V26.312C31.296 20.7675 34.5937 17.75 39.4236 17.75H43.38C43.6278 17.75 43.8654 17.8484 44.0406 18.0236C44.2158 18.1988 44.3142 18.4364 44.3142 18.6842V22.8461C44.3142 23.0939 44.2158 23.3315 44.0406 23.5067C43.8654 23.6819 43.6278 23.7803 43.38 23.7803H40.9557C38.3306 23.8224 37.8355 25.0789 37.8355 26.9566V31.0905H43.5855C43.7167 31.0928 43.8459 31.1226 43.9648 31.1782C44.0837 31.2337 44.1896 31.3136 44.2755 31.4128C44.3614 31.5119 44.4255 31.628 44.4636 31.7536C44.5016 31.8792 44.5128 32.0113 44.4964 32.1415Z" fill="white"/>
</g>
<defs>
<clipPath id="clip0_82_5999">
<rect width="71" height="71" fill="white"/>
</clipPath>
</defs>
</svg>
