<svg width="218" height="164" viewBox="0 0 218 164" fill="none" xmlns="http://www.w3.org/2000/svg">
<path d="M204.98 156.76C199.938 156.929 194.987 155.388 190.935 152.387C186.882 149.387 183.967 145.103 182.662 140.235C181.357 135.366 181.741 130.198 183.75 125.574C185.759 120.949 189.276 117.139 193.727 114.765C195.927 113.683 197.677 111.862 198.669 109.621C199.661 107.38 199.832 104.862 199.153 102.509C196.383 92.2195 189.641 83.4502 180.406 78.1243C171.172 72.7984 160.198 71.3507 149.893 74.0988L128.035 79.9555C125.558 80.6193 123.446 82.2392 122.163 84.4586C120.88 86.6782 120.532 89.3155 121.195 91.7906L123.796 101.496C124.063 102.128 124.202 102.807 124.204 103.493C124.207 104.179 124.072 104.859 123.809 105.493C123.545 106.127 123.158 106.702 122.67 107.185C122.181 107.668 121.602 108.049 120.965 108.306C120.333 108.595 119.647 108.752 118.952 108.766C118.257 108.78 117.566 108.651 116.923 108.388C116.28 108.124 115.697 107.731 115.213 107.233C114.728 106.735 114.35 106.143 114.104 105.493C112.855 101.68 111.816 97.8013 110.991 93.8746C110.384 91.6099 108.902 89.6793 106.87 88.5074C104.838 87.3355 102.423 87.0184 100.156 87.6258L61.952 97.8625C60.8115 98.1751 59.62 98.2561 58.4479 98.1008C57.2758 97.9454 56.1468 97.5569 55.1277 96.9582C54.1087 96.3594 53.2201 95.5625 52.5147 94.6147C51.8092 93.6668 51.3011 92.5872 51.0204 91.4396L46.4319 74.3151C46.1336 73.2021 45.6181 72.159 44.915 71.2459C44.2119 70.3328 43.335 69.5677 42.3348 68.9945C41.3346 68.4213 40.2307 68.0513 39.0867 67.9059C37.9427 67.7605 36.7811 67.8425 35.6687 68.1471C30.2977 69.5863 24.4129 71.1631 23.9459 71.2883C23.2579 71.2421 22.5859 71.0603 21.9687 70.7532C21.3515 70.4462 20.8014 70.02 20.35 69.4993C19.8987 68.9786 19.5551 68.3736 19.339 67.7194C19.123 67.0651 19.0388 66.3746 19.0913 65.6875C19.1571 64.8918 19.4014 64.121 19.8062 63.4325C20.2111 62.7439 20.7659 62.1553 21.4295 61.7103C25.2164 60.2672 29.1003 59.0928 33.0523 58.1959C34.1658 57.9041 35.2105 57.3946 36.1257 56.6968C37.041 55.999 37.8088 55.1268 38.3845 54.1306C38.9603 53.1345 39.3326 52.0342 39.4799 50.8935C39.6272 49.7528 39.5466 48.5943 39.2428 47.4852L31.1535 17.2957C28.9787 9.32739 23.7306 2.54714 16.5594 -1.55911C9.38824 -5.66536 0.878969 -6.76262 -7.10341 -4.61041L-16.4443 -2.10754C-18.7028 -1.47819 -20.6856 -0.111253 -22.0764 1.77518C-23.4672 3.66162 -24.1858 5.95884 -24.1175 8.30032C-24.0071 14.2015 -26.2304 19.9092 -30.305 24.1844C-34.3796 28.4596 -39.9765 30.9574 -45.8809 31.1355C-50.0057 31.2677 -54.0862 30.258 -57.6716 28.218C-61.2571 26.178 -64.2079 23.1871 -66.1982 19.5758C-67.3045 17.4872 -69.0908 15.8385 -71.2621 14.9018C-73.4334 13.9652 -75.8599 13.7966 -78.1407 14.424L-86.6876 16.7141C-90.6547 17.7573 -94.3776 19.571 -97.6439 22.0515C-100.91 24.5321 -103.656 27.6309 -105.724 31.1712C-107.792 34.7114 -109.142 38.6236 -109.697 42.6845C-110.253 46.7454 -110.002 50.8755 -108.96 54.8388L-101.07 84.2818C-100.427 86.6826 -98.8555 88.7292 -96.7014 89.9716C-94.5473 91.2139 -91.9871 91.5501 -89.5841 90.9062L-79.963 88.3282C-79.3242 88.0336 -78.6324 87.871 -77.9293 87.8501C-77.2261 87.8292 -76.5261 87.9505 -75.8711 88.2067C-75.2161 88.4629 -74.6198 88.8487 -74.1179 89.341C-73.616 89.8332 -73.2189 90.4218 -72.9503 91.0713C-72.6818 91.7209 -72.5474 92.418 -72.5552 93.1208C-72.563 93.8237 -72.7129 94.5178 -72.9959 95.1615C-73.2788 95.8051 -73.6889 96.3851 -74.2017 96.8666C-74.7144 97.348 -75.3192 97.721 -75.9797 97.9632C-76.4001 98.0758 -82.3315 99.6652 -87.5624 101.067C-88.6794 101.379 -89.7237 101.909 -90.6353 102.626C-91.5468 103.343 -92.3076 104.233 -92.8739 105.244C-93.4402 106.256 -93.8009 107.369 -93.9351 108.52C-94.0694 109.671 -93.9746 110.837 -93.6562 111.952L-9.1128 427.472C-7.94993 431.836 -5.93798 435.929 -3.19184 439.516C-0.445707 443.102 2.98085 446.113 6.89217 448.376C10.8035 450.639 15.123 452.11 19.604 452.705C24.085 453.3 28.6399 453.007 33.0084 451.843L115.442 429.755C117.708 429.148 119.641 427.666 120.815 425.635C121.989 423.604 122.307 421.191 121.7 418.926C120.275 413.607 118.687 407.681 118.55 407.168C118.585 406.461 118.763 405.769 119.074 405.133C119.385 404.498 119.821 403.932 120.358 403.47C120.894 403.008 121.519 402.66 122.194 402.447C122.869 402.234 123.581 402.16 124.285 402.23C125.097 402.248 125.892 402.47 126.596 402.876C127.3 403.282 127.889 403.858 128.311 404.552C129.805 408.334 131.015 412.223 131.929 416.186C132.216 417.306 132.722 418.358 133.419 419.281C134.116 420.204 134.989 420.98 135.988 421.563C136.987 422.147 138.092 422.527 139.239 422.68C140.386 422.834 141.552 422.759 142.67 422.459L164.294 416.665C174.698 413.838 183.562 407.012 188.949 397.679C194.336 388.346 195.809 377.263 193.045 366.852C192.44 364.56 191.065 362.546 189.15 361.147C187.235 359.748 184.897 359.049 182.527 359.168C177.529 359.247 172.649 357.656 168.661 354.648C164.673 351.639 161.805 347.386 160.513 342.562C159.22 337.739 159.577 332.621 161.527 328.022C163.476 323.422 166.907 319.604 171.274 317.174C173.43 316.081 175.133 314.265 176.085 312.044C177.037 309.823 177.176 307.339 176.479 305.027C173.709 294.738 166.967 285.968 157.733 280.642C148.498 275.317 137.524 273.869 127.219 276.617L111.76 280.759C109.283 281.423 106.643 281.076 104.423 279.796C102.202 278.515 100.582 276.405 99.9185 273.93L93.2795 249.153C92.6882 246.702 93.0791 244.117 94.3687 241.95C95.6584 239.782 97.7447 238.204 100.182 237.551L138.06 227.402C139.18 227.102 140.23 226.584 141.149 225.877C142.068 225.17 142.839 224.289 143.416 223.283C143.993 222.278 144.366 221.169 144.513 220.02C144.66 218.87 144.578 217.703 144.272 216.586C142.859 211.313 141.284 205.434 141.146 204.92C141.178 204.235 141.346 203.564 141.64 202.944C141.934 202.325 142.349 201.77 142.86 201.312C143.371 200.854 143.967 200.502 144.616 200.276C145.264 200.051 145.95 199.957 146.635 199.999C147.446 200.056 148.232 200.299 148.933 200.71C149.633 201.121 150.229 201.688 150.674 202.367C152.167 206.133 153.342 210.017 154.186 213.979C154.485 215.098 155.004 216.147 155.711 217.065C156.418 217.983 157.299 218.753 158.305 219.329C159.311 219.906 160.421 220.278 161.571 220.424C162.721 220.57 163.889 220.488 165.008 220.181L186.632 214.387C191.84 213.025 196.728 210.646 201.013 207.388C205.298 204.13 208.896 200.058 211.6 195.405C214.304 190.753 216.06 185.612 216.767 180.28C217.474 174.947 217.118 169.528 215.719 164.334C215.078 162.028 213.658 160.014 211.701 158.634C209.744 157.254 207.37 156.592 204.98 156.76ZM-38.7096 87.9767L-52.2539 91.6059C-53.5793 91.961 -54.9913 91.7756 -56.1794 91.0904C-57.3675 90.4052 -58.2343 89.2764 -58.5891 87.9522C-58.9439 86.6281 -58.7576 85.2171 -58.0713 84.0297C-57.385 82.8422 -56.2549 81.9756 -54.9295 81.6205L-41.1984 77.9413C-39.873 77.5861 -38.461 77.7716 -37.2729 78.4568C-36.0848 79.1419 -35.2181 80.2708 -34.8633 81.5949C-34.5085 82.9191 -34.6947 84.3301 -35.381 85.5175C-36.0673 86.7049 -37.1975 87.5715 -38.5228 87.9267L-38.7096 87.9767ZM0.00825474 77.6023L-13.3959 81.1939C-14.7213 81.5491 -16.1333 81.3636 -17.3214 80.6785C-18.5095 79.9933 -19.3762 78.8644 -19.731 77.5403C-20.0858 76.2161 -19.8996 74.8051 -19.2133 73.6177C-18.527 72.4303 -17.3969 71.5637 -16.0715 71.2085L-2.4805 67.5668C-1.15512 67.2117 0.256919 67.3971 1.44499 68.0823C2.63306 68.7675 3.49985 69.8963 3.85465 71.2205C4.20945 72.5446 4.02321 73.9556 3.33691 75.1431C2.65061 76.3305 1.52046 77.1971 0.195077 77.5522L0.00825474 77.6023ZM144.811 178.433C145.066 179.114 145.176 179.841 145.133 180.567C145.09 181.294 144.896 182.003 144.562 182.65C144.229 183.297 143.764 183.867 143.197 184.323C142.63 184.78 141.974 185.113 141.271 185.302C140.567 185.49 139.832 185.53 139.113 185.418C138.394 185.305 137.706 185.044 137.094 184.651C136.482 184.257 135.959 183.74 135.558 183.133C135.158 182.525 134.89 181.841 134.77 181.123L131.131 167.545C130.876 166.864 130.767 166.137 130.81 165.411C130.853 164.684 131.047 163.975 131.38 163.328C131.714 162.681 132.179 162.111 132.746 161.655C133.313 161.198 133.969 160.865 134.672 160.676C135.375 160.488 136.11 160.448 136.83 160.56C137.549 160.672 138.237 160.934 138.849 161.327C139.461 161.721 139.984 162.238 140.384 162.845C140.784 163.453 141.053 164.137 141.173 164.855L144.811 178.433ZM134.471 139.844C134.726 140.526 134.836 141.253 134.793 141.979C134.75 142.705 134.556 143.414 134.222 144.061C133.889 144.708 133.424 145.278 132.857 145.735C132.29 146.192 131.634 146.525 130.931 146.713C130.227 146.902 129.493 146.941 128.773 146.829C128.054 146.717 127.366 146.456 126.754 146.062C126.142 145.669 125.619 145.152 125.219 144.544C124.818 143.937 124.55 143.252 124.43 142.535L120.742 128.77C120.487 128.089 120.377 127.362 120.42 126.635C120.463 125.909 120.657 125.2 120.991 124.553C121.324 123.906 121.789 123.336 122.356 122.879C122.923 122.423 123.579 122.089 124.282 121.901C124.986 121.713 125.72 121.673 126.44 121.785C127.159 121.897 127.847 122.159 128.459 122.552C129.071 122.945 129.594 123.463 129.994 124.07C130.395 124.678 130.663 125.362 130.783 126.079L134.471 139.844Z" fill="url(#paint0_linear_742_3541)"/>
<defs>
<linearGradient id="paint0_linear_742_3541" x1="-68.4675" y1="404.917" x2="134.964" y2="52.1153" gradientUnits="userSpaceOnUse">
<stop stop-color="#EB7E96"/>
<stop offset="1" stop-color="#F5911E"/>
</linearGradient>
</defs>
</svg>
