<svg width="48" height="48" viewBox="0 0 48 48" fill="none" xmlns="http://www.w3.org/2000/svg">
<rect width="48" height="48" rx="15" fill="#F2F2F2"/>
<g clip-path="url(#clip0_154_4512)">
<path d="M16.7621 26.7122L15.8571 30.0908L12.5493 30.1607C11.5607 28.3272 11 26.2294 11 24.0001C11 21.8443 11.5243 19.8115 12.4536 18.0215H12.4543L15.3992 18.5614L16.6892 21.4886C16.4192 22.2758 16.2721 23.1208 16.2721 24.0001C16.2722 24.9543 16.445 25.8687 16.7621 26.7122Z" fill="#FBBB00"/>
<path d="M36.7729 21.5713C36.9222 22.3577 37 23.1698 37 23.9999C37 24.9306 36.9021 25.8384 36.7157 26.7142C36.0829 29.6942 34.4293 32.2963 32.1386 34.1377L32.1379 34.137L28.4286 33.9477L27.9037 30.6706C29.4236 29.7792 30.6115 28.3842 31.2372 26.7142H24.2858V21.5713H36.7729Z" fill="#518EF8"/>
<path d="M32.1378 34.1369L32.1386 34.1376C29.9107 35.9283 27.0807 36.9997 24 36.9997C19.0493 36.9997 14.745 34.2326 12.5493 30.1605L16.7621 26.7119C17.86 29.6419 20.6864 31.7276 24 31.7276C25.4243 31.7276 26.7586 31.3426 27.9036 30.6705L32.1378 34.1369Z" fill="#28B446"/>
<path d="M32.2979 13.9928L28.0864 17.4407C26.9014 16.7 25.5007 16.2721 24 16.2721C20.6114 16.2721 17.7321 18.4535 16.6893 21.4886L12.4543 18.0214H12.4536C14.6171 13.85 18.9757 11 24 11C27.1543 11 30.0464 12.1236 32.2979 13.9928Z" fill="#F14336"/>
</g>
<defs>
<clipPath id="clip0_154_4512">
<rect width="26" height="26" fill="white" transform="translate(11 11)"/>
</clipPath>
</defs>
</svg>
