<svg width="88" height="88" viewBox="0 0 88 88" fill="none" xmlns="http://www.w3.org/2000/svg">
<g clip-path="url(#clip0_157_3888)">
<path fill-rule="evenodd" clip-rule="evenodd" d="M44 0C19.7313 0 0 19.7313 0 44C0 68.2688 19.7313 88 44 88C68.2688 88 88 68.2688 88 44C88 19.7313 68.2688 0 44 0Z" fill="#F34235"/>
<path fill-rule="evenodd" clip-rule="evenodd" d="M62.7172 28.7547H54.8454V24.6641C54.8454 23.1516 53.6079 21.9141 52.0954 21.9141H35.9219C34.4094 21.9141 33.1719 23.1516 33.1719 24.6641V28.7547H25.3C23.7875 28.7547 22.55 29.9922 22.55 31.5047C22.55 33.0172 23.7875 34.2547 25.3 34.2547H27.9469V63.3359C27.9469 64.8484 29.1844 66.0859 30.6969 66.0859H57.3032C58.8157 66.0859 60.0532 64.8484 60.0532 63.3359V34.2547H62.7C64.2125 34.2547 65.45 33.0172 65.45 31.5047C65.45 29.9922 64.2297 28.7547 62.7172 28.7547ZM45.1688 52.4906V42.35C45.1688 40.8375 46.4063 39.6 47.9188 39.6C49.4313 39.6 50.6688 40.8375 50.6688 42.35V52.4906C50.6688 54.0031 49.4313 55.2406 47.9188 55.2406C46.4063 55.2406 45.1688 54.0031 45.1688 52.4906ZM37.3657 52.4906V42.35C37.3657 40.8375 38.6032 39.6 40.1157 39.6C41.6282 39.6 42.8657 40.8375 42.8657 42.35V52.4906C42.8657 54.0031 41.6282 55.2406 40.1157 55.2406C38.6032 55.2406 37.3657 54.0031 37.3657 52.4906ZM54.5704 60.5859H33.4641V34.2547H54.5876L54.5704 60.5859ZM38.6719 27.4141H49.3454V28.7719H38.6719V27.4141Z" fill="white"/>
</g>
<defs>
<clipPath id="clip0_157_3888">
<rect width="88" height="88" fill="white"/>
</clipPath>
</defs>
</svg>
