<svg width="663" height="95" viewBox="0 0 663 95" fill="none" xmlns="http://www.w3.org/2000/svg">
<g clip-path="url(#clip0_30_3408)">
<path d="M75.71 16.01C74.8845 15.1937 74.2343 14.2174 73.7992 13.141C73.3642 12.0646 73.1535 10.9107 73.18 9.75001C73.1533 8.5878 73.3639 7.43236 73.7989 6.3543C74.2339 5.27624 74.8842 4.29822 75.71 3.48001C76.5291 2.64979 77.5101 1.9968 78.5922 1.56158C79.6742 1.12635 80.8341 0.91819 82 0.950006C83.1422 0.928133 84.2767 1.14145 85.333 1.57669C86.3893 2.01193 87.3447 2.65979 88.14 3.48001C88.9677 4.2968 89.6193 5.27457 90.0544 6.35296C90.4895 7.43136 90.699 8.58749 90.67 9.75001C90.6989 10.911 90.4892 12.0656 90.0541 13.1423C89.6189 14.2191 88.9674 15.1951 88.14 16.01C87.3447 16.8302 86.3893 17.4781 85.333 17.9133C84.2767 18.3486 83.1422 18.5619 82 18.54C80.8341 18.5718 79.6742 18.3637 78.5922 17.9284C77.5101 17.4932 76.5291 16.8402 75.71 16.01ZM88.73 40.9V93.59C88.73 93.6245 88.7163 93.6576 88.6919 93.6819C88.6675 93.7063 88.6345 93.72 88.6 93.72C84.9921 93.7174 81.5329 92.2823 78.9827 89.7302C76.4325 87.1781 75 83.7179 75 80.11V27.46C74.9999 27.4434 75.0033 27.4269 75.01 27.4116C75.0166 27.3964 75.0264 27.3827 75.0386 27.3714C75.0508 27.3601 75.0653 27.3515 75.081 27.3461C75.0967 27.3407 75.1134 27.3386 75.13 27.34C78.7292 27.3426 82.1808 28.7708 84.7296 31.3121C87.2784 33.8534 88.7168 37.3008 88.73 40.9Z" fill="white"/>
<path d="M101.14 42.45C103.745 37.4312 107.736 33.2661 112.64 30.45C117.79 27.574 123.612 26.1177 129.51 26.23C137.51 26.23 144.157 28.1367 149.45 31.95C154.743 35.7634 158.283 41.1534 160.07 48.12C160.075 48.1394 160.075 48.1596 160.07 48.179C160.066 48.1985 160.057 48.2166 160.044 48.2321C160.032 48.2475 160.016 48.2599 159.998 48.2682C159.98 48.2765 159.96 48.2806 159.94 48.28H153.17C151.162 48.3105 149.173 47.8937 147.347 47.0601C145.52 46.2264 143.902 44.9966 142.61 43.46C141.722 42.3518 140.678 41.3784 139.51 40.57C136.545 38.6314 133.05 37.6633 129.51 37.8C123.89 37.8 119.41 39.8 116.07 43.8C112.73 47.8 111.063 53.3634 111.07 60.49C111.07 67.6434 112.737 73.2234 116.07 77.23C117.697 79.1974 119.757 80.7624 122.088 81.8032C124.419 82.8439 126.959 83.3322 129.51 83.23C135.07 83.23 139.317 81.5167 142.25 78.09C143.77 76.3781 145.641 75.0146 147.736 74.0929C149.832 73.1713 152.101 72.7132 154.39 72.75H159.94C159.96 72.7489 159.98 72.7527 159.998 72.761C160.015 72.7693 160.031 72.782 160.043 72.7978C160.055 72.8137 160.063 72.8322 160.066 72.8518C160.069 72.8714 160.067 72.8914 160.06 72.91C158.331 79.2679 154.535 84.8691 149.27 88.83C143.937 92.83 137.35 94.83 129.51 94.83C123.605 94.9457 117.779 93.4708 112.64 90.5601C107.753 87.723 103.767 83.5633 101.14 78.56C98.2748 73.0006 96.8448 66.813 96.98 60.56C96.8284 54.2703 98.2588 48.0432 101.14 42.45Z" fill="white"/>
<path d="M194.94 60.6701L225.27 93.5101C225.289 93.5267 225.303 93.5491 225.308 93.5738C225.314 93.5986 225.312 93.6245 225.301 93.6479C225.291 93.6712 225.274 93.6908 225.252 93.7037C225.231 93.7167 225.205 93.7224 225.18 93.7201H207C206.967 93.7295 206.933 93.7295 206.9 93.7201L182.55 65.4201C182.532 65.403 182.51 65.3913 182.487 65.3861C182.463 65.381 182.438 65.3827 182.415 65.391C182.392 65.3994 182.372 65.4141 182.357 65.4333C182.342 65.4526 182.332 65.4757 182.33 65.5001V93.5901C182.331 93.6066 182.329 93.6233 182.324 93.6391C182.318 93.6548 182.31 93.6692 182.299 93.6814C182.287 93.6937 182.274 93.7034 182.258 93.7101C182.243 93.7167 182.227 93.7201 182.21 93.7201C178.6 93.7201 175.139 92.2861 172.586 89.7338C170.034 87.1814 168.6 83.7197 168.6 80.1101V4.69006C168.6 4.65558 168.614 4.62251 168.638 4.59813C168.662 4.57375 168.695 4.56006 168.73 4.56006C172.338 4.56271 175.797 5.99779 178.347 8.54987C180.897 11.102 182.33 14.5622 182.33 18.1701V56.0201C182.331 56.0465 182.339 56.0722 182.355 56.0936C182.37 56.115 182.392 56.1311 182.417 56.1398C182.442 56.1485 182.469 56.1494 182.495 56.1423C182.52 56.1352 182.543 56.1204 182.56 56.1001L206.39 27.3801C206.406 27.3735 206.423 27.3701 206.44 27.3701C206.457 27.3701 206.474 27.3735 206.49 27.3801H225.18C225.205 27.3777 225.231 27.3834 225.252 27.3964C225.274 27.4093 225.291 27.4289 225.301 27.4523C225.312 27.4756 225.314 27.5015 225.308 27.5263C225.303 27.5511 225.289 27.5734 225.27 27.5901L194.94 60.5901C194.932 60.6162 194.932 60.644 194.94 60.6701Z" fill="white"/>
<path d="M293 65.65H242.5C242.482 65.65 242.464 65.6537 242.448 65.6608C242.431 65.6679 242.417 65.6784 242.404 65.6916C242.392 65.7047 242.383 65.7203 242.377 65.7372C242.371 65.7542 242.369 65.7721 242.37 65.79C242.602 70.6092 244.717 75.1445 248.26 78.42C251.813 81.6367 256.468 83.3626 261.26 83.24C266.593 83.24 270.81 81.61 273.91 78.35C275.158 76.9891 276.671 75.8977 278.357 75.1428C280.042 74.3879 281.864 73.9854 283.71 73.96H291.56C291.58 73.9606 291.6 73.9659 291.618 73.9754C291.636 73.985 291.651 73.9985 291.663 74.015C291.674 74.0315 291.682 74.0505 291.685 74.0705C291.688 74.0904 291.686 74.1108 291.68 74.13C289.709 80.0894 285.913 85.2776 280.83 88.96C275.61 92.86 269.093 94.8067 261.28 94.8C255.337 94.8912 249.474 93.4186 244.28 90.53C239.293 87.7204 235.2 83.5612 232.47 78.53C229.533 72.9928 228.06 66.7967 228.19 60.53C228.061 54.2778 229.491 48.0919 232.35 42.53C234.991 37.4744 239.055 33.3028 244.04 30.53C249.339 27.6468 255.298 26.1924 261.33 26.31C267.142 26.2014 272.883 27.5928 278 30.35C282.85 33.0225 286.831 37.0313 289.47 41.9C292.263 47.1244 293.671 52.9771 293.56 58.9C293.578 61.1219 293.424 63.3418 293.1 65.54C293.095 65.5659 293.083 65.59 293.066 65.6094C293.048 65.6289 293.025 65.6429 293 65.65ZM279.1 54.56C279.117 54.5601 279.133 54.5567 279.148 54.5501C279.164 54.5434 279.177 54.5337 279.189 54.5214C279.2 54.5092 279.208 54.4948 279.214 54.479C279.219 54.4633 279.221 54.4466 279.22 54.43C279.249 52.1552 278.778 49.9018 277.842 47.8285C276.905 45.7552 275.526 43.9124 273.8 42.43C270.143 39.3275 265.463 37.6951 260.67 37.85C256.188 37.7542 251.837 39.3665 248.5 42.36C245.077 45.5119 242.94 49.8179 242.5 54.45C242.499 54.4679 242.501 54.4859 242.507 54.5029C242.513 54.5198 242.522 54.5354 242.534 54.5485C242.547 54.5617 242.561 54.5721 242.578 54.5793C242.594 54.5864 242.612 54.5901 242.63 54.59L279.1 54.56Z" fill="white"/>
<path d="M325.83 38.54C325.797 38.5399 325.766 38.5522 325.741 38.5745C325.717 38.5968 325.703 38.6273 325.7 38.66V75.29C325.7 77.78 326.28 79.56 327.45 80.65C328.62 81.74 330.6 82.27 333.45 82.27H341.76C341.777 82.27 341.793 82.2734 341.808 82.28C341.824 82.2867 341.837 82.2964 341.849 82.3086C341.86 82.3208 341.868 82.3353 341.874 82.351C341.879 82.3668 341.881 82.3834 341.88 82.4V82.9C341.877 84.3252 341.594 85.7359 341.045 87.0514C340.497 88.3669 339.694 89.5613 338.684 90.5663C337.673 91.5713 336.474 92.3671 335.156 92.9083C333.837 93.4494 332.425 93.7253 331 93.72C324.82 93.72 320.08 92.2734 316.78 89.38C313.48 86.4867 311.837 81.79 311.85 75.29V38.66C311.847 38.6273 311.833 38.5968 311.809 38.5745C311.784 38.5522 311.753 38.5399 311.72 38.54H304.14C304.106 38.54 304.072 38.5263 304.048 38.5019C304.024 38.4776 304.01 38.4445 304.01 38.41V27.46C304.01 27.4434 304.013 27.4269 304.02 27.4117C304.027 27.3964 304.036 27.3827 304.049 27.3714C304.061 27.3601 304.075 27.3515 304.091 27.3461C304.107 27.3407 304.123 27.3386 304.14 27.34H311.72C311.754 27.34 311.788 27.3263 311.812 27.3019C311.836 27.2776 311.85 27.2445 311.85 27.21V10.96C311.849 10.9434 311.851 10.9268 311.856 10.911C311.862 10.8953 311.87 10.8808 311.881 10.8686C311.893 10.8564 311.906 10.8467 311.922 10.84C311.937 10.8334 311.953 10.83 311.97 10.83C313.773 10.83 315.558 11.1852 317.224 11.8752C318.89 12.5651 320.404 13.5765 321.679 14.8514C322.954 16.1264 323.965 17.64 324.655 19.3058C325.345 20.9716 325.7 22.757 325.7 24.56V27.21C325.7 27.2445 325.714 27.2776 325.738 27.3019C325.762 27.3263 325.796 27.34 325.83 27.34H341.72C341.752 27.34 341.782 27.3527 341.805 27.3752C341.827 27.3977 341.84 27.4282 341.84 27.46V38.46C341.841 38.4766 341.839 38.4933 341.834 38.509C341.828 38.5247 341.82 38.5392 341.809 38.5514C341.797 38.5636 341.784 38.5734 341.768 38.58C341.753 38.5867 341.737 38.5901 341.72 38.59L325.83 38.54Z" fill="white"/>
<path d="M378.59 18.1701V93.5901C378.59 93.6245 378.576 93.6576 378.552 93.682C378.528 93.7064 378.494 93.7201 378.46 93.7201C374.85 93.7201 371.389 92.2861 368.836 89.7338C366.284 87.1814 364.85 83.7197 364.85 80.1101V4.69006C364.85 4.65558 364.864 4.62251 364.888 4.59813C364.912 4.57375 364.946 4.56006 364.98 4.56006C368.589 4.56271 372.049 5.99746 374.601 8.54926C377.153 11.1011 378.587 14.5613 378.59 18.1701Z" fill="white"/>
<path d="M393.45 16.01C392.623 15.1951 391.971 14.2191 391.536 13.1423C391.101 12.0656 390.891 10.911 390.92 9.75001C390.891 8.5875 391.1 7.43136 391.536 6.35297C391.971 5.27457 392.622 4.2968 393.45 3.48001C394.265 2.65257 395.241 2.00111 396.318 1.56594C397.394 1.13077 398.549 0.921141 399.71 0.950012C400.854 0.929145 401.989 1.14288 403.047 1.57802C404.105 2.01316 405.062 2.66048 405.86 3.48001C406.688 4.2968 407.339 5.27457 407.774 6.35297C408.21 7.43136 408.419 8.5875 408.39 9.75001C408.419 10.911 408.209 12.0656 407.774 13.1423C407.339 14.2191 406.687 15.1951 405.86 16.01C405.062 16.8295 404.105 17.4769 403.047 17.912C401.989 18.3471 400.854 18.5609 399.71 18.54C398.549 18.5689 397.394 18.3592 396.318 17.9241C395.241 17.4889 394.265 16.8375 393.45 16.01ZM406.45 40.94V93.59C406.45 93.6228 406.438 93.6545 406.416 93.6786C406.393 93.7027 406.363 93.7175 406.33 93.72C402.72 93.72 399.259 92.2861 396.706 89.7337C394.154 87.1814 392.72 83.7196 392.72 80.11V27.46C392.72 27.4282 392.733 27.3977 392.755 27.3752C392.778 27.3527 392.808 27.34 392.84 27.34C396.443 27.3347 399.902 28.7597 402.455 31.3021C405.009 33.8446 406.449 37.2965 406.46 40.9L406.45 40.94Z" fill="white"/>
<path d="M469.44 29.5C473.57 31.6642 476.95 35.024 479.14 39.14C481.587 43.9029 482.787 49.2078 482.63 54.56V80.23C482.63 82.0016 482.281 83.7558 481.603 85.3924C480.925 87.0291 479.932 88.5162 478.679 89.7689C477.426 91.0216 475.939 92.0152 474.302 92.6932C472.666 93.3711 470.912 93.72 469.14 93.72C469.123 93.7201 469.107 93.7167 469.092 93.71C469.076 93.7034 469.063 93.6936 469.051 93.6814C469.04 93.6692 469.032 93.6548 469.026 93.639C469.021 93.6233 469.019 93.6066 469.02 93.59V56.59C469.02 50.65 467.533 46.0934 464.56 42.92C461.587 39.7467 457.53 38.16 452.39 38.16C447.25 38.16 443.173 39.7467 440.16 42.92C437.147 46.0934 435.643 50.65 435.65 56.59V93.59C435.65 93.6245 435.636 93.6576 435.612 93.682C435.588 93.7063 435.554 93.72 435.52 93.72C431.91 93.72 428.449 92.2861 425.896 89.7338C423.344 87.1814 421.91 83.7196 421.91 80.11V27.46C421.91 27.4434 421.913 27.4269 421.92 27.4117C421.927 27.3964 421.936 27.3827 421.949 27.3714C421.961 27.3602 421.975 27.3515 421.991 27.3461C422.007 27.3407 422.023 27.3386 422.04 27.34H428.39C429.343 27.3387 430.287 27.5253 431.168 27.889C432.048 28.2528 432.849 28.7866 433.523 29.46C434.197 30.1333 434.732 30.933 435.097 31.8133C435.462 32.6935 435.65 33.6371 435.65 34.59C435.65 34.6145 435.657 34.6383 435.671 34.6585C435.685 34.6786 435.704 34.6941 435.727 34.7028C435.75 34.7115 435.775 34.713 435.799 34.7072C435.823 34.7013 435.844 34.6884 435.86 34.67C438.15 32.0067 441.025 29.9087 444.26 28.54C447.774 27.0125 451.568 26.2326 455.4 26.25C460.275 26.1725 465.095 27.2882 469.44 29.5Z" fill="white"/>
<path d="M522.51 60.6701L552.84 93.5101C552.854 93.5284 552.864 93.5504 552.867 93.5735C552.87 93.5967 552.867 93.6203 552.857 93.6418C552.848 93.6633 552.833 93.6819 552.814 93.6957C552.796 93.7095 552.773 93.7179 552.75 93.7201H540.17C538.385 93.7191 536.622 93.3336 535 92.5899C533.378 91.8461 531.935 90.7616 530.77 89.4101L510.12 65.4101C510.102 65.393 510.08 65.3812 510.057 65.3761C510.033 65.371 510.008 65.3727 509.985 65.381C509.962 65.3894 509.942 65.4041 509.927 65.4233C509.912 65.4426 509.902 65.4657 509.9 65.4901V93.5901C509.901 93.6066 509.899 93.6233 509.894 93.6391C509.888 93.6548 509.88 93.6692 509.869 93.6815C509.857 93.6937 509.844 93.7034 509.828 93.7101C509.813 93.7167 509.797 93.7201 509.78 93.7201C506.17 93.7201 502.709 92.2862 500.156 89.7338C497.604 87.1814 496.17 83.7197 496.17 80.1101V4.69006C496.169 4.67348 496.171 4.65679 496.176 4.64106C496.181 4.62533 496.19 4.61089 496.201 4.59867C496.213 4.58644 496.226 4.5767 496.242 4.57005C496.257 4.5634 496.273 4.56 496.29 4.56006C499.9 4.56006 503.361 5.99397 505.914 8.54634C508.466 11.0987 509.9 14.5605 509.9 18.1701V56.0201C509.897 56.0471 509.902 56.0744 509.917 56.0977C509.931 56.1209 509.952 56.1387 509.978 56.148C510.004 56.1573 510.032 56.1576 510.057 56.1489C510.083 56.1402 510.105 56.123 510.12 56.1001L530.38 31.6901C531.51 30.3248 532.928 29.2266 534.532 28.4745C536.137 27.7224 537.888 27.335 539.66 27.3401H552.75C552.773 27.3422 552.796 27.3506 552.814 27.3644C552.833 27.3782 552.848 27.3968 552.857 27.4183C552.867 27.4398 552.87 27.4634 552.867 27.4866C552.864 27.5098 552.854 27.5317 552.84 27.5501L522.51 60.5501C522.501 60.5688 522.496 60.5893 522.496 60.6101C522.496 60.6308 522.501 60.6513 522.51 60.6701Z" fill="white"/>
<path d="M617.92 65.65H567.45C567.432 65.6482 567.413 65.6507 567.396 65.6572C567.378 65.6638 567.363 65.6742 567.35 65.6878C567.338 65.7014 567.328 65.7176 567.323 65.7354C567.318 65.7531 567.317 65.7718 567.32 65.79C567.548 70.6102 569.664 75.1471 573.21 78.42C576.762 81.6385 581.418 83.3647 586.21 83.24C591.543 83.24 595.75 81.6267 598.83 78.4C600.249 76.9682 601.942 75.8371 603.808 75.0742C605.674 74.3113 607.674 73.9324 609.69 73.96H616.52C616.54 73.9606 616.56 73.9659 616.578 73.9754C616.596 73.985 616.611 73.9985 616.623 74.015C616.634 74.0315 616.642 74.0505 616.645 74.0705C616.648 74.0904 616.646 74.1108 616.64 74.13C614.672 80.088 610.879 85.2761 605.8 88.96C600.54 92.86 594.013 94.8067 586.22 94.8C580.26 94.8986 574.38 93.4258 569.17 90.53C564.188 87.7172 560.099 83.5585 557.37 78.53C554.433 72.9928 552.96 66.7967 553.09 60.53C552.962 54.2778 554.391 48.0919 557.25 42.53C559.888 37.4751 563.948 33.3034 568.93 30.53C574.23 27.6489 580.188 26.1947 586.22 26.31C592.069 26.1828 597.85 27.5748 603 30.35C607.829 33.0307 611.788 37.0389 614.41 41.9C617.206 47.1236 618.618 52.9762 618.51 58.9C618.525 61.1222 618.368 63.3421 618.04 65.54C618.037 65.5701 618.024 65.5981 618.002 65.6185C617.979 65.6389 617.95 65.6501 617.92 65.65ZM604 54.56C604.017 54.56 604.034 54.5567 604.05 54.5501C604.066 54.5436 604.08 54.534 604.092 54.522C604.104 54.5099 604.114 54.4956 604.12 54.4798C604.127 54.464 604.13 54.4471 604.13 54.43C604.157 52.1555 603.685 49.9028 602.749 47.8297C601.813 45.7567 600.434 43.9137 598.71 42.43C595.053 39.3274 590.373 37.6951 585.58 37.85C581.098 37.7542 576.747 39.3665 573.41 42.36C569.987 45.5119 567.85 49.8179 567.41 54.45C567.409 54.4671 567.411 54.4843 567.416 54.5006C567.421 54.5169 567.43 54.532 567.441 54.545C567.452 54.558 567.466 54.5687 567.481 54.5764C567.496 54.5841 567.513 54.5888 567.53 54.59L604 54.56Z" fill="white"/>
<path d="M651.13 29.08C654.732 27.1362 658.778 26.1611 662.87 26.25C662.904 26.25 662.938 26.2637 662.962 26.2881C662.986 26.3125 663 26.3456 663 26.38V40.38C663 40.3971 662.997 40.414 662.99 40.4298C662.984 40.4456 662.974 40.4599 662.962 40.472C662.95 40.484 662.936 40.4936 662.92 40.5001C662.904 40.5067 662.887 40.51 662.87 40.51H659.5C654.12 40.51 650.043 41.8734 647.27 44.6C644.497 47.3267 643.113 52.0667 643.12 58.82V93.59C643.12 93.6245 643.106 93.6576 643.082 93.682C643.058 93.7063 643.024 93.72 642.99 93.72C639.38 93.72 635.919 92.2861 633.366 89.7338C630.814 87.1814 629.38 83.7196 629.38 80.11V27.46C629.38 27.4434 629.383 27.4269 629.39 27.4117C629.397 27.3964 629.406 27.3827 629.419 27.3714C629.431 27.3602 629.445 27.3515 629.461 27.3461C629.477 27.3407 629.493 27.3386 629.51 27.34H633.91C636.351 27.34 638.692 28.309 640.419 30.034C642.146 31.7591 643.117 34.0991 643.12 36.54C643.121 36.5653 643.131 36.5895 643.146 36.6092C643.162 36.6289 643.184 36.6431 643.208 36.6497C643.233 36.6564 643.259 36.6551 643.282 36.6462C643.306 36.6373 643.326 36.6211 643.34 36.6C645.255 33.4721 647.936 30.884 651.13 29.08Z" fill="white"/>
<path d="M57.26 44.53C56.2437 44.2938 55.3372 43.7204 54.6883 42.9033C54.0394 42.0862 53.6861 41.0735 53.6861 40.03C53.6861 38.9866 54.0394 37.9739 54.6883 37.1568C55.3372 36.3397 56.2437 35.7663 57.26 35.53C57.7575 35.4315 58.2044 35.1611 58.5225 34.7662C58.8406 34.3713 59.0097 33.877 59 33.37C58.9974 31.1642 58.1199 29.0496 56.5602 27.4898C55.0005 25.9301 52.8858 25.0527 50.68 25.05H46C45.4696 25.05 44.9609 25.2607 44.5858 25.6358C44.2107 26.0109 44 26.5196 44 27.05V29.13C44.0196 29.2707 44.0111 29.4139 43.9748 29.5513C43.9385 29.6886 43.8752 29.8173 43.7886 29.93C43.7021 30.0426 43.5939 30.1369 43.4706 30.2073C43.3472 30.2777 43.211 30.3228 43.07 30.34C42.9282 30.364 42.7829 30.3587 42.6433 30.3242C42.5036 30.2898 42.3726 30.227 42.2582 30.1398C42.1438 30.0526 42.0485 29.9428 41.9783 29.8173C41.9081 29.6918 41.8644 29.5531 41.85 29.41C41.8046 28.5807 41.8046 27.7494 41.85 26.92C41.85 26.4347 41.6572 25.9692 41.314 25.626C40.9708 25.2828 40.5054 25.09 40.02 25.09H31.84C31.5954 25.0914 31.3531 25.0438 31.1272 24.9499C30.9014 24.8561 30.6967 24.7179 30.5251 24.5436C30.3536 24.3692 30.2188 24.1623 30.1286 23.935C30.0384 23.7076 29.9947 23.4645 30 23.22V19.55C30 19.3115 29.9529 19.0753 29.8613 18.8551C29.7697 18.6348 29.6355 18.4348 29.4663 18.2666C29.2972 18.0984 29.0965 17.9653 28.8757 17.8749C28.655 17.7846 28.4185 17.7387 28.18 17.74C27.03 17.74 25.77 17.74 25.67 17.74C25.535 17.6939 25.4105 17.6216 25.3037 17.5271C25.1968 17.4327 25.1097 17.318 25.0474 17.1897C24.9851 17.0614 24.9489 16.922 24.9407 16.7796C24.9326 16.6372 24.9527 16.4946 25 16.36C25.0557 16.2044 25.1458 16.0634 25.2635 15.9474C25.3813 15.8314 25.5236 15.7435 25.68 15.69C26.5138 15.6044 27.3525 15.5776 28.19 15.61C28.4281 15.6114 28.664 15.5654 28.8842 15.475C29.1044 15.3845 29.3045 15.2512 29.4728 15.0829C29.6412 14.9145 29.7744 14.7145 29.8649 14.4943C29.9554 14.2741 30.0013 14.0381 30 13.8V7.33003C29.9921 5.6202 29.3066 3.98326 28.0938 2.77797C26.881 1.57268 25.2399 0.897368 23.53 0.900033H21.53C21.0451 0.904868 20.5759 1.07196 20.197 1.37465C19.8182 1.67734 19.5517 2.09818 19.44 2.57003C19.1462 3.75593 18.3965 4.77809 17.3537 5.41464C16.3109 6.0512 15.0591 6.25077 13.87 5.97003C13.0389 5.77546 12.2778 5.35494 11.6707 4.75493C11.0637 4.15492 10.6343 3.39878 10.43 2.57003C10.3208 2.09314 10.0522 1.66775 9.66857 1.36413C9.28494 1.0605 8.80924 0.896789 8.32 0.900033H6.49C5.64166 0.896085 4.80085 1.05927 4.01558 1.38027C3.2303 1.70127 2.51594 2.17381 1.91329 2.77089C1.31063 3.36797 0.831487 4.07791 0.503205 4.86017C0.174923 5.64243 0.00393544 6.48169 4.91686e-06 7.33003V13.64C4.91686e-06 14.1546 0.204397 14.648 0.568218 15.0118C0.932038 15.3756 1.42548 15.58 1.94 15.58H4C4.14339 15.5554 4.29029 15.5599 4.43188 15.5934C4.57347 15.6269 4.70683 15.6887 4.82395 15.775C4.94108 15.8613 5.03956 15.9704 5.11347 16.0957C5.18739 16.221 5.23522 16.36 5.2541 16.5043C5.27297 16.6485 5.26251 16.7951 5.22332 16.9352C5.18413 17.0754 5.11704 17.2061 5.02606 17.3197C4.93509 17.4332 4.82211 17.5272 4.6939 17.596C4.5657 17.6648 4.42492 17.707 4.28 17.72C4.19 17.72 2.92 17.72 1.8 17.72C1.56014 17.7226 1.32316 17.7726 1.10268 17.8671C0.882211 17.9617 0.682594 18.0988 0.515315 18.2707C0.348035 18.4427 0.216392 18.646 0.127957 18.8689C0.0395208 19.0919 -0.00396323 19.3302 4.91686e-06 19.57V87.19C-0.00130922 88.125 0.181554 89.0512 0.538154 89.9155C0.894754 90.7798 1.41811 91.5655 2.07833 92.2276C2.73856 92.8896 3.52272 93.4152 4.38606 93.7742C5.24939 94.1333 6.17499 94.3187 7.11 94.32H24.76C25.2454 94.32 25.7108 94.1272 26.054 93.784C26.3972 93.4408 26.59 92.9754 26.59 92.49C26.59 91.35 26.59 90.08 26.59 89.97C26.6348 89.8306 26.7074 89.7018 26.8036 89.5913C26.8997 89.4809 27.0172 89.3911 27.1491 89.3275C27.281 89.2639 27.4244 89.2278 27.5707 89.2214C27.717 89.2149 27.863 89.2383 28 89.29C28.1614 89.3371 28.3083 89.4241 28.4271 89.5429C28.546 89.6618 28.6329 89.8087 28.68 89.97C28.7761 90.8064 28.8095 91.6487 28.78 92.49C28.7774 92.7294 28.8222 92.9669 28.912 93.1888C29.0018 93.4108 29.1347 93.6126 29.303 93.7828C29.4714 93.953 29.6718 94.0882 29.8927 94.1804C30.1136 94.2726 30.3506 94.32 30.59 94.32H35.22C37.4498 94.3121 39.5858 93.4221 41.1616 91.8445C42.7373 90.2669 43.6247 88.1298 43.63 85.9C43.6318 85.4093 43.4649 84.9328 43.1572 84.5505C42.8495 84.1682 42.4198 83.9032 41.94 83.8C40.9374 83.548 40.0477 82.9684 39.4121 82.1532C38.7764 81.338 38.4312 80.3338 38.4312 79.3C38.4312 78.2663 38.7764 77.2621 39.4121 76.4469C40.0477 75.6317 40.9374 75.0521 41.94 74.8C42.4292 74.697 42.8666 74.4251 43.1756 74.0321C43.4846 73.639 43.6454 73.1498 43.63 72.65C43.6274 70.4442 42.7499 68.3296 41.1902 66.7698C39.6305 65.2101 37.5158 64.3327 35.31 64.33H32C31.4696 64.33 30.9609 64.1193 30.5858 63.7442C30.2107 63.3692 30 62.8605 30 62.33V57.02C30.0131 56.4983 30.2295 56.0024 30.6032 55.638C30.9768 55.2737 31.4781 55.0699 32 55.07H40.11C40.3499 55.07 40.5873 55.0226 40.8088 54.9305C41.0303 54.8385 41.2314 54.7035 41.4005 54.5334C41.5696 54.3634 41.7035 54.1616 41.7943 53.9396C41.8852 53.7176 41.9313 53.4799 41.93 53.24C41.93 52.11 41.93 50.85 41.93 50.74C41.973 50.6048 42.0425 50.4795 42.1345 50.3713C42.2264 50.2632 42.3389 50.1745 42.4655 50.1102C42.5921 50.046 42.7302 50.0076 42.8717 49.9973C43.0133 49.987 43.1554 50.0049 43.29 50.05C43.4489 50.1048 43.5929 50.1956 43.7109 50.3153C43.8288 50.435 43.9175 50.5804 43.97 50.74C44.0668 51.573 44.0935 52.4126 44.05 53.25C44.05 53.4899 44.0974 53.7274 44.1895 53.9488C44.2816 54.1703 44.4165 54.3714 44.5866 54.5405C44.7567 54.7096 44.9585 54.8435 45.1805 54.9344C45.4024 55.0252 45.6402 55.0713 45.88 55.07H50.51C51.6234 55.0766 52.7271 54.8629 53.7575 54.441C54.7879 54.0192 55.7247 53.3977 56.5139 52.6122C57.303 51.8268 57.929 50.893 58.3557 49.8645C58.7824 48.8361 59.0013 47.7335 59 46.62C58.9953 46.1245 58.8195 45.6458 58.5024 45.265C58.1854 44.8841 57.7465 44.6245 57.26 44.53ZM12.26 17.72H9.36C9.07622 17.72 8.80406 17.6073 8.6034 17.4066C8.40274 17.206 8.29 16.9338 8.29 16.65C8.29 16.3663 8.40274 16.0941 8.6034 15.8934C8.80406 15.6928 9.07622 15.58 9.36 15.58H12.3C12.5838 15.58 12.8559 15.6928 13.0566 15.8934C13.2573 16.0941 13.37 16.3663 13.37 16.65C13.37 16.9338 13.2573 17.206 13.0566 17.4066C12.8559 17.6073 12.5838 17.72 12.3 17.72H12.26ZM20.55 17.72H17.68C17.3962 17.72 17.1241 17.6073 16.9234 17.4066C16.7227 17.206 16.61 16.9338 16.61 16.65C16.61 16.3663 16.7227 16.0941 16.9234 15.8934C17.1241 15.6928 17.3962 15.58 17.68 15.58H20.59C20.8738 15.58 21.1459 15.6928 21.3466 15.8934C21.5473 16.0941 21.66 16.3663 21.66 16.65C21.66 16.9338 21.5473 17.206 21.3466 17.4066C21.1459 17.6073 20.8738 17.72 20.59 17.72H20.55ZM44.08 45.64C44.0945 45.7899 44.0774 45.9412 44.03 46.0841C43.9826 46.227 43.9058 46.3584 43.8045 46.4699C43.7033 46.5814 43.5799 46.6704 43.4422 46.7314C43.3045 46.7923 43.1556 46.8238 43.005 46.8238C42.8544 46.8238 42.7055 46.7923 42.5678 46.7314C42.4301 46.6704 42.3067 46.5814 42.2055 46.4699C42.1042 46.3584 42.0274 46.227 41.98 46.0841C41.9326 45.9412 41.9155 45.7899 41.93 45.64V42.73C41.9155 42.5802 41.9326 42.4289 41.98 42.286C42.0274 42.1431 42.1042 42.0117 42.2055 41.9002C42.3067 41.7887 42.4301 41.6996 42.5678 41.6387C42.7055 41.5777 42.8544 41.5462 43.005 41.5462C43.1556 41.5462 43.3045 41.5777 43.4422 41.6387C43.5799 41.6996 43.7033 41.7887 43.8045 41.9002C43.9058 42.0117 43.9826 42.1431 44.03 42.286C44.0774 42.4289 44.0945 42.5802 44.08 42.73V45.64ZM44.08 37.37C44.0945 37.5199 44.0774 37.6712 44.03 37.8141C43.9826 37.957 43.9058 38.0884 43.8045 38.1999C43.7033 38.3114 43.5799 38.4004 43.4422 38.4614C43.3045 38.5223 43.1556 38.5538 43.005 38.5538C42.8544 38.5538 42.7055 38.5223 42.5678 38.4614C42.4301 38.4004 42.3067 38.3114 42.2055 38.1999C42.1042 38.0884 42.0274 37.957 41.98 37.8141C41.9326 37.6712 41.9155 37.5199 41.93 37.37V34.42C41.9155 34.2701 41.9326 34.1189 41.98 33.976C42.0274 33.8331 42.1042 33.7017 42.2055 33.5902C42.3067 33.4787 42.4301 33.3896 42.5678 33.3287C42.7055 33.2677 42.8544 33.2362 43.005 33.2362C43.1556 33.2362 43.3045 33.2677 43.4422 33.3287C43.5799 33.3896 43.7033 33.4787 43.8045 33.5902C43.9058 33.7017 43.9826 33.8331 44.03 33.976C44.0774 34.1189 44.0945 34.2701 44.08 34.42V37.37Z" fill="white"/>
</g>
<defs>
<clipPath id="clip0_30_3408">
<rect width="663" height="93.9" fill="white" transform="translate(0 0.900024)"/>
</clipPath>
</defs>
</svg>
