<svg width="84" height="79" viewBox="0 0 84 79" fill="none" xmlns="http://www.w3.org/2000/svg">
<g filter="url(#filter0_d_356_19708)">
<rect x="18" y="11" width="48" height="48" rx="24" fill="#EB7E96"/>
</g>
<path d="M46.44 26.102C44.63 26.102 43.01 26.982 42 28.332C41.4841 27.6408 40.8143 27.0794 40.0435 26.6923C39.2728 26.3052 38.4225 26.1031 37.56 26.102C34.49 26.102 32 28.602 32 31.692C32 32.882 32.19 33.982 32.52 35.002C34.1 40.002 38.97 42.992 41.38 43.812C41.72 43.932 42.28 43.932 42.62 43.812C45.03 42.992 49.9 40.002 51.48 35.002C51.81 33.982 52 32.882 52 31.692C52 28.602 49.51 26.102 46.44 26.102Z" fill="white"/>
<defs>
<filter id="filter0_d_356_19708" x="0" y="0" width="84" height="84" filterUnits="userSpaceOnUse" color-interpolation-filters="sRGB">
<feFlood flood-opacity="0" result="BackgroundImageFix"/>
<feColorMatrix in="SourceAlpha" type="matrix" values="0 0 0 0 0 0 0 0 0 0 0 0 0 0 0 0 0 0 127 0" result="hardAlpha"/>
<feMorphology radius="6" operator="dilate" in="SourceAlpha" result="effect1_dropShadow_356_19708"/>
<feOffset dy="7"/>
<feGaussianBlur stdDeviation="6"/>
<feComposite in2="hardAlpha" operator="out"/>
<feColorMatrix type="matrix" values="0 0 0 0 0.166667 0 0 0 0 0.157623 0 0 0 0 0.147222 0 0 0 0.03 0"/>
<feBlend mode="normal" in2="BackgroundImageFix" result="effect1_dropShadow_356_19708"/>
<feBlend mode="normal" in="SourceGraphic" in2="effect1_dropShadow_356_19708" result="shape"/>
</filter>
</defs>
</svg>
