<svg xmlns="http://www.w3.org/2000/svg" width="54" height="32" viewBox="0 0 54 32" fill="none">
  <g clip-path="url(#clip0_243_6632)">
    <path d="M3.32415 0H50.6762C52.3279 0 53.6668 1.32248 53.6668 2.95384V29.0461C53.6668 30.6775 52.3279 32 50.6762 32H3.32415C1.67246 32 0.333496 30.6775 0.333496 29.0461V2.95384C0.333496 1.32248 1.67246 0 3.32415 0Z" fill="white"/>
    <path fill-rule="evenodd" clip-rule="evenodd" d="M2.99655 0C1.52222 0 0.333496 1.19686 0.333496 2.67327V29.3268C0.333496 30.804 1.52579 32 2.99655 32H51.0038C52.4782 32 53.6668 30.8032 53.6668 29.3268V2.67327C53.6668 1.19603 52.4746 0 51.0038 0H2.99655ZM1.00025 29.3268V2.67327C1.00025 1.56311 1.89244 0.666667 2.99664 0.666667H51.0039C52.1062 0.666667 53.0003 1.56397 53.0003 2.67327V29.3268C53.0003 30.4369 52.108 31.3333 51.0039 31.3333H2.99664C1.89432 31.3333 1.00025 30.436 1.00025 29.3268Z" fill="#BDBDBD"/>
    <path fill-rule="evenodd" clip-rule="evenodd" d="M26.6993 14.067C26.6805 15.5483 28.0195 16.3751 29.0282 16.8666C30.0647 17.371 30.4127 17.6943 30.4089 18.1454C30.4009 18.8357 29.5821 19.1402 28.8157 19.1521C27.4786 19.1727 26.7013 18.7911 26.0831 18.5023L25.6017 20.7561C26.2217 21.0419 27.3698 21.2911 28.5605 21.3019C31.3553 21.3019 33.1837 19.9225 33.1937 17.7834C33.2046 15.0687 29.4387 14.9185 29.4643 13.705C29.4733 13.3371 29.8243 12.9445 30.5938 12.8446C30.9745 12.7942 32.0257 12.7556 33.2174 13.3045L33.6851 11.1239C33.0443 10.8905 32.2205 10.667 31.195 10.667C28.5645 10.667 26.7142 12.0653 26.6993 14.067ZM38.1798 10.8549C37.6695 10.8549 37.2394 11.1526 37.0475 11.6095L33.0551 21.1418H35.8479L36.4037 19.6059H39.8165L40.1389 21.1418H42.6003L40.4523 10.8549H38.1798ZM38.5705 13.6338L39.3765 17.4966H37.1691L38.5705 13.6338ZM23.3133 10.8549L21.1119 21.1418H23.7731L25.9734 10.8549H23.3133ZM19.3763 10.8549L16.6063 17.8565L15.4858 11.9031C15.3543 11.2386 14.8351 10.8549 14.2586 10.8549H9.73031L9.66699 11.1536C10.5966 11.3553 11.6528 11.6807 12.2926 12.0288C12.6842 12.2414 12.796 12.4273 12.9245 12.9326L15.0467 21.1418H17.8593L22.171 10.8549H19.3763Z" fill="#1A1F71"/>
  </g>
  <defs>
    <clipPath id="clip0_243_6632">
      <rect width="53.3333" height="32" fill="white" transform="translate(0.333496)"/>
    </clipPath>
  </defs>
</svg>
