<svg width="24" height="24" viewBox="0 0 24 24" fill="none" xmlns="http://www.w3.org/2000/svg">
<path d="M21.9 13.9597C22.17 15.6297 21.7 17.4197 20.27 18.6797C19.28 19.5897 17.98 20.0897 16.63 20.0797H5.54C0.870003 19.7397 0.860003 12.9397 5.54 12.5997H5.59C3.4 6.46974 9.09 2.86974 13.38 4.24974" stroke="#BBBAC4" stroke-width="1.5" stroke-miterlimit="10" stroke-linecap="round" stroke-linejoin="round"/>
<path d="M7.26 13.01C6.74 12.75 6.17 12.61 5.59 12.6M21.97 8.50001C21.97 9.60001 21.46 10.59 20.65 11.23C20.06 11.71 19.29 12 18.47 12C16.54 12 14.97 10.43 14.97 8.50001C14.97 7.54001 15.36 6.67001 16 6.04001V6.03001C16.3227 5.70292 16.7073 5.44338 17.1314 5.26654C17.5555 5.08969 18.0105 4.99909 18.47 5.00001C20.4 5.00001 21.97 6.57001 21.97 8.50001Z" stroke="#BBBAC4" stroke-width="1.5" stroke-miterlimit="10" stroke-linecap="round" stroke-linejoin="round"/>
</svg>
