<svg width="204" height="29" viewBox="0 0 204 29" fill="none" xmlns="http://www.w3.org/2000/svg">
<path d="M23.2954 4.64947C23.0414 4.39829 22.8413 4.0979 22.7075 3.76669C22.5736 3.43549 22.5088 3.08045 22.5169 2.72332C22.5087 2.36571 22.5735 2.01019 22.7074 1.67848C22.8412 1.34677 23.0413 1.04584 23.2954 0.794084C23.5474 0.538632 23.8493 0.337713 24.1822 0.203798C24.5151 0.0698841 24.8721 0.00583358 25.2308 0.015623C25.5822 0.00889303 25.9313 0.0745284 26.2563 0.208449C26.5813 0.342369 26.8753 0.541712 27.12 0.794084C27.3747 1.04541 27.5752 1.34626 27.7091 1.67807C27.8429 2.00988 27.9074 2.36562 27.8985 2.72332C27.9073 3.08055 27.8428 3.4358 27.7089 3.76711C27.5751 4.09841 27.3746 4.39872 27.12 4.64947C26.8753 4.90184 26.5813 5.10118 26.2563 5.2351C25.9313 5.36902 25.5822 5.43466 25.2308 5.42793C24.8721 5.43772 24.5151 5.37367 24.1822 5.23975C23.8493 5.10584 23.5474 4.90492 23.2954 4.64947ZM27.3015 12.3079V28.5202C27.3015 28.5308 27.2973 28.541 27.2898 28.5485C27.2823 28.556 27.2722 28.5602 27.2615 28.5602C26.1514 28.5594 25.0871 28.1179 24.3024 27.3326C23.5177 26.5473 23.0769 25.4827 23.0769 24.3725V8.17254C23.0769 8.16743 23.078 8.16236 23.08 8.15767C23.082 8.15297 23.085 8.14876 23.0888 8.14529C23.0926 8.14181 23.097 8.13916 23.1019 8.1375C23.1067 8.13583 23.1118 8.13519 23.1169 8.13562C24.2244 8.13643 25.2864 8.57588 26.0707 9.35781C26.8549 10.1397 27.2975 11.2005 27.3015 12.3079Z" fill="#232241"/>
<path d="M31.12 12.7846C31.9215 11.2404 33.1497 9.95878 34.6585 9.09231C36.2432 8.20737 38.0345 7.75927 39.8492 7.79385C42.3108 7.79385 44.3559 8.38052 45.9846 9.55385C47.6133 10.7272 48.7026 12.3856 49.2523 14.5292C49.2537 14.5352 49.2537 14.5414 49.2524 14.5474C49.251 14.5534 49.2483 14.5589 49.2444 14.5637C49.2406 14.5685 49.2357 14.5723 49.2301 14.5748C49.2245 14.5774 49.2184 14.5786 49.2123 14.5785H47.1292C46.5115 14.5878 45.8995 14.4596 45.3375 14.2031C44.7755 13.9466 44.2776 13.5682 43.88 13.0954C43.6067 12.7544 43.2854 12.4549 42.9261 12.2062C42.0138 11.6097 40.9385 11.3118 39.8492 11.3539C38.12 11.3539 36.7415 11.9692 35.7138 13.2C34.6861 14.4308 34.1733 16.1426 34.1754 18.3354C34.1754 20.5364 34.6882 22.2533 35.7138 23.4862C36.2145 24.0915 36.8481 24.573 37.5654 24.8933C38.2828 25.2135 39.0643 25.3637 39.8492 25.3323C41.56 25.3323 42.8667 24.8051 43.7692 23.7508C44.2368 23.224 44.8126 22.8045 45.4573 22.5209C46.102 22.2373 46.8004 22.0964 47.5046 22.1077H49.2123C49.2184 22.1073 49.2245 22.1085 49.23 22.1111C49.2355 22.1136 49.2403 22.1175 49.244 22.1224C49.2476 22.1273 49.25 22.133 49.2509 22.139C49.2519 22.145 49.2513 22.1512 49.2492 22.1569C48.7173 24.1132 47.5492 25.8366 45.9292 27.0554C44.2882 28.2862 42.2615 28.9015 39.8492 28.9015C38.0324 28.9371 36.2395 28.4833 34.6585 27.5877C33.1548 26.7147 31.9282 25.4348 31.12 23.8954C30.2384 22.1848 29.7984 20.2809 29.84 18.3569C29.7934 16.4216 30.2335 14.5056 31.12 12.7846Z" fill="#232241"/>
<path d="M59.9815 18.3906L69.3138 28.4952C69.3197 28.5003 69.3239 28.5072 69.3256 28.5148C69.3273 28.5224 69.3266 28.5304 69.3235 28.5376C69.3205 28.5448 69.3152 28.5508 69.3085 28.5548C69.3017 28.5588 69.2939 28.5606 69.2861 28.5598H63.6923C63.6823 28.5627 63.6716 28.5627 63.6615 28.5598L56.1692 19.8521C56.1638 19.8469 56.1571 19.8433 56.1497 19.8417C56.1424 19.8401 56.1347 19.8406 56.1277 19.8432C56.1206 19.8458 56.1144 19.8503 56.1098 19.8562C56.1052 19.8621 56.1023 19.8693 56.1015 19.8767V28.5198C56.102 28.5249 56.1013 28.5301 56.0997 28.5349C56.098 28.5397 56.0953 28.5442 56.0919 28.5479C56.0884 28.5517 56.0842 28.5547 56.0795 28.5567C56.0748 28.5588 56.0697 28.5598 56.0646 28.5598C54.954 28.5598 53.8888 28.1186 53.1035 27.3333C52.3181 26.5479 51.8769 25.4828 51.8769 24.3721V1.16598C51.8769 1.15537 51.8811 1.14519 51.8886 1.13769C51.8961 1.13019 51.9063 1.12598 51.9169 1.12598C53.027 1.12679 54.0914 1.56835 54.8761 2.35361C55.6608 3.13887 56.1015 4.20356 56.1015 5.31367V16.9598C56.1017 16.968 56.1044 16.9759 56.1092 16.9824C56.114 16.989 56.1207 16.994 56.1284 16.9967C56.1361 16.9993 56.1444 16.9996 56.1523 16.9974C56.1601 16.9952 56.1671 16.9907 56.1723 16.9844L63.5046 8.14751C63.5095 8.14548 63.5147 8.14444 63.52 8.14444C63.5253 8.14444 63.5305 8.14548 63.5354 8.14751H69.2861C69.2939 8.14678 69.3017 8.14854 69.3085 8.15253C69.3152 8.15653 69.3205 8.16255 69.3235 8.16973C69.3266 8.17692 69.3273 8.18489 69.3256 8.19251C69.3239 8.20013 69.3197 8.207 69.3138 8.21213L59.9815 18.366C59.9791 18.374 59.9791 18.3826 59.9815 18.3906Z" fill="#232241"/>
<path d="M90.1539 19.9231H74.6154C74.6099 19.923 74.6044 19.9242 74.5993 19.9264C74.5943 19.9286 74.5897 19.9318 74.586 19.9358C74.5822 19.9399 74.5793 19.9447 74.5775 19.9499C74.5757 19.9551 74.575 19.9606 74.5754 19.9661C74.6469 21.4489 75.2977 22.8444 76.3877 23.8523C77.4811 24.842 78.9134 25.3731 80.3877 25.3354C82.0287 25.3354 83.3262 24.8338 84.28 23.8307C84.6641 23.412 85.1297 23.0762 85.6482 22.8439C86.1667 22.6116 86.7273 22.4878 87.2954 22.48H89.7108C89.717 22.4802 89.7231 22.4818 89.7286 22.4847C89.734 22.4876 89.7388 22.4918 89.7423 22.4969C89.7459 22.502 89.7483 22.5078 89.7492 22.514C89.7501 22.5201 89.7496 22.5264 89.7477 22.5323C89.1412 24.3659 87.9733 25.9623 86.4092 27.0954C84.8031 28.2954 82.798 28.8943 80.3939 28.8923C78.5653 28.9203 76.7614 28.4672 75.1631 27.5784C73.6286 26.7139 72.3692 25.4342 71.5292 23.8861C70.6255 22.1823 70.1722 20.2759 70.2123 18.3477C70.1728 16.4239 70.6127 14.5205 71.4923 12.8092C72.3051 11.2536 73.5555 9.97007 75.0892 9.1169C76.7198 8.22974 78.5533 7.78225 80.4092 7.81844C82.1974 7.785 83.964 8.21314 85.5385 9.06152C87.0309 9.8838 88.2558 11.1173 89.0677 12.6154C89.9271 14.2228 90.3603 16.0237 90.3262 17.8461C90.3316 18.5298 90.2843 19.2128 90.1846 19.8892C90.1832 19.8972 90.1795 19.9046 90.1741 19.9106C90.1687 19.9165 90.1616 19.9209 90.1539 19.9231ZM85.8769 16.5107C85.8821 16.5108 85.8871 16.5097 85.8918 16.5077C85.8965 16.5056 85.9007 16.5026 85.9042 16.4989C85.9077 16.4951 85.9103 16.4907 85.912 16.4858C85.9136 16.481 85.9143 16.4758 85.9139 16.4707C85.9227 15.7708 85.778 15.0774 85.4898 14.4395C85.2017 13.8016 84.7772 13.2345 84.2462 12.7784C83.1209 11.8238 81.681 11.3215 80.2062 11.3692C78.8271 11.3397 77.4884 11.8358 76.4616 12.7569C75.4083 13.7267 74.7508 15.0516 74.6154 16.4769C74.615 16.4824 74.6157 16.4879 74.6175 16.4932C74.6193 16.4984 74.6222 16.5031 74.626 16.5072C74.6297 16.5112 74.6343 16.5145 74.6393 16.5167C74.6444 16.5189 74.6499 16.52 74.6554 16.52L85.8769 16.5107Z" fill="#232241"/>
<path d="M100.255 11.5818C100.245 11.5818 100.236 11.5856 100.228 11.5924C100.221 11.5993 100.216 11.6087 100.215 11.6187V22.8895C100.215 23.6557 100.394 24.2034 100.754 24.5387C101.114 24.8741 101.723 25.0372 102.6 25.0372H105.157C105.162 25.0372 105.167 25.0382 105.172 25.0403C105.177 25.0423 105.181 25.0453 105.184 25.0491C105.188 25.0528 105.19 25.0573 105.192 25.0621C105.194 25.067 105.194 25.0721 105.194 25.0772V25.231C105.193 25.6696 105.106 26.1036 104.937 26.5084C104.768 26.9132 104.521 27.2807 104.21 27.5899C103.899 27.8991 103.531 28.144 103.125 28.3105C102.719 28.477 102.285 28.5619 101.846 28.5603C99.9446 28.5603 98.4862 28.1152 97.4708 27.2249C96.4554 26.3346 95.9498 24.8895 95.9539 22.8895V11.6187C95.9531 11.6087 95.9485 11.5993 95.9411 11.5924C95.9337 11.5856 95.924 11.5818 95.9139 11.5818H93.5816C93.571 11.5818 93.5608 11.5776 93.5533 11.5701C93.5458 11.5626 93.5416 11.5524 93.5416 11.5418V8.17259C93.5415 8.16747 93.5426 8.1624 93.5446 8.15771C93.5467 8.15302 93.5497 8.1488 93.5534 8.14533C93.5572 8.14186 93.5616 8.1392 93.5665 8.13754C93.5713 8.13588 93.5765 8.13524 93.5816 8.13566H95.9139C95.9245 8.13566 95.9347 8.13145 95.9422 8.12395C95.9497 8.11645 95.9539 8.10627 95.9539 8.09566V3.09566C95.9534 3.09056 95.9541 3.08543 95.9558 3.08059C95.9574 3.07575 95.9601 3.0713 95.9635 3.06754C95.967 3.06378 95.9712 3.06078 95.9759 3.05874C95.9806 3.05669 95.9857 3.05565 95.9908 3.05566C96.5456 3.05566 97.0949 3.16494 97.6075 3.37724C98.12 3.58955 98.5858 3.90073 98.9781 4.29303C99.3703 4.68532 99.6815 5.15104 99.8938 5.66359C100.106 6.17614 100.215 6.72549 100.215 7.28028V8.09566C100.215 8.10627 100.22 8.11645 100.227 8.12395C100.235 8.13145 100.245 8.13566 100.255 8.13566H105.145C105.154 8.13566 105.164 8.13955 105.171 8.14648C105.178 8.1534 105.182 8.16279 105.182 8.17259V11.5572C105.182 11.5623 105.181 11.5674 105.18 11.5723C105.178 11.5771 105.175 11.5816 105.172 11.5853C105.168 11.5891 105.164 11.5921 105.16 11.5941C105.155 11.5962 105.15 11.5972 105.145 11.5972L100.255 11.5818Z" fill="#232241"/>
<path d="M116.489 5.31367V28.5198C116.489 28.5304 116.485 28.5406 116.478 28.5481C116.47 28.5556 116.46 28.5598 116.449 28.5598C115.339 28.5598 114.273 28.1186 113.488 27.3333C112.703 26.5479 112.262 25.4828 112.262 24.3721V1.16598C112.262 1.15537 112.266 1.14519 112.273 1.13769C112.281 1.13019 112.291 1.12598 112.302 1.12598C113.412 1.12679 114.477 1.56826 115.262 2.35342C116.047 3.13859 116.488 4.20327 116.489 5.31367Z" fill="#232241"/>
<path d="M121.062 4.6493C120.807 4.39856 120.607 4.09825 120.473 3.76694C120.339 3.43563 120.274 3.08038 120.283 2.72315C120.274 2.36545 120.339 2.00972 120.473 1.6779C120.606 1.34609 120.807 1.04524 121.062 0.793917C121.312 0.539319 121.613 0.338872 121.944 0.204974C122.275 0.0710751 122.63 0.00657266 122.988 0.0154558C123.34 0.00903518 123.689 0.0747995 124.015 0.208689C124.34 0.342579 124.635 0.541753 124.88 0.793917C125.135 1.04524 125.335 1.34609 125.469 1.6779C125.603 2.00972 125.667 2.36545 125.658 2.72315C125.667 3.08038 125.603 3.43563 125.469 3.76694C125.335 4.09825 125.135 4.39856 124.88 4.6493C124.635 4.90147 124.34 5.10064 124.015 5.23453C123.689 5.36842 123.34 5.43418 122.988 5.42776C122.63 5.43665 122.275 5.37214 121.944 5.23824C121.613 5.10435 121.312 4.9039 121.062 4.6493ZM125.062 12.3201V28.5201C125.062 28.5302 125.058 28.5399 125.051 28.5473C125.044 28.5547 125.035 28.5593 125.025 28.5601C123.914 28.5601 122.849 28.1189 122.063 27.3335C121.278 26.5482 120.837 25.483 120.837 24.3724V8.17238C120.837 8.16258 120.841 8.15319 120.848 8.14627C120.855 8.13934 120.864 8.13545 120.874 8.13545C121.983 8.13382 123.047 8.57229 123.832 9.35457C124.618 10.1369 125.061 11.199 125.065 12.3078L125.062 12.3201Z" fill="#232241"/>
<path d="M144.443 8.79999C145.714 9.46591 146.754 10.4997 147.428 11.7661C148.181 13.2317 148.55 14.8639 148.502 16.5108V24.4092C148.502 24.9543 148.394 25.4941 148.186 25.9977C147.977 26.5012 147.671 26.9588 147.286 27.3443C146.9 27.7297 146.443 28.0354 145.939 28.244C145.436 28.4526 144.896 28.56 144.351 28.56C144.346 28.56 144.341 28.559 144.336 28.5569C144.331 28.5549 144.327 28.5519 144.324 28.5481C144.32 28.5443 144.317 28.5399 144.316 28.5351C144.314 28.5302 144.313 28.5251 144.314 28.52V17.1354C144.314 15.3077 143.856 13.9056 142.942 12.9292C142.027 11.9528 140.778 11.4646 139.197 11.4646C137.615 11.4646 136.361 11.9528 135.434 12.9292C134.507 13.9056 134.044 15.3077 134.046 17.1354V28.52C134.046 28.5306 134.042 28.5408 134.034 28.5483C134.027 28.5558 134.017 28.56 134.006 28.56C132.896 28.56 131.83 28.1188 131.045 27.3334C130.26 26.5481 129.818 25.4829 129.818 24.3723V8.1723C129.818 8.16718 129.82 8.16211 129.822 8.15742C129.824 8.15273 129.827 8.14851 129.83 8.14504C129.834 8.14157 129.839 8.13892 129.843 8.13725C129.848 8.13559 129.853 8.13495 129.858 8.13538H131.812C132.106 8.13497 132.396 8.19237 132.667 8.3043C132.938 8.41623 133.184 8.58048 133.392 8.78767C133.599 8.99485 133.764 9.24091 133.876 9.51176C133.988 9.78261 134.046 10.0729 134.046 10.3661C134.046 10.3737 134.048 10.381 134.053 10.3872C134.057 10.3934 134.063 10.3982 134.07 10.4008C134.077 10.4035 134.085 10.404 134.092 10.4022C134.099 10.4004 134.106 10.3964 134.111 10.3908C134.815 9.57126 135.7 8.92574 136.695 8.50461C137.777 8.03458 138.944 7.79463 140.123 7.79999C141.623 7.77612 143.106 8.11943 144.443 8.79999Z" fill="#232241"/>
<path d="M160.772 18.3906L170.105 28.4952C170.109 28.5009 170.112 28.5076 170.113 28.5147C170.114 28.5219 170.113 28.5291 170.11 28.5357C170.107 28.5424 170.103 28.5481 170.097 28.5523C170.091 28.5566 170.084 28.5592 170.077 28.5598H166.206C165.657 28.5595 165.115 28.4409 164.615 28.2121C164.116 27.9832 163.672 27.6495 163.314 27.2337L156.96 19.8491C156.955 19.8438 156.948 19.8402 156.94 19.8386C156.933 19.837 156.925 19.8376 156.918 19.8401C156.911 19.8427 156.905 19.8472 156.901 19.8531C156.896 19.8591 156.893 19.8662 156.892 19.8737V28.5198C156.893 28.5249 156.892 28.5301 156.89 28.5349C156.889 28.5397 156.886 28.5442 156.883 28.5479C156.879 28.5517 156.875 28.5547 156.87 28.5567C156.866 28.5588 156.86 28.5598 156.855 28.5598C155.745 28.5598 154.68 28.1186 153.894 27.3333C153.109 26.5479 152.668 25.4828 152.668 24.3721V1.16598C152.667 1.16088 152.668 1.15574 152.67 1.1509C152.671 1.14606 152.674 1.14162 152.677 1.13786C152.681 1.13409 152.685 1.1311 152.69 1.12905C152.694 1.12701 152.699 1.12596 152.705 1.12598C153.815 1.12598 154.88 1.56718 155.666 2.35252C156.451 3.13787 156.892 4.20302 156.892 5.31367V16.9598C156.891 16.9681 156.893 16.9766 156.897 16.9837C156.902 16.9909 156.908 16.9963 156.916 16.9992C156.924 17.002 156.933 17.0021 156.941 16.9995C156.949 16.9968 156.955 16.9915 156.96 16.9844L163.194 9.47367C163.541 9.05358 163.978 8.71569 164.471 8.48427C164.965 8.25284 165.504 8.13364 166.049 8.13521H170.077C170.084 8.13587 170.091 8.13846 170.097 8.1427C170.103 8.14693 170.107 8.15266 170.11 8.15928C170.113 8.16589 170.114 8.17315 170.113 8.18029C170.112 8.18742 170.109 8.19417 170.105 8.19982L160.772 18.3537C160.77 18.3594 160.768 18.3657 160.768 18.3721C160.768 18.3785 160.77 18.3848 160.772 18.3906Z" fill="#232241"/>
<path d="M190.129 19.9235H174.6C174.594 19.9229 174.589 19.9237 174.583 19.9257C174.578 19.9277 174.573 19.9309 174.569 19.9351C174.565 19.9393 174.563 19.9443 174.561 19.9497C174.559 19.9552 174.559 19.961 174.56 19.9666C174.63 21.4497 175.281 22.8456 176.372 23.8527C177.465 24.843 178.898 25.3741 180.372 25.3358C182.013 25.3358 183.308 24.8394 184.255 23.8466C184.692 23.406 185.213 23.058 185.787 22.8232C186.361 22.5885 186.977 22.4719 187.597 22.4804H189.698C189.705 22.4806 189.711 22.4822 189.716 22.4851C189.722 22.4881 189.726 22.4922 189.73 22.4973C189.734 22.5024 189.736 22.5082 189.737 22.5144C189.738 22.5205 189.737 22.5268 189.735 22.5327C189.13 24.3659 187.963 25.9623 186.4 27.0958C184.782 28.2958 182.773 28.8948 180.375 28.8927C178.542 28.923 176.732 28.4699 175.129 27.5789C173.596 26.7134 172.338 25.4338 171.498 23.8866C170.595 22.1828 170.141 20.2763 170.182 18.3481C170.142 16.4243 170.582 14.521 171.462 12.8096C172.273 11.2543 173.523 9.97069 175.055 9.11733C176.686 8.23083 178.519 7.78339 180.375 7.81887C182.175 7.77971 183.954 8.20802 185.538 9.06195C187.024 9.88676 188.243 11.12 189.049 12.6158C189.91 14.223 190.344 16.0238 190.311 17.8466C190.315 18.5303 190.267 19.2134 190.166 19.8896C190.165 19.8989 190.161 19.9075 190.154 19.9138C190.147 19.9201 190.139 19.9235 190.129 19.9235ZM185.846 16.5112C185.851 16.5112 185.857 16.5101 185.861 16.5081C185.866 16.5061 185.871 16.5032 185.874 16.4995C185.878 16.4957 185.881 16.4913 185.883 16.4865C185.885 16.4816 185.886 16.4764 185.886 16.4712C185.894 15.7713 185.749 15.0782 185.461 14.4403C185.173 13.8025 184.749 13.2354 184.218 12.7789C183.093 11.8242 181.653 11.322 180.178 11.3696C178.799 11.3401 177.461 11.8362 176.434 12.7573C175.381 13.7271 174.723 15.052 174.588 16.4773C174.587 16.4826 174.588 16.4879 174.59 16.4929C174.591 16.4979 174.594 16.5025 174.597 16.5065C174.601 16.5106 174.605 16.5138 174.61 16.5162C174.614 16.5186 174.619 16.52 174.625 16.5204L185.846 16.5112Z" fill="#232241"/>
<path d="M200.348 8.67132C201.456 8.07322 202.701 7.77317 203.96 7.80055C203.971 7.80055 203.981 7.80476 203.988 7.81226C203.996 7.81976 204 7.82994 204 7.84055V12.1482C204 12.1535 203.999 12.1587 203.997 12.1635C203.995 12.1684 203.992 12.1728 203.988 12.1765C203.985 12.1802 203.98 12.1832 203.975 12.1852C203.97 12.1872 203.965 12.1882 203.96 12.1882H202.923C201.268 12.1882 200.013 12.6077 199.16 13.4467C198.307 14.2857 197.881 15.7441 197.883 17.8221V28.5205C197.883 28.5312 197.879 28.5413 197.871 28.5488C197.864 28.5563 197.854 28.5605 197.843 28.5605C196.732 28.5605 195.667 28.1193 194.882 27.334C194.097 26.5487 193.655 25.4835 193.655 24.3729V8.17285C193.655 8.16774 193.656 8.16267 193.658 8.15798C193.661 8.15328 193.664 8.14907 193.667 8.1456C193.671 8.14212 193.675 8.13947 193.68 8.13781C193.685 8.13614 193.69 8.13551 193.695 8.13593H195.049C195.8 8.13593 196.521 8.43407 197.052 8.96486C197.583 9.49564 197.882 10.2157 197.883 10.9667C197.883 10.9745 197.886 10.9819 197.891 10.988C197.896 10.994 197.903 10.9984 197.91 11.0004C197.918 11.0025 197.926 11.0021 197.933 10.9994C197.94 10.9966 197.947 10.9917 197.951 10.9852C198.54 10.0227 199.365 9.22637 200.348 8.67132Z" fill="#232241"/>
<path d="M17.6183 13.4246C17.3056 13.3519 17.0267 13.1755 16.827 12.9241C16.6273 12.6727 16.5186 12.3611 16.5186 12.04C16.5186 11.719 16.6273 11.4074 16.827 11.1559C17.0267 10.9045 17.3056 10.7281 17.6183 10.6554C17.7714 10.6251 17.9089 10.5419 18.0068 10.4204C18.1046 10.2989 18.1567 10.1468 18.1537 9.99079C18.1529 9.31209 17.8829 8.66141 17.403 8.1815C16.9231 7.70158 16.2724 7.4316 15.5937 7.43079H14.1537C13.9905 7.43079 13.8339 7.49562 13.7185 7.61103C13.6031 7.72644 13.5383 7.88296 13.5383 8.04617V8.68617C13.5443 8.72946 13.5417 8.77352 13.5305 8.81578C13.5194 8.85804 13.4999 8.89766 13.4733 8.93231C13.4466 8.96697 13.4134 8.99597 13.3754 9.01763C13.3374 9.0393 13.2955 9.05318 13.2521 9.05848C13.2085 9.06587 13.1638 9.06421 13.1208 9.05362C13.0779 9.04302 13.0375 9.02371 13.0023 8.99688C12.9671 8.97005 12.9378 8.93627 12.9162 8.89764C12.8946 8.85902 12.8812 8.81636 12.8768 8.77233C12.8628 8.51713 12.8628 8.26137 12.8768 8.00617C12.8768 7.85684 12.8174 7.71362 12.7118 7.60802C12.6062 7.50242 12.463 7.4431 12.3137 7.4431H9.79676C9.72151 7.44353 9.64693 7.42887 9.57745 7.39999C9.50796 7.37111 9.44496 7.32859 9.39218 7.27495C9.3394 7.22131 9.29791 7.15764 9.27016 7.08769C9.24241 7.01775 9.22896 6.94295 9.2306 6.86771V5.73848C9.2306 5.66509 9.2161 5.59241 9.18792 5.52464C9.15974 5.45687 9.11844 5.39534 9.0664 5.34359C9.01436 5.29183 8.9526 5.25087 8.88467 5.22307C8.81675 5.19526 8.744 5.18115 8.6706 5.18156C8.31676 5.18156 7.92906 5.18156 7.89829 5.18156C7.85676 5.16738 7.81845 5.14511 7.78557 5.11605C7.75269 5.08698 7.7259 5.05169 7.70673 5.01221C7.68756 4.97274 7.67641 4.92985 7.6739 4.88604C7.6714 4.84222 7.6776 4.79835 7.69214 4.75694C7.70929 4.70907 7.737 4.66568 7.77323 4.62999C7.80945 4.5943 7.85325 4.56723 7.90137 4.55079C8.15791 4.52443 8.41599 4.51621 8.67368 4.52617C8.74693 4.52658 8.81953 4.51246 8.88729 4.48461C8.95504 4.45677 9.0166 4.41576 9.06839 4.36397C9.12019 4.31217 9.1612 4.25061 9.18904 4.18286C9.21688 4.11511 9.23101 4.0425 9.2306 3.96925V1.97848C9.22816 1.45238 9.01724 0.948708 8.64408 0.577849C8.27091 0.206991 7.76594 -0.000798542 7.23983 2.15348e-05H6.62445C6.47526 0.00150913 6.33086 0.0529221 6.21431 0.146057C6.09775 0.239192 6.01574 0.368683 5.98137 0.513868C5.89097 0.878759 5.6603 1.19327 5.33943 1.38913C5.01856 1.58499 4.63339 1.6464 4.26752 1.56002C4.01181 1.50015 3.77762 1.37076 3.59083 1.18614C3.40404 1.00153 3.27192 0.768865 3.20906 0.513868C3.17546 0.367131 3.09281 0.236243 2.97477 0.142819C2.85674 0.0493954 2.71037 -0.000976582 2.55983 2.15348e-05H1.99676C1.73573 -0.00119349 1.47702 0.0490174 1.23539 0.147787C0.99377 0.246557 0.773967 0.391952 0.588535 0.57567C0.403103 0.759387 0.255673 0.97783 0.154663 1.21853C0.0536535 1.45922 0.00104188 1.71745 -0.000167508 1.97848V3.92002C-0.000167508 4.07833 0.0627224 4.23016 0.174667 4.34211C0.286612 4.45405 0.438442 4.51694 0.596756 4.51694H1.2306C1.27472 4.50935 1.31992 4.51075 1.36349 4.52105C1.40705 4.53136 1.44809 4.55036 1.48412 4.57692C1.52016 4.60348 1.55046 4.63705 1.57321 4.67561C1.59595 4.71417 1.61067 4.75693 1.61648 4.80132C1.62228 4.84571 1.61906 4.89082 1.60701 4.93393C1.59495 4.97705 1.5743 5.01728 1.54631 5.05222C1.51832 5.08716 1.48356 5.11608 1.44411 5.13725C1.40466 5.15841 1.36134 5.17139 1.31676 5.17541C1.28906 5.17541 0.898294 5.17541 0.553679 5.17541C0.479875 5.17621 0.406957 5.19159 0.339119 5.22067C0.27128 5.24975 0.20986 5.29195 0.158389 5.34485C0.106919 5.39775 0.0664132 5.46031 0.0392022 5.52892C0.0119912 5.59753 -0.00138848 5.67084 -0.000167508 5.74464V26.5508C-0.000571859 26.8385 0.0556937 27.1234 0.165417 27.3894C0.27514 27.6553 0.436172 27.8971 0.639318 28.1008C0.842464 28.3045 1.08375 28.4662 1.34939 28.5767C1.61503 28.6872 1.89983 28.7442 2.18752 28.7446H7.61829C7.76763 28.7446 7.91085 28.6853 8.01645 28.5797C8.12205 28.4741 8.18137 28.3309 8.18137 28.1816C8.18137 27.8308 8.18137 27.44 8.18137 27.4062C8.19515 27.3633 8.2175 27.3236 8.24708 27.2896C8.27665 27.2557 8.31283 27.228 8.35341 27.2085C8.39399 27.1889 8.43812 27.1778 8.48313 27.1758C8.52813 27.1738 8.57307 27.181 8.61522 27.1969C8.66487 27.2114 8.71006 27.2382 8.74664 27.2748C8.78321 27.3113 8.80997 27.3565 8.82445 27.4062C8.85401 27.6635 8.8643 27.9227 8.85522 28.1816C8.8544 28.2552 8.86821 28.3283 8.89583 28.3966C8.92346 28.4649 8.96435 28.527 9.01614 28.5793C9.06794 28.6317 9.12961 28.6733 9.19759 28.7017C9.26556 28.73 9.33848 28.7446 9.41214 28.7446H10.8368C11.5228 28.7422 12.1801 28.4684 12.6649 27.9829C13.1498 27.4975 13.4228 26.8399 13.4244 26.1539C13.425 26.0029 13.3736 25.8563 13.279 25.7386C13.1843 25.621 13.0521 25.5395 12.9044 25.5077C12.596 25.4302 12.3222 25.2518 12.1266 25.001C11.931 24.7501 11.8248 24.4412 11.8248 24.1231C11.8248 23.805 11.931 23.496 12.1266 23.2452C12.3222 22.9944 12.596 22.816 12.9044 22.7385C13.055 22.7068 13.1896 22.6231 13.2846 22.5022C13.3797 22.3812 13.4292 22.2307 13.4244 22.0769C13.4236 21.3982 13.1537 20.7476 12.6737 20.2676C12.1938 19.7877 11.5432 19.5178 10.8644 19.5169H9.84599C9.68278 19.5169 9.52625 19.4521 9.41084 19.3367C9.29544 19.2213 9.2306 19.0648 9.2306 18.9016V17.2677C9.23462 17.1072 9.30122 16.9546 9.41619 16.8425C9.53117 16.7304 9.68541 16.6677 9.84599 16.6677H12.3414C12.4152 16.6677 12.4882 16.6531 12.5564 16.6248C12.6245 16.5965 12.6864 16.5549 12.7384 16.5026C12.7905 16.4503 12.8317 16.3882 12.8596 16.3199C12.8876 16.2516 12.9018 16.1784 12.9014 16.1046C12.9014 15.7569 12.9014 15.3692 12.9014 15.3354C12.9146 15.2938 12.936 15.2552 12.9643 15.222C12.9926 15.1887 13.0272 15.1614 13.0661 15.1416C13.1051 15.1219 13.1476 15.11 13.1911 15.1069C13.2347 15.1037 13.2784 15.1092 13.3198 15.1231C13.3687 15.14 13.413 15.1679 13.4493 15.2047C13.4856 15.2416 13.5129 15.2863 13.5291 15.3354C13.5588 15.5917 13.5671 15.85 13.5537 16.1077C13.5537 16.1815 13.5683 16.2546 13.5966 16.3227C13.6249 16.3909 13.6665 16.4527 13.7188 16.5048C13.7711 16.5568 13.8332 16.598 13.9015 16.626C13.9698 16.6539 14.043 16.6681 14.1168 16.6677H15.5414C15.884 16.6697 16.2236 16.604 16.5406 16.4742C16.8577 16.3444 17.1459 16.1531 17.3887 15.9115C17.6315 15.6698 17.8241 15.3825 17.9554 15.066C18.0867 14.7496 18.1541 14.4103 18.1537 14.0677C18.1522 13.9152 18.0981 13.768 18.0006 13.6508C17.903 13.5336 17.768 13.4537 17.6183 13.4246ZM3.77214 5.17541H2.87983C2.79252 5.17541 2.70877 5.14072 2.64703 5.07898C2.58529 5.01723 2.5506 4.93349 2.5506 4.84617C2.5506 4.75886 2.58529 4.67512 2.64703 4.61337C2.70877 4.55163 2.79252 4.51694 2.87983 4.51694H3.78445C3.87177 4.51694 3.95551 4.55163 4.01725 4.61337C4.07899 4.67512 4.11368 4.75886 4.11368 4.84617C4.11368 4.93349 4.07899 5.01723 4.01725 5.07898C3.95551 5.14072 3.87177 5.17541 3.78445 5.17541H3.77214ZM6.32291 5.17541H5.43983C5.35252 5.17541 5.26877 5.14072 5.20703 5.07898C5.14529 5.01723 5.1106 4.93349 5.1106 4.84617C5.1106 4.75886 5.14529 4.67512 5.20703 4.61337C5.26877 4.55163 5.35252 4.51694 5.43983 4.51694H6.33522C6.42253 4.51694 6.50628 4.55163 6.56802 4.61337C6.62976 4.67512 6.66445 4.75886 6.66445 4.84617C6.66445 4.93349 6.62976 5.01723 6.56802 5.07898C6.50628 5.14072 6.42253 5.17541 6.33522 5.17541H6.32291ZM13.5629 13.7662C13.5674 13.8123 13.5621 13.8588 13.5475 13.9028C13.5329 13.9468 13.5093 13.9872 13.4782 14.0215C13.447 14.0558 13.409 14.0832 13.3667 14.102C13.3243 14.1207 13.2785 14.1304 13.2321 14.1304C13.1858 14.1304 13.14 14.1207 13.0976 14.102C13.0553 14.0832 13.0173 14.0558 12.9861 14.0215C12.955 13.9872 12.9314 13.9468 12.9168 13.9028C12.9022 13.8588 12.8969 13.8123 12.9014 13.7662V12.8708C12.8969 12.8247 12.9022 12.7781 12.9168 12.7342C12.9314 12.6902 12.955 12.6497 12.9861 12.6154C13.0173 12.5811 13.0553 12.5537 13.0976 12.535C13.14 12.5162 13.1858 12.5065 13.2321 12.5065C13.2785 12.5065 13.3243 12.5162 13.3667 12.535C13.409 12.5537 13.447 12.5811 13.4782 12.6154C13.5093 12.6497 13.5329 12.6902 13.5475 12.7342C13.5621 12.7781 13.5674 12.8247 13.5629 12.8708V13.7662ZM13.5629 11.2216C13.5674 11.2677 13.5621 11.3142 13.5475 11.3582C13.5329 11.4022 13.5093 11.4426 13.4782 11.4769C13.447 11.5112 13.409 11.5386 13.3667 11.5574C13.3243 11.5761 13.2785 11.5858 13.2321 11.5858C13.1858 11.5858 13.14 11.5761 13.0976 11.5574C13.0553 11.5386 13.0173 11.5112 12.9861 11.4769C12.955 11.4426 12.9314 11.4022 12.9168 11.3582C12.9022 11.3142 12.8969 11.2677 12.9014 11.2216V10.3139C12.8969 10.2677 12.9022 10.2212 12.9168 10.1772C12.9314 10.1333 12.955 10.0928 12.9861 10.0585C13.0173 10.0242 13.0553 9.99682 13.0976 9.97806C13.14 9.95931 13.1858 9.94962 13.2321 9.94962C13.2785 9.94962 13.3243 9.95931 13.3667 9.97806C13.409 9.99682 13.447 10.0242 13.4782 10.0585C13.5093 10.0928 13.5329 10.1333 13.5475 10.1772C13.5621 10.2212 13.5674 10.2677 13.5629 10.3139V11.2216Z" fill="url(#paint0_linear_708_1673)"/>
<defs>
<linearGradient id="paint0_linear_708_1673" x1="-3.27709" y1="24.1846" x2="15.0552" y2="5.84925" gradientUnits="userSpaceOnUse">
<stop stop-color="#EB7E96"/>
<stop offset="1" stop-color="#F5911E"/>
</linearGradient>
</defs>
</svg>
