<svg width="100" height="100" viewBox="0 0 100 100" fill="none" xmlns="http://www.w3.org/2000/svg">
<path d="M59.7917 8.33398H40.2083C35.875 8.33398 32.3333 11.834 32.3333 16.1673V20.084C32.3333 24.4173 35.8333 27.9173 40.1667 27.9173H59.7917C64.125 27.9173 67.625 24.4173 67.625 20.084V16.1673C67.6667 11.834 64.125 8.33398 59.7917 8.33398Z" fill="#BBBAC4"/>
<path d="M71.8333 20.0825C71.8333 26.7075 66.4167 32.1242 59.7917 32.1242H40.2083C33.5833 32.1242 28.1667 26.7075 28.1667 20.0825C28.1667 17.7492 25.6667 16.2908 23.5833 17.3742C20.599 18.9634 18.1033 21.3348 16.3637 24.2341C14.6241 27.1334 13.7062 30.4514 13.7083 33.8325V73.0409C13.7083 83.2908 22.0833 91.6658 32.3333 91.6658H67.6667C77.9167 91.6658 86.2917 83.2908 86.2917 73.0409V33.8325C86.2917 26.7075 82.2917 20.4992 76.4167 17.3742C74.3333 16.2908 71.8333 17.7492 71.8333 20.0825ZM51.5833 70.6242H33.3333C31.625 70.6242 30.2083 69.2075 30.2083 67.4992C30.2083 65.7909 31.625 64.3742 33.3333 64.3742H51.5833C53.2917 64.3742 54.7083 65.7909 54.7083 67.4992C54.7083 69.2075 53.2917 70.6242 51.5833 70.6242ZM62.5 53.9575H33.3333C31.625 53.9575 30.2083 52.5408 30.2083 50.8325C30.2083 49.1242 31.625 47.7075 33.3333 47.7075H62.5C64.2083 47.7075 65.625 49.1242 65.625 50.8325C65.625 52.5408 64.2083 53.9575 62.5 53.9575Z" fill="#BBBAC4"/>
</svg>
