<svg xmlns="http://www.w3.org/2000/svg" width="32" height="32" viewBox="0 0 32 32" fill="none">
<path d="M29.3333 21.586L29.3333 10.4127C29.3333 5.55935 26.4399 2.66602 21.5866 2.66602L10.4266 2.66601C5.55992 2.66601 2.66658 5.55935 2.66658 10.4127L2.66658 21.5727C2.66658 26.426 5.55992 29.3193 10.4132 29.3193L21.5866 29.3193C26.4399 29.3327 29.3333 26.4394 29.3333 21.586ZM14.2533 9.33268C14.2533 8.37268 15.0399 7.58602 15.9999 7.58602C16.9599 7.58602 17.7466 8.37268 17.7466 9.33268C17.7466 10.2927 16.9599 11.0793 15.9999 11.0793C15.0399 11.0793 14.2533 10.2927 14.2533 9.33268ZM14.2533 15.9993C14.2533 15.0393 15.0399 14.2527 15.9999 14.2527C16.9599 14.2527 17.7466 15.0393 17.7466 15.9993C17.7466 16.9593 16.9599 17.746 15.9999 17.746C15.0399 17.746 14.2533 16.9593 14.2533 15.9993ZM14.2533 22.666C14.2533 21.706 15.0399 20.9193 15.9999 20.9193C16.9599 20.9193 17.7466 21.706 17.7466 22.666C17.7466 23.626 16.9599 24.4127 15.9999 24.4127C15.0399 24.4127 14.2533 23.626 14.2533 22.666Z" fill="#D8D7DD"/>
</svg>
