<svg width="88" height="88" viewBox="0 0 88 88" fill="none" xmlns="http://www.w3.org/2000/svg">
<g clip-path="url(#clip0_157_3896)">
<path fill-rule="evenodd" clip-rule="evenodd" d="M44 0C19.7313 0 0 19.7313 0 44C0 68.2688 19.7313 88 44 88C68.2688 88 88 68.2688 88 44C88 19.7313 68.2688 0 44 0Z" fill="#4BAE4F"/>
<path fill-rule="evenodd" clip-rule="evenodd" d="M65.2781 29.1672C66.3437 30.2328 66.3437 31.986 65.2781 33.0516L39.4968 58.8328C38.964 59.3656 38.2593 59.6407 37.5546 59.6407C36.85 59.6407 36.1453 59.3656 35.6125 58.8328L22.7218 45.9422C21.6562 44.8766 21.6562 43.1235 22.7218 42.0578C23.7875 40.9922 25.5406 40.9922 26.6062 42.0578L37.5546 53.0063L61.3937 29.1672C62.4593 28.0844 64.2124 28.0844 65.2781 29.1672Z" fill="white"/>
</g>
<defs>
<clipPath id="clip0_157_3896">
<rect width="88" height="88" fill="white"/>
</clipPath>
</defs>
</svg>
