<svg width="88" height="88" viewBox="0 0 88 88" fill="none" xmlns="http://www.w3.org/2000/svg">
<g clip-path="url(#clip0_157_3895)">
<path fill-rule="evenodd" clip-rule="evenodd" d="M44 0C19.7313 0 0 19.7313 0 44C0 68.2688 19.7313 88 44 88C68.2688 88 88 68.2688 88 44C88 19.7313 68.2688 0 44 0Z" fill="#F34235"/>
<path fill-rule="evenodd" clip-rule="evenodd" d="M59.6234 59.6234C58.5578 60.689 56.8046 60.689 55.739 59.6234L44 47.8844L32.2781 59.6234C31.2125 60.689 29.4593 60.689 28.3937 59.6234C27.3281 58.5578 27.3281 56.8047 28.3937 55.739L40.1328 44.0172L28.3937 32.2953C27.3281 31.2297 27.3281 29.4765 28.3937 28.4109C29.4593 27.3453 31.2125 27.3453 32.2781 28.4109L44 40.1328L55.7218 28.4109C56.7875 27.3453 58.5406 27.3453 59.6062 28.4109C60.6718 29.4765 60.6718 31.2297 59.6062 32.2953L47.8843 44L59.6062 55.7219C60.689 56.8047 60.689 58.5406 59.6234 59.6234Z" fill="white"/>
</g>
<defs>
<clipPath id="clip0_157_3895">
<rect width="88" height="88" fill="white"/>
</clipPath>
</defs>
</svg>
