<svg width="88" height="88" viewBox="0 0 88 88" fill="none" xmlns="http://www.w3.org/2000/svg">
<g clip-path="url(#clip0_157_3893)">
<path fill-rule="evenodd" clip-rule="evenodd" d="M44 0C19.7313 0 0 19.7313 0 44C0 68.2688 19.7313 88 44 88C68.2688 88 88 68.2688 88 44C88 19.7313 68.2688 0 44 0Z" fill="#2196F3"/>
<path fill-rule="evenodd" clip-rule="evenodd" d="M41.25 25.3344V24.6641C41.25 23.1516 42.4875 21.9141 44 21.9141C45.5125 21.9141 46.75 23.1516 46.75 24.6641V25.3344C46.75 26.8469 45.5125 28.0844 44 28.0844C42.4875 28.0844 41.25 26.8469 41.25 25.3344ZM55.6016 63.3359C55.6016 64.8484 54.3641 66.0859 52.8516 66.0859H35.1484C33.6359 66.0859 32.3984 64.8484 32.3984 63.3359C32.3984 61.8234 33.6359 60.5859 35.1484 60.5859H41.25V35.2859H35.1484C33.6359 35.2859 32.3984 34.0484 32.3984 32.5359C32.3984 31.0234 33.6359 29.7859 35.1484 29.7859H44C45.5125 29.7859 46.75 31.0234 46.75 32.5359V60.5859H52.8516C54.3813 60.5859 55.6016 61.8234 55.6016 63.3359Z" fill="white"/>
</g>
<defs>
<clipPath id="clip0_157_3893">
<rect width="88" height="88" fill="white"/>
</clipPath>
</defs>
</svg>
