<svg width="88" height="88" viewBox="0 0 88 88" fill="none" xmlns="http://www.w3.org/2000/svg">
<g clip-path="url(#clip0_157_3894)">
<path fill-rule="evenodd" clip-rule="evenodd" d="M44 0C19.7313 0 0 19.7313 0 44C0 68.2688 19.7313 88 44 88C68.2688 88 88 68.2688 88 44C88 19.7313 68.2688 0 44 0Z" fill="#F34235"/>
<path fill-rule="evenodd" clip-rule="evenodd" d="M66.0859 24.6641C66.0859 26.1766 64.8484 27.4141 63.3359 27.4141H27.4141V60.5859H63.3359C64.8484 60.5859 66.0859 61.8234 66.0859 63.3359C66.0859 64.8484 64.8484 66.0859 63.3359 66.0859H24.6641C23.1516 66.0859 21.9141 64.8484 21.9141 63.3359V24.6641C21.9141 23.1516 23.1516 21.9141 24.6641 21.9141H63.3359C64.8484 21.9141 66.0859 23.1344 66.0859 24.6641ZM52.9719 50.4797L56.7016 46.75H32.5875C31.075 46.75 29.8375 45.5125 29.8375 44C29.8375 42.4875 31.075 41.25 32.5875 41.25H56.7016L52.9891 37.5375C51.9062 36.4719 51.9062 34.7188 52.9891 33.6531C54.0547 32.5703 55.8078 32.5703 56.8734 33.6531L65.2953 42.075C65.8109 42.5906 66.1031 43.2953 66.1031 44.0172C66.1031 44.7391 65.8109 45.4437 65.2953 45.9594L56.8734 54.3812C56.3406 54.9141 55.6359 55.1891 54.9313 55.1891C54.2266 55.1891 53.5219 54.9141 52.9891 54.3812C51.8891 53.2812 51.8891 51.5453 52.9719 50.4797Z" fill="white"/>
</g>
<defs>
<clipPath id="clip0_157_3894">
<rect width="88" height="88" fill="white"/>
</clipPath>
</defs>
</svg>
