<svg width="88" height="88" viewBox="0 0 88 88" fill="none" xmlns="http://www.w3.org/2000/svg">
<g clip-path="url(#clip0_157_3889)">
<path fill-rule="evenodd" clip-rule="evenodd" d="M44 0C19.7313 0 0 19.7313 0 44C0 68.2688 19.7313 88 44 88C68.2688 88 88 68.2688 88 44C88 19.7313 68.2688 0 44 0Z" fill="#FEC006"/>
<path fill-rule="evenodd" clip-rule="evenodd" d="M63.3359 52.3875H60.225V39.325C60.225 30.3703 52.9375 23.1 44 23.1C35.0453 23.1 27.775 30.3875 27.775 39.325V52.3875H24.6641C23.1516 52.3875 21.9141 53.625 21.9141 55.1375C21.9141 56.65 23.1516 57.8875 24.6641 57.8875H34.6156C35.8016 61.9438 39.5656 64.9172 44 64.9172C48.4344 64.9172 52.1984 61.9438 53.3844 57.8875H63.3359C64.8484 57.8875 66.0859 56.65 66.0859 55.1375C66.0859 53.625 64.8484 52.3875 63.3359 52.3875ZM44 59.4172C42.6938 59.4172 41.5078 58.8156 40.7172 57.8875H47.2656C46.4922 58.7984 45.3062 59.4172 44 59.4172ZM54.725 52.3875H33.275V39.325C33.275 33.4125 38.0875 28.6 44 28.6C49.9125 28.6 54.725 33.4125 54.725 39.325V52.3875Z" fill="white"/>
</g>
<defs>
<clipPath id="clip0_157_3889">
<rect width="88" height="88" fill="white"/>
</clipPath>
</defs>
</svg>
