<svg width="88" height="88" viewBox="0 0 88 88" fill="none" xmlns="http://www.w3.org/2000/svg">
<g clip-path="url(#clip0_341_14141)">
<path fill-rule="evenodd" clip-rule="evenodd" d="M44 0C19.7313 0 0 19.7313 0 44C0 68.2688 19.7313 88 44 88C68.2688 88 88 68.2688 88 44C88 19.7313 68.2688 0 44 0Z" fill="#FEC006"/>
<path fill-rule="evenodd" clip-rule="evenodd" d="M63.6626 36.9187L51.511 35.6469L46.5438 24.4922C46.0969 23.4953 45.1173 22.8594 44.0345 22.8594C42.9516 22.8594 41.9548 23.4953 41.5251 24.4922L36.5579 35.6469L24.4063 36.9187C23.3235 37.0391 22.4126 37.7781 22.0688 38.8094C21.7251 39.8406 22.0345 40.975 22.8423 41.6969L31.9173 49.8609L29.3735 61.8062C29.1501 62.8719 29.5626 63.9719 30.4391 64.6078C30.9204 64.9516 31.4876 65.1406 32.0548 65.1406C32.536 65.1406 33.0001 65.0203 33.4298 64.7797L44.0001 58.6609L54.5704 64.7797C55.5157 65.3297 56.6844 65.2609 57.561 64.625C58.4376 63.9891 58.8673 62.8891 58.6266 61.8234L56.0829 49.8781L65.1579 41.7141C65.9657 40.9922 66.2751 39.8578 65.9313 38.8266C65.5876 37.7953 64.7282 37.0391 63.6626 36.9187ZM51.2704 46.8359C50.5313 47.4891 50.222 48.4859 50.4282 49.4484L52.0095 56.8906L45.4095 53.0922C44.5501 52.5937 43.5016 52.5937 42.6595 53.0922L36.0595 56.9078L37.6407 49.4656C37.847 48.5031 37.5204 47.5062 36.7985 46.8531L31.1266 41.7656L38.7063 40.975C39.686 40.8719 40.5282 40.2531 40.9407 39.3594L44.0345 32.3984L47.1282 39.3594C47.5235 40.2531 48.3829 40.8719 49.3626 40.975L56.9423 41.7656L51.2704 46.8359Z" fill="white"/>
</g>
<defs>
<clipPath id="clip0_341_14141">
<rect width="88" height="88" fill="white"/>
</clipPath>
</defs>
</svg>
