<svg width="88" height="88" viewBox="0 0 88 88" fill="none" xmlns="http://www.w3.org/2000/svg">
<g clip-path="url(#clip0_157_3890)">
<path fill-rule="evenodd" clip-rule="evenodd" d="M44 0C19.7313 0 0 19.7313 0 44C0 68.2688 19.7313 88 44 88C68.2688 88 88 68.2688 88 44C88 19.7313 68.2688 0 44 0Z" fill="#FEC006"/>
<path d="M40.8572 23.5714C40.8572 21.8357 42.2643 20.4286 44 20.4286C45.7358 20.4286 47.1429 21.8357 47.1429 23.5714V53.4286C47.1429 55.1643 45.7358 56.5714 44 56.5714C42.2643 56.5714 40.8572 55.1643 40.8572 53.4286V23.5714Z" fill="white"/>
<path d="M40.8572 62.8571C40.8572 61.1214 42.2643 59.7143 44 59.7143C45.7358 59.7143 47.1429 61.1214 47.1429 62.8571C47.1429 64.5929 45.7358 66 44 66C42.2643 66 40.8572 64.5929 40.8572 62.8571Z" fill="white"/>
</g>
<defs>
<clipPath id="clip0_157_3890">
<rect width="88" height="88" fill="white"/>
</clipPath>
</defs>
</svg>
