<svg xmlns="http://www.w3.org/2000/svg" width="24" height="25" viewBox="0 0 24 25" fill="none">
  <path fill-rule="evenodd" clip-rule="evenodd" d="M1.25 12.5C1.25 6.58579 6.08579 1.75 12 1.75C17.9142 1.75 22.75 6.58579 22.75 12.5C22.75 18.4142 17.9142 23.25 12 23.25C6.08579 23.25 1.25 18.4142 1.25 12.5ZM12 3.25C6.91421 3.25 2.75 7.41421 2.75 12.5C2.75 17.5858 6.91421 21.75 12 21.75C17.0858 21.75 21.25 17.5858 21.25 12.5C21.25 7.41421 17.0858 3.25 12 3.25Z" stroke="#838289" stroke-width="1.5" stroke-miterlimit="10"/>
  <path fill-rule="evenodd" clip-rule="evenodd" d="M7.25 14C7.25 10.5667 10.0549 7.75 13.5 7.75C15.2842 7.75 16.75 9.21579 16.75 11C16.75 14.4342 13.9342 17.25 10.5 17.25C8.70384 17.25 7.25 15.7823 7.25 14ZM13.5 9.25C10.8851 9.25 8.75 11.3933 8.75 14C8.75 14.9577 9.53616 15.75 10.5 15.75C13.1058 15.75 15.25 13.6058 15.25 11C15.25 10.0442 14.4558 9.25 13.5 9.25Z" stroke="#838289" stroke-width="1.5" stroke-miterlimit="10" stroke-linecap="round" stroke-linejoin="round"/>
</svg>
