<svg xmlns="http://www.w3.org/2000/svg" width="54" height="32" viewBox="0 0 54 32" fill="none">
  <g clip-path="url(#clip0_243_6624)">
    <path d="M2.99067 0H50.3427C51.9947 0 53.3333 1.32267 53.3333 2.95333V29.0467C53.3333 30.6773 51.9947 32 50.3427 32H2.99067C1.33867 32 0 30.6773 0 29.0467V2.95333C0 1.32267 1.33867 0 2.99067 0Z" fill="white"/>
    <path d="M0.666675 2.67333V29.3267C0.665798 29.5895 0.71675 29.85 0.816617 30.0932C0.916484 30.3363 1.06331 30.5574 1.24869 30.7438C1.43407 30.9301 1.65437 31.0781 1.89699 31.1793C2.13962 31.2805 2.39981 31.3328 2.66267 31.3333H50.6707C50.9335 31.3328 51.1937 31.2805 51.4364 31.1793C51.679 31.0781 51.8993 30.9301 52.0847 30.7438C52.27 30.5574 52.4169 30.3363 52.5167 30.0932C52.6166 29.85 52.6675 29.5895 52.6667 29.3267V2.67333C52.6675 2.41047 52.6166 2.15 52.5167 1.90684C52.4169 1.66368 52.27 1.44259 52.0847 1.25622C51.8993 1.06985 51.679 0.921853 51.4364 0.820692C51.1937 0.71953 50.9335 0.667191 50.6707 0.666667H2.66267C2.39981 0.667191 2.13962 0.71953 1.89699 0.820692C1.65437 0.921853 1.43407 1.06985 1.24869 1.25622C1.06331 1.44259 0.916484 1.66368 0.816617 1.90684C0.71675 2.15 0.665798 2.41047 0.666675 2.67333ZM8.34156e-06 2.67333C-0.000868093 2.32292 0.067328 1.97576 0.200698 1.65172C0.334068 1.32768 0.529997 1.0331 0.777283 0.784819C1.02457 0.536542 1.31836 0.339437 1.64187 0.204772C1.96538 0.070108 2.31226 0.000524529 2.66267 0L50.6707 0C51.0211 0.000524529 51.368 0.070108 51.6915 0.204772C52.015 0.339437 52.3088 0.536542 52.5561 0.784819C52.8034 1.0331 52.9993 1.32768 53.1327 1.65172C53.266 1.97576 53.3342 2.32292 53.3333 2.67333V29.3267C53.3342 29.6771 53.266 30.0242 53.1327 30.3483C52.9993 30.6723 52.8034 30.9669 52.5561 31.2152C52.3088 31.4635 52.015 31.6606 51.6915 31.7952C51.368 31.9299 51.0211 31.9995 50.6707 32H2.66267C2.31226 31.9995 1.96538 31.9299 1.64187 31.7952C1.31836 31.6606 1.02457 31.4635 0.777283 31.2152C0.529997 30.9669 0.334068 30.6723 0.200698 30.3483C0.067328 30.0242 -0.000868093 29.6771 8.34156e-06 29.3267V2.67333Z" fill="#BEC8D2"/>
    <path d="M17.104 27.8655V26.2748C17.1126 26.1415 17.0929 26.0079 17.0463 25.8827C16.9996 25.7576 16.9269 25.6437 16.8331 25.5486C16.7393 25.4536 16.6264 25.3794 16.5019 25.3311C16.3774 25.2827 16.244 25.2613 16.1106 25.2681C15.9358 25.2566 15.7611 25.2924 15.6048 25.3717C15.4486 25.451 15.3166 25.5709 15.2226 25.7188C15.137 25.5755 15.0143 25.4579 14.8673 25.3786C14.7204 25.2993 14.5548 25.2611 14.388 25.2681C14.2425 25.2607 14.0977 25.2915 13.9678 25.3575C13.838 25.4234 13.7277 25.5223 13.648 25.6441V25.3308H13.0986V27.8668H13.6533V26.4721C13.6416 26.3857 13.6492 26.2977 13.6754 26.2144C13.7015 26.1311 13.7457 26.0547 13.8047 25.9904C13.8638 25.9261 13.9363 25.8757 14.017 25.8426C14.0978 25.8094 14.1848 25.7945 14.272 25.7988C14.636 25.7988 14.8213 26.0388 14.8213 26.4668V27.8775H15.376V26.4721C15.3648 26.3857 15.3727 26.2979 15.399 26.2149C15.4254 26.1318 15.4696 26.0556 15.5285 25.9914C15.5875 25.9273 15.6597 25.8768 15.7402 25.8435C15.8208 25.8102 15.9076 25.795 15.9946 25.7988C16.368 25.7988 16.5493 26.0388 16.5493 26.4668V27.8775L17.104 27.8655ZM25.3093 25.3321H24.4066V24.5628H23.852V25.3308H23.3506V25.8348H23.8626V27.0015C23.8626 27.5895 24.0893 27.9401 24.74 27.9401C24.9826 27.9401 25.22 27.8735 25.4266 27.7441L25.2666 27.2721C25.1195 27.36 24.9525 27.4091 24.7813 27.4148C24.5173 27.4148 24.4173 27.2455 24.4173 26.9908V25.8348H25.3146L25.3093 25.3308V25.3321ZM29.996 25.2681C29.8617 25.264 29.7289 25.2963 29.6115 25.3615C29.4941 25.4268 29.3966 25.5226 29.3293 25.6388V25.3321H28.7853V27.8655H29.336V26.4441C29.336 26.0255 29.5146 25.7921 29.864 25.7921C29.9813 25.7908 30.0977 25.8125 30.2066 25.8561L30.376 25.3255C30.2505 25.2808 30.1184 25.2578 29.9853 25.2575L29.996 25.2681ZM22.912 25.5321C22.6009 25.3469 22.2431 25.2552 21.8813 25.2681C21.2413 25.2681 20.8253 25.5748 20.8253 26.0788C20.8253 26.4921 21.132 26.7468 21.696 26.8255L21.9613 26.8641C22.2613 26.9055 22.404 26.9855 22.404 27.1281C22.404 27.3241 22.204 27.4348 21.8293 27.4348C21.5276 27.4438 21.2316 27.3508 20.9893 27.1708L20.724 27.6001C21.044 27.8241 21.428 27.9401 21.8173 27.9295C22.5466 27.9295 22.9693 27.5841 22.9693 27.1028C22.9693 26.6201 22.636 26.4228 22.088 26.3428L21.824 26.3068C21.5853 26.2748 21.396 26.2268 21.396 26.0575C21.396 25.8881 21.5746 25.7601 21.876 25.7601C22.1546 25.7641 22.428 25.8388 22.668 25.9775L22.912 25.5321ZM37.6266 25.2681C37.4924 25.264 37.3596 25.2963 37.2422 25.3615C37.1248 25.4268 37.0273 25.5226 36.96 25.6388V25.3321H36.4173V27.8655H36.9666V26.4441C36.9666 26.0255 37.1453 25.7921 37.4946 25.7921C37.6119 25.7908 37.7284 25.8125 37.8373 25.8561L38.0066 25.3255C37.8812 25.2808 37.7491 25.2578 37.616 25.2575L37.6266 25.2681ZM30.5466 26.5935C30.5405 26.7711 30.5713 26.9481 30.6372 27.1132C30.7031 27.2783 30.8025 27.4279 30.9293 27.5525C31.056 27.6771 31.2073 27.774 31.3735 27.8371C31.5396 27.9001 31.7171 27.928 31.8946 27.9188C32.225 27.9357 32.5496 27.8276 32.804 27.6161L32.5386 27.1708C32.349 27.316 32.1175 27.396 31.8786 27.3988C31.6733 27.3844 31.4811 27.2926 31.3407 27.1421C31.2003 26.9915 31.1223 26.7933 31.1223 26.5875C31.1223 26.3816 31.2003 26.1834 31.3407 26.0329C31.4811 25.8823 31.6733 25.7906 31.8786 25.7761C32.1175 25.7789 32.349 25.8589 32.5386 26.0041L32.804 25.5588C32.5494 25.3478 32.2248 25.2402 31.8946 25.2575C31.7169 25.2471 31.5389 25.274 31.3722 25.3367C31.2056 25.3993 31.0539 25.4962 30.927 25.6211C30.8001 25.746 30.7008 25.8961 30.6355 26.0618C30.5702 26.2274 30.5404 26.4049 30.548 26.5828L30.5466 26.5935ZM35.6933 26.5935V25.3308H35.144V25.6388C35.0507 25.5184 34.9301 25.4219 34.7922 25.3575C34.6542 25.293 34.5028 25.2624 34.3506 25.2681C34.1769 25.2685 34.005 25.3031 33.8447 25.3698C33.6843 25.4366 33.5387 25.5344 33.4161 25.6574C33.2936 25.7805 33.1964 25.9265 33.1303 26.0871C33.0641 26.2477 33.0303 26.4198 33.0306 26.5935C33.0306 27.3255 33.6213 27.9188 34.3506 27.9188C34.5029 27.9244 34.6544 27.8936 34.7924 27.8289C34.9303 27.7642 35.0509 27.6675 35.144 27.5468V27.8548H35.6933V26.5935ZM33.648 26.5935C33.6643 26.3976 33.7555 26.2155 33.9027 26.0851C34.0498 25.9547 34.2416 25.8861 34.438 25.8935C34.6345 25.9009 34.8205 25.9837 34.9575 26.1248C35.0944 26.2658 35.1717 26.4542 35.1733 26.6508C35.1772 26.756 35.1593 26.861 35.1208 26.959C35.0823 27.057 35.024 27.146 34.9495 27.2205C34.875 27.2949 34.786 27.3532 34.6879 27.3916C34.5899 27.4301 34.485 27.4479 34.3797 27.4439C34.2745 27.44 34.1712 27.4143 34.0763 27.3686C33.9815 27.3229 33.897 27.2581 33.8284 27.1783C33.7597 27.0985 33.7082 27.0053 33.6772 26.9047C33.6461 26.8041 33.6362 26.6981 33.648 26.5935ZM27.0186 25.2681C26.6679 25.2741 26.3339 25.419 26.09 25.671C25.846 25.9229 25.7119 26.2614 25.7173 26.6121C25.7194 26.7858 25.7557 26.9574 25.8241 27.1171C25.8925 27.2768 25.9917 27.4214 26.116 27.5428C26.2403 27.6641 26.3873 27.7598 26.5486 27.8243C26.7099 27.8888 26.8823 27.9209 27.056 27.9188C27.436 27.9375 27.8093 27.8148 28.104 27.5735L27.84 27.1655C27.6319 27.3331 27.3738 27.4265 27.1066 27.4308C26.9246 27.4465 26.7437 27.3905 26.6025 27.2747C26.4612 27.1588 26.3708 26.9924 26.3506 26.8108H28.2253V26.5975C28.2253 25.8028 27.7346 25.2735 27.0266 25.2735L27.0186 25.2681ZM27.0186 25.7615C27.101 25.7595 27.1829 25.7739 27.2597 25.8037C27.3365 25.8335 27.4066 25.8782 27.4661 25.9352C27.5256 25.9921 27.5732 26.0603 27.6062 26.1358C27.6393 26.2112 27.6571 26.2925 27.6586 26.3748H26.3386C26.3483 26.2055 26.4236 26.0467 26.5487 25.9321C26.6737 25.8176 26.8385 25.7563 27.008 25.7615H27.0186ZM40.7826 26.5988V24.3135H40.2546V25.6388C40.1615 25.5186 40.0412 25.4222 39.9034 25.3578C39.7657 25.2933 39.6146 25.2626 39.4626 25.2681C39.2889 25.2685 39.117 25.3031 38.9567 25.3698C38.7963 25.4366 38.6507 25.5344 38.5281 25.6574C38.4056 25.7805 38.3084 25.9265 38.2423 26.0871C38.1761 26.2477 38.1423 26.4198 38.1426 26.5935C38.1426 27.3255 38.7333 27.9188 39.4626 27.9188C39.6147 27.9242 39.7659 27.8933 39.9036 27.8286C40.0414 27.7639 40.1617 27.6673 40.2546 27.5468V27.8548H40.7826V26.5988ZM38.752 26.5988C38.7683 26.4029 38.8595 26.2208 39.0067 26.0904C39.1538 25.9601 39.3456 25.8914 39.542 25.8988C39.7385 25.9062 39.9245 25.989 40.0615 26.1301C40.1984 26.2711 40.2757 26.4596 40.2773 26.6561C40.2812 26.7614 40.2633 26.8663 40.2248 26.9643C40.1863 27.0623 40.128 27.1513 40.0535 27.2258C39.979 27.3002 39.89 27.3585 39.7919 27.397C39.6939 27.4354 39.589 27.4532 39.4837 27.4493C39.3785 27.4453 39.2752 27.4197 39.1803 27.374C39.0855 27.3283 39.001 27.2635 38.9324 27.1836C38.8637 27.1038 38.8122 27.0107 38.7812 26.91C38.7501 26.8094 38.7402 26.7035 38.752 26.5988ZM20.2013 26.5988V25.3321H19.652V25.6388C19.5589 25.5186 19.4385 25.4222 19.3008 25.3578C19.163 25.2933 19.0119 25.2626 18.86 25.2681C18.6863 25.2685 18.5143 25.3031 18.354 25.3698C18.1937 25.4366 18.0481 25.5344 17.9255 25.6574C17.8029 25.7805 17.7058 25.9265 17.6396 26.0871C17.5735 26.2477 17.5396 26.4198 17.54 26.5935C17.54 27.3255 18.1306 27.9188 18.86 27.9188C19.012 27.9242 19.1632 27.8933 19.301 27.8286C19.4387 27.7639 19.559 27.6673 19.652 27.5468V27.8548H20.2013V26.5988ZM18.1573 26.5988C18.1736 26.4029 18.2649 26.2208 18.412 26.0904C18.5592 25.9601 18.7509 25.8914 18.9474 25.8988C19.1438 25.9062 19.3299 25.989 19.4668 26.1301C19.6037 26.2711 19.681 26.4596 19.6826 26.6561C19.6795 26.8561 19.5982 27.0469 19.4562 27.1877C19.3141 27.3285 19.1226 27.4081 18.9226 27.4095C18.8174 27.4116 18.7129 27.3918 18.6158 27.3512C18.5186 27.3107 18.431 27.2504 18.3585 27.1741C18.286 27.0978 18.2302 27.0073 18.1946 26.9082C18.1591 26.8092 18.1445 26.7038 18.152 26.5988H18.1573Z" fill="#231F20"/>
    <path d="M22.7295 6.01953H31.0495V21.0262H22.7295V6.01953Z" fill="#FF5F00"/>
    <path d="M23.2572 13.5237C23.2552 12.0796 23.581 10.6539 24.2101 9.354C24.8393 8.05413 25.7553 6.91406 26.8892 6.01973C25.0111 4.53702 22.642 3.81901 20.2568 4.00966C17.8716 4.20031 15.6466 5.28552 14.0279 7.04773C12.405 8.81343 11.5044 11.1242 11.5044 13.5224C11.5044 15.9206 12.405 18.2314 14.0279 19.9971C15.6464 21.7595 17.8713 22.8449 20.2565 23.0358C22.6417 23.2267 25.011 22.509 26.8892 21.0264C25.7555 20.1322 24.8396 18.9924 24.2104 17.6927C23.5813 16.3931 23.2554 14.9676 23.2572 13.5237Z" fill="#EB001B"/>
    <path d="M42.2745 13.5242C42.2759 15.3128 41.7748 17.0659 40.8283 18.5836C39.8818 20.1012 38.528 21.3225 36.9212 22.1082C35.3168 22.8907 33.5241 23.2043 31.7493 23.0131C29.9746 22.8218 28.2899 22.1333 26.8892 21.0268C28.0224 20.1318 28.9381 18.9917 29.5674 17.692C30.1966 16.3923 30.5232 14.9669 30.5225 13.5228C30.523 12.079 30.1963 10.6539 29.5671 9.35442C28.9378 8.05497 28.0222 6.91501 26.8892 6.02016C28.2898 4.91351 29.9744 4.22478 31.7492 4.03325C33.5239 3.84172 35.3167 4.15515 36.9212 4.9375C38.528 5.72315 39.8818 6.94441 40.8283 8.4621C41.7748 9.97979 42.2759 11.7329 42.2745 13.5215V13.5242Z" fill="#F79E1B"/>
  </g>
  <defs>
    <clipPath id="clip0_243_6624">
      <rect width="53.3333" height="32" fill="white"/>
    </clipPath>
  </defs>
</svg>
