<svg width="71" height="71" viewBox="0 0 71 71" fill="none" xmlns="http://www.w3.org/2000/svg">
<g clip-path="url(#clip0_82_5998)">
<path d="M35.5 71C55.1061 71 71 55.1061 71 35.5C71 15.8939 55.1061 0 35.5 0C15.8939 0 0 15.8939 0 35.5C0 55.1061 15.8939 71 35.5 71Z" fill="#0077DB"/>
<path d="M35.5 17.75C25.6908 17.75 17.75 25.1116 17.75 34.1874C17.7741 36.6895 18.3851 39.151 19.5339 41.3739C20.6827 43.5969 22.3372 45.5191 24.3642 46.9861V53.25L30.4086 49.9382C32.0672 50.3947 33.7797 50.6257 35.5 50.6249C45.3092 50.6249 53.25 43.268 53.25 34.1874C53.25 25.1069 45.3092 17.75 35.5 17.75ZM37.261 39.8814L32.7441 35.0656L23.9251 39.8861L33.6316 29.5864L38.2653 34.407L46.9721 29.5864L37.261 39.8814Z" fill="white"/>
</g>
<defs>
<clipPath id="clip0_82_5998">
<rect width="71" height="71" fill="white"/>
</clipPath>
</defs>
</svg>
