<svg xmlns="http://www.w3.org/2000/svg" width="100" height="100" viewBox="0 0 100 100" fill="none">
  <path d="M8 50.4167V71.25C8 80.7917 15.7083 88.5 25.25 88.5H74.0417C83.5833 88.5 91.3333 80.75 91.3333 71.2083V50.4167C91.3333 47.625 89.0833 45.375 86.2917 45.375H13.0417C10.25 45.375 8 47.625 8 50.4167ZM33 74.5417H24.6667C22.9583 74.5417 21.5417 73.125 21.5417 71.4167C21.5417 69.7083 22.9583 68.2917 24.6667 68.2917H33C34.7083 68.2917 36.125 69.7083 36.125 71.4167C36.125 73.125 34.7083 74.5417 33 74.5417ZM60.0833 74.5417H43.4167C41.7083 74.5417 40.2917 73.125 40.2917 71.4167C40.2917 69.7083 41.7083 68.2917 43.4167 68.2917H60.0833C61.7917 68.2917 63.2083 69.7083 63.2083 71.4167C63.2083 73.125 61.7917 74.5417 60.0833 74.5417ZM55.9167 21.8667V34.075C55.9167 36.8667 53.6667 39.1167 50.875 39.1167H13.0417C10.2083 39.1167 8 36.7833 8 33.9917C8.04167 29.2833 9.91667 24.9917 13.0417 21.8667C16.1667 18.7417 20.5 16.825 25.25 16.825H50.875C53.6667 16.825 55.9167 19.075 55.9167 21.8667ZM82.875 11H70.625C65.3333 11 62.1667 14.1667 62.1667 19.4583V31.7083C62.1667 37 65.3333 40.1667 70.625 40.1667H82.875C88.1667 40.1667 91.3333 37 91.3333 31.7083V19.4583C91.3333 14.1667 88.1667 11 82.875 11ZM84.4167 29.7083C84.875 30.25 85.125 30.8333 85.125 31.5417C85.125 32.125 84.875 32.7917 84.4167 33.25C83.9423 33.7107 83.3071 33.9684 82.6458 33.9684C81.9846 33.9684 81.3493 33.7107 80.875 33.25L76.75 29.125L72.6667 33.2917C71.7083 34.25 70.0833 34.25 69.0833 33.25C68.6226 32.7757 68.3649 32.1404 68.3649 31.4792C68.3649 30.8179 68.6226 30.1827 69.0833 29.7083L73.25 25.625L69.125 21.5C68.6579 21.0231 68.3928 20.3842 68.385 19.7167C68.3773 19.0491 68.6274 18.4043 69.0833 17.9167C70.0417 16.9167 71.6667 16.9583 72.6667 17.9583L76.75 22.0833L80.9167 17.9167C81.391 17.456 82.0262 17.1982 82.6875 17.1982C83.3488 17.1982 83.984 17.456 84.4583 17.9167C84.9167 18.4583 85.125 19.0833 85.1667 19.75C85.1667 20.3333 84.9167 21 84.5 21.5L80.3333 25.6667L84.4167 29.7083Z" fill="#BBBAC4"/>
</svg>
