<svg xmlns="http://www.w3.org/2000/svg" width="100" height="100" viewBox="0 0 100 100" fill="none">
  <path d="M86.2083 57.9915C86.1667 57.9915 86.1667 57.9499 86.1667 57.9499V57.9082C82.5 54.0749 77.375 51.6582 71.6667 51.6582C60.625 51.6582 51.6667 60.6165 51.6667 71.6582C51.6667 76.7832 53.625 81.4499 56.7917 84.9915C60.4583 89.0749 65.75 91.6582 71.6667 91.6582C82.7083 91.6582 91.6667 82.6999 91.6667 71.6582C91.6667 66.3665 89.5833 61.5749 86.2083 57.9915ZM79.2083 79.4499C78.625 80.0332 77.7917 80.3665 77 80.3665C76.2083 80.3665 75.4167 80.0332 74.7917 79.4499L71.7083 76.3665L68.5417 79.5749C67.9167 80.1582 67.125 80.4915 66.3333 80.4915C65.9167 80.4915 65.5417 80.4082 65.1667 80.2415C64.7739 80.1001 64.4179 79.8723 64.125 79.5749C62.875 78.3249 62.875 76.3665 64.125 75.1582L67.2917 71.9499L64.25 68.8665C63 67.6582 63 65.6582 64.25 64.4499C65.4583 63.2415 67.4167 63.2415 68.6667 64.4499L71.7083 67.5332L74.6667 64.5749C75.9167 63.3665 77.875 63.3665 79.0833 64.5749C79.7917 65.2832 80.0833 66.1999 79.9583 67.1165C79.9167 67.8249 79.625 68.4915 79.0833 68.9915L76.125 71.9499L79.2083 75.0332C80.4583 76.2415 80.4583 78.1999 79.2083 79.4499Z" fill="#BBBAC4"/>
  <path d="M91.6667 36.3756C91.6667 41.334 90.875 45.9173 89.5 50.1673C89.25 51.0423 88.2083 51.2923 87.4583 50.7506C82.8863 47.3763 77.349 45.5646 71.6667 45.584C57.2083 45.584 45.4167 57.3756 45.4167 71.834C45.4167 76.334 46.5833 80.7506 48.7917 84.6673C49.4583 85.834 48.6667 87.334 47.4167 86.8757C37.375 83.459 17.0833 71.0006 10.5 50.1673C9.12499 45.9173 8.33333 41.334 8.33333 36.3756C8.33333 23.5006 18.7083 13.084 31.5 13.084C39.0417 13.084 45.7917 16.7506 50 22.3756C52.1494 19.4957 54.9406 17.1564 58.1519 15.5435C61.3633 13.9306 64.9064 13.0885 68.5 13.084C81.2917 13.084 91.6667 23.5006 91.6667 36.3756Z" fill="#BBBAC4"/>
</svg>
