<svg width="84" height="84" viewBox="0 0 84 84" fill="none" xmlns="http://www.w3.org/2000/svg">
<g filter="url(#filter0_d_356_19706)">
<rect x="18" y="11" width="48" height="48" rx="24" fill="white"/>
</g>
<path d="M42.62 43.81C42.28 43.93 41.72 43.93 41.38 43.81C38.48 42.82 32 38.69 32 31.69C32 28.6 34.49 26.1 37.56 26.1C39.38 26.1 40.99 26.98 42 28.34C42.5138 27.6459 43.183 27.0817 43.954 26.6927C44.725 26.3037 45.5764 26.1007 46.44 26.1C49.51 26.1 52 28.6 52 31.69C52 38.69 45.52 42.82 42.62 43.81Z" stroke="#D47187" stroke-width="1.5" stroke-linecap="round" stroke-linejoin="round"/>
<defs>
<filter id="filter0_d_356_19706" x="0" y="0" width="84" height="84" filterUnits="userSpaceOnUse" color-interpolation-filters="sRGB">
<feFlood flood-opacity="0" result="BackgroundImageFix"/>
<feColorMatrix in="SourceAlpha" type="matrix" values="0 0 0 0 0 0 0 0 0 0 0 0 0 0 0 0 0 0 127 0" result="hardAlpha"/>
<feMorphology radius="6" operator="dilate" in="SourceAlpha" result="effect1_dropShadow_356_19706"/>
<feOffset dy="7"/>
<feGaussianBlur stdDeviation="6"/>
<feComposite in2="hardAlpha" operator="out"/>
<feColorMatrix type="matrix" values="0 0 0 0 0.166667 0 0 0 0 0.157623 0 0 0 0 0.147222 0 0 0 0.03 0"/>
<feBlend mode="normal" in2="BackgroundImageFix" result="effect1_dropShadow_356_19706"/>
<feBlend mode="normal" in="SourceGraphic" in2="effect1_dropShadow_356_19706" result="shape"/>
</filter>
</defs>
</svg>
