<svg width="663" height="94" viewBox="0 0 663 94" fill="none" xmlns="http://www.w3.org/2000/svg">
<g clip-path="url(#clip0_30_3406)">
<path d="M75.71 15.11C74.8845 14.2936 74.2343 13.3174 73.7992 12.241C73.3642 11.1646 73.1535 10.0107 73.18 8.84998C73.1533 7.68777 73.3639 6.53233 73.7989 5.45427C74.2339 4.37622 74.8842 3.39819 75.71 2.57998C76.5291 1.74976 77.5101 1.09677 78.5922 0.661552C79.6742 0.22633 80.8341 0.0181657 82 0.0499812C83.1422 0.0281089 84.2767 0.241424 85.333 0.676665C86.3893 1.11191 87.3447 1.75977 88.14 2.57998C88.9677 3.39677 89.6193 4.37454 90.0544 5.45294C90.4895 6.53133 90.699 7.68747 90.67 8.84998C90.6989 10.011 90.4892 11.1656 90.0541 12.2423C89.6189 13.319 88.9674 14.2951 88.14 15.11C87.3447 15.9302 86.3893 16.5781 85.333 17.0133C84.2767 17.4485 83.1422 17.6619 82 17.64C80.8341 17.6718 79.6742 17.4636 78.5922 17.0284C77.5101 16.5932 76.5291 15.9402 75.71 15.11ZM88.73 40V92.69C88.73 92.7245 88.7163 92.7575 88.6919 92.7819C88.6675 92.8063 88.6345 92.82 88.6 92.82C84.9921 92.8173 81.5329 91.3823 78.9827 88.8302C76.4325 86.2781 75 82.8178 75 79.21V26.56C74.9999 26.5433 75.0033 26.5269 75.01 26.5116C75.0166 26.4964 75.0264 26.4827 75.0386 26.4714C75.0508 26.4601 75.0653 26.4515 75.081 26.4461C75.0967 26.4407 75.1134 26.4386 75.13 26.44C78.7292 26.4426 82.1808 27.8708 84.7296 30.4121C87.2784 32.9534 88.7168 36.4008 88.73 40Z" fill="#232241"/>
<path d="M101.14 41.55C103.745 36.5312 107.736 32.366 112.64 29.55C117.79 26.674 123.612 25.2176 129.51 25.33C137.51 25.33 144.157 27.2367 149.45 31.05C154.743 34.8634 158.283 40.2534 160.07 47.22C160.075 47.2394 160.075 47.2596 160.07 47.279C160.066 47.2984 160.057 47.3166 160.044 47.332C160.032 47.3475 160.016 47.3599 159.998 47.3682C159.98 47.3765 159.96 47.3806 159.94 47.38H153.17C151.162 47.4105 149.173 46.9937 147.347 46.16C145.52 45.3263 143.902 44.0966 142.61 42.56C141.722 41.4518 140.678 40.4783 139.51 39.67C136.545 37.7314 133.05 36.7633 129.51 36.9C123.89 36.9 119.41 38.9 116.07 42.9C112.73 46.9 111.063 52.4634 111.07 59.59C111.07 66.7434 112.737 72.3234 116.07 76.33C117.697 78.2974 119.757 79.8624 122.088 80.9031C124.419 81.9439 126.959 82.4322 129.51 82.33C135.07 82.33 139.317 80.6167 142.25 77.19C143.77 75.478 145.641 74.1146 147.736 73.1929C149.832 72.2712 152.101 71.8132 154.39 71.85H159.94C159.96 71.8489 159.98 71.8526 159.998 71.861C160.015 71.8693 160.031 71.882 160.043 71.8978C160.055 71.9137 160.063 71.9322 160.066 71.9518C160.069 71.9713 160.067 71.9914 160.06 72.01C158.331 78.3678 154.535 83.9691 149.27 87.93C143.937 91.93 137.35 93.93 129.51 93.93C123.605 94.0457 117.779 92.5708 112.64 89.66C107.753 86.8229 103.767 82.6633 101.14 77.66C98.2748 72.1005 96.8448 65.913 96.98 59.66C96.8284 53.3703 98.2588 47.1431 101.14 41.55Z" fill="#232241"/>
<path d="M194.94 59.77L225.27 92.61C225.289 92.6267 225.303 92.649 225.308 92.6738C225.314 92.6986 225.312 92.7245 225.301 92.7478C225.291 92.7712 225.274 92.7907 225.252 92.8037C225.231 92.8167 225.205 92.8224 225.18 92.82H207C206.967 92.8295 206.933 92.8295 206.9 92.82L182.55 64.52C182.532 64.503 182.51 64.4912 182.487 64.4861C182.463 64.481 182.438 64.4827 182.415 64.491C182.392 64.4994 182.372 64.514 182.357 64.5333C182.342 64.5526 182.332 64.5757 182.33 64.6V92.69C182.331 92.7066 182.329 92.7233 182.324 92.739C182.318 92.7548 182.31 92.7692 182.299 92.7814C182.287 92.7936 182.274 92.8034 182.258 92.81C182.243 92.8167 182.227 92.8201 182.21 92.82C178.6 92.82 175.139 91.3861 172.586 88.8338C170.034 86.2814 168.6 82.8196 168.6 79.21V3.79003C168.6 3.75556 168.614 3.72249 168.638 3.69811C168.662 3.67373 168.695 3.66003 168.73 3.66003C172.338 3.66269 175.797 5.09776 178.347 7.64984C180.897 10.2019 182.33 13.6622 182.33 17.27V55.12C182.331 55.1465 182.339 55.1722 182.355 55.1936C182.37 55.215 182.392 55.2311 182.417 55.2398C182.442 55.2485 182.469 55.2494 182.495 55.2422C182.52 55.2351 182.543 55.2204 182.56 55.2L206.39 26.48C206.406 26.4734 206.423 26.47 206.44 26.47C206.457 26.47 206.474 26.4734 206.49 26.48H225.18C225.205 26.4777 225.231 26.4834 225.252 26.4963C225.274 26.5093 225.291 26.5289 225.301 26.5522C225.312 26.5756 225.314 26.6015 225.308 26.6263C225.303 26.651 225.289 26.6734 225.27 26.69L194.94 59.69C194.932 59.7161 194.932 59.7439 194.94 59.77Z" fill="#232241"/>
<path d="M293 64.75H242.5C242.482 64.7499 242.464 64.7536 242.448 64.7607C242.431 64.7679 242.417 64.7784 242.404 64.7915C242.392 64.8047 242.383 64.8202 242.377 64.8372C242.371 64.8541 242.369 64.8721 242.37 64.89C242.602 69.7091 244.717 74.2444 248.26 77.52C251.813 80.7367 256.468 82.4626 261.26 82.34C266.593 82.34 270.81 80.71 273.91 77.45C275.158 76.0891 276.671 74.9977 278.357 74.2427C280.042 73.4878 281.864 73.0853 283.71 73.06H291.56C291.58 73.0606 291.6 73.0658 291.618 73.0754C291.636 73.0849 291.651 73.0985 291.663 73.115C291.674 73.1315 291.682 73.1504 291.685 73.1704C291.688 73.1904 291.686 73.2108 291.68 73.23C289.709 79.1893 285.913 84.3776 280.83 88.06C275.61 91.96 269.093 93.9067 261.28 93.9C255.337 93.9911 249.474 92.5186 244.28 89.63C239.293 86.8203 235.2 82.6611 232.47 77.63C229.533 72.0927 228.06 65.8967 228.19 59.63C228.061 53.3777 229.491 47.1918 232.35 41.63C234.991 36.5744 239.055 32.4028 244.04 29.63C249.339 26.7467 255.298 25.2924 261.33 25.41C267.142 25.3013 272.883 26.6928 278 29.45C282.85 32.1224 286.831 36.1312 289.47 41C292.263 46.2243 293.671 52.077 293.56 58C293.578 60.2219 293.424 62.4418 293.1 64.64C293.095 64.6659 293.083 64.6899 293.066 64.7094C293.048 64.7288 293.025 64.7429 293 64.75ZM279.1 53.66C279.117 53.66 279.133 53.6566 279.148 53.65C279.164 53.6434 279.177 53.6336 279.189 53.6214C279.2 53.6092 279.208 53.5947 279.214 53.579C279.219 53.5633 279.221 53.5466 279.22 53.53C279.249 51.2552 278.778 49.0017 277.842 46.9284C276.905 44.8551 275.526 43.0124 273.8 41.53C270.143 38.4274 265.463 36.795 260.67 36.95C256.188 36.8541 251.837 38.4664 248.5 41.46C245.077 44.6119 242.94 48.9178 242.5 53.55C242.499 53.5679 242.501 53.5859 242.507 53.6028C242.513 53.6198 242.522 53.6353 242.534 53.6484C242.547 53.6616 242.561 53.6721 242.578 53.6792C242.594 53.6864 242.612 53.69 242.63 53.69L279.1 53.66Z" fill="#232241"/>
<path d="M325.83 37.64C325.797 37.6399 325.766 37.6522 325.741 37.6745C325.717 37.6967 325.703 37.7273 325.7 37.76V74.39C325.7 76.88 326.28 78.66 327.45 79.75C328.62 80.84 330.6 81.37 333.45 81.37H341.76C341.777 81.3699 341.793 81.3733 341.808 81.38C341.824 81.3866 341.837 81.3964 341.849 81.4086C341.86 81.4208 341.868 81.4353 341.874 81.451C341.879 81.4667 341.881 81.4834 341.88 81.5V82C341.877 83.4252 341.594 84.8359 341.045 86.1514C340.497 87.4669 339.694 88.6613 338.684 89.6663C337.673 90.6713 336.474 91.4671 335.156 92.0083C333.837 92.5494 332.425 92.8253 331 92.82C324.82 92.82 320.08 91.3733 316.78 88.48C313.48 85.5867 311.837 80.89 311.85 74.39V37.76C311.847 37.7273 311.833 37.6967 311.809 37.6745C311.784 37.6522 311.753 37.6399 311.72 37.64H304.14C304.106 37.64 304.072 37.6263 304.048 37.6019C304.024 37.5775 304.01 37.5445 304.01 37.51V26.56C304.01 26.5434 304.013 26.5269 304.02 26.5116C304.027 26.4964 304.036 26.4827 304.049 26.4714C304.061 26.4601 304.075 26.4515 304.091 26.4461C304.107 26.4407 304.123 26.4386 304.14 26.44H311.72C311.754 26.44 311.788 26.4263 311.812 26.4019C311.836 26.3775 311.85 26.3445 311.85 26.31V10.06C311.849 10.0434 311.851 10.0267 311.856 10.011C311.862 9.99526 311.87 9.98082 311.881 9.9686C311.893 9.95637 311.906 9.94663 311.922 9.93998C311.937 9.93334 311.953 9.92994 311.97 9.92999C313.773 9.92999 315.558 10.2851 317.224 10.9751C318.89 11.6651 320.404 12.6765 321.679 13.9514C322.954 15.2264 323.965 16.7399 324.655 18.4057C325.345 20.0715 325.7 21.8569 325.7 23.66V26.31C325.7 26.3445 325.714 26.3775 325.738 26.4019C325.762 26.4263 325.796 26.44 325.83 26.44H341.72C341.752 26.44 341.782 26.4526 341.805 26.4751C341.827 26.4976 341.84 26.5282 341.84 26.56V37.56C341.841 37.5766 341.839 37.5933 341.834 37.609C341.828 37.6247 341.82 37.6392 341.809 37.6514C341.797 37.6636 341.784 37.6734 341.768 37.68C341.753 37.6866 341.737 37.69 341.72 37.69L325.83 37.64Z" fill="#232241"/>
<path d="M378.59 17.27V92.69C378.59 92.7245 378.576 92.7576 378.552 92.782C378.528 92.8063 378.494 92.82 378.46 92.82C374.85 92.82 371.389 91.3861 368.836 88.8338C366.284 86.2814 364.85 82.8196 364.85 79.21V3.79003C364.85 3.75556 364.864 3.72249 364.888 3.69811C364.912 3.67373 364.946 3.66003 364.98 3.66003C368.589 3.66268 372.049 5.09744 374.601 7.64924C377.153 10.201 378.587 13.6613 378.59 17.27Z" fill="#232241"/>
<path d="M393.45 15.11C392.623 14.2951 391.971 13.3191 391.536 12.2423C391.101 11.1656 390.891 10.011 390.92 8.84999C390.891 7.68747 391.1 6.53134 391.536 5.45294C391.971 4.37455 392.622 3.39678 393.45 2.57999C394.265 1.75254 395.241 1.10109 396.318 0.66592C397.394 0.23075 398.549 0.021117 399.71 0.0499871C400.854 0.0291202 401.989 0.242854 403.047 0.677996C404.105 1.11314 405.062 1.76045 405.86 2.57999C406.688 3.39678 407.339 4.37455 407.774 5.45294C408.21 6.53134 408.419 7.68747 408.39 8.84999C408.419 10.011 408.209 11.1656 407.774 12.2423C407.339 13.3191 406.687 14.2951 405.86 15.11C405.062 15.9295 404.105 16.5768 403.047 17.012C401.989 17.4471 400.854 17.6609 399.71 17.64C398.549 17.6689 397.394 17.4592 396.318 17.0241C395.241 16.5889 394.265 15.9374 393.45 15.11ZM406.45 40.04V92.69C406.45 92.7228 406.438 92.7544 406.416 92.7785C406.393 92.8027 406.363 92.8175 406.33 92.82C402.72 92.82 399.259 91.3861 396.706 88.8337C394.154 86.2813 392.72 82.8196 392.72 79.21V26.56C392.72 26.5282 392.733 26.4976 392.755 26.4751C392.778 26.4526 392.808 26.44 392.84 26.44C396.443 26.4347 399.902 27.8597 402.455 30.4021C405.009 32.9445 406.449 36.3965 406.46 40L406.45 40.04Z" fill="#232241"/>
<path d="M469.44 28.6C473.57 30.7643 476.95 34.124 479.14 38.24C481.587 43.0029 482.787 48.3078 482.63 53.66V79.33C482.63 81.1016 482.281 82.8558 481.603 84.4924C480.925 86.1291 479.932 87.6162 478.679 88.8689C477.426 90.1216 475.939 91.1152 474.302 91.7932C472.666 92.4711 470.912 92.82 469.14 92.82C469.123 92.8201 469.107 92.8167 469.092 92.8101C469.076 92.8034 469.063 92.7937 469.051 92.7814C469.04 92.7692 469.032 92.7548 469.026 92.739C469.021 92.7233 469.019 92.7066 469.02 92.69V55.69C469.02 49.75 467.533 45.1934 464.56 42.02C461.587 38.8467 457.53 37.26 452.39 37.26C447.25 37.26 443.173 38.8467 440.16 42.02C437.147 45.1934 435.643 49.75 435.65 55.69V92.69C435.65 92.7245 435.636 92.7576 435.612 92.782C435.588 92.8063 435.554 92.82 435.52 92.82C431.91 92.82 428.449 91.3861 425.896 88.8338C423.344 86.2814 421.91 82.8196 421.91 79.21V26.56C421.91 26.5434 421.913 26.5269 421.92 26.5117C421.927 26.4964 421.936 26.4827 421.949 26.4714C421.961 26.4602 421.975 26.4515 421.991 26.4461C422.007 26.4407 422.023 26.4387 422.04 26.44H428.39C429.343 26.4387 430.287 26.6253 431.168 26.989C432.048 27.3528 432.849 27.8866 433.523 28.56C434.197 29.2333 434.732 30.033 435.097 30.9133C435.462 31.7935 435.65 32.7371 435.65 33.69C435.65 33.7145 435.657 33.7384 435.671 33.7585C435.685 33.7787 435.704 33.7941 435.727 33.8028C435.75 33.8115 435.775 33.813 435.799 33.8072C435.823 33.8013 435.844 33.7884 435.86 33.77C438.15 31.1067 441.025 29.0087 444.26 27.64C447.774 26.1125 451.568 25.3326 455.4 25.35C460.275 25.2725 465.095 26.3882 469.44 28.6Z" fill="#232241"/>
<path d="M522.51 59.77L552.84 92.61C552.854 92.6284 552.864 92.6503 552.867 92.6735C552.87 92.6967 552.867 92.7203 552.857 92.7418C552.848 92.7633 552.833 92.7819 552.814 92.7957C552.796 92.8095 552.773 92.8179 552.75 92.82H540.17C538.385 92.8191 536.622 92.4336 535 91.6899C533.378 90.9461 531.935 89.8616 530.77 88.51L510.12 64.51C510.102 64.493 510.08 64.4812 510.057 64.4761C510.033 64.471 510.008 64.4727 509.985 64.481C509.962 64.4894 509.942 64.504 509.927 64.5233C509.912 64.5426 509.902 64.5657 509.9 64.59V92.69C509.901 92.7066 509.899 92.7233 509.894 92.739C509.888 92.7548 509.88 92.7692 509.869 92.7814C509.857 92.7937 509.844 92.8034 509.828 92.8101C509.813 92.8167 509.797 92.8201 509.78 92.82C506.17 92.82 502.709 91.3861 500.156 88.8338C497.604 86.2814 496.17 82.8196 496.17 79.21V3.79003C496.169 3.77346 496.171 3.75677 496.176 3.74104C496.181 3.7253 496.19 3.71087 496.201 3.69864C496.213 3.68642 496.226 3.67667 496.242 3.67003C496.257 3.66338 496.273 3.65998 496.29 3.66003C499.9 3.66003 503.361 5.09394 505.914 7.64631C508.466 10.1987 509.9 13.6604 509.9 17.27V55.12C509.897 55.147 509.902 55.1744 509.917 55.1977C509.931 55.2209 509.952 55.2386 509.978 55.2479C510.004 55.2572 510.032 55.2576 510.057 55.2489C510.083 55.2402 510.105 55.2229 510.12 55.2L530.38 30.79C531.51 29.4247 532.928 28.3266 534.532 27.5745C536.137 26.8224 537.888 26.4349 539.66 26.44H552.75C552.773 26.4422 552.796 26.4506 552.814 26.4644C552.833 26.4781 552.848 26.4968 552.857 26.5183C552.867 26.5398 552.87 26.5634 552.867 26.5865C552.864 26.6097 552.854 26.6317 552.84 26.65L522.51 59.65C522.501 59.6688 522.496 59.6893 522.496 59.71C522.496 59.7308 522.501 59.7513 522.51 59.77Z" fill="#232241"/>
<path d="M617.92 64.75H567.45C567.432 64.7482 567.413 64.7506 567.396 64.7572C567.378 64.7637 567.363 64.7742 567.35 64.7877C567.338 64.8013 567.328 64.8176 567.323 64.8353C567.318 64.8531 567.317 64.8718 567.32 64.89C567.548 69.7102 569.664 74.247 573.21 77.52C576.762 80.7384 581.418 82.4646 586.21 82.34C591.543 82.34 595.75 80.7266 598.83 77.5C600.249 76.0681 601.942 74.937 603.808 74.1741C605.674 73.4113 607.674 73.0323 609.69 73.06H616.52C616.54 73.0606 616.56 73.0658 616.578 73.0754C616.596 73.0849 616.611 73.0985 616.623 73.115C616.634 73.1315 616.642 73.1504 616.645 73.1704C616.648 73.1904 616.646 73.2108 616.64 73.23C614.672 79.188 610.879 84.3761 605.8 88.06C600.54 91.96 594.013 93.9067 586.22 93.9C580.26 93.9985 574.38 92.5258 569.17 89.63C564.188 86.8171 560.099 82.6585 557.37 77.63C554.433 72.0927 552.96 65.8967 553.09 59.63C552.962 53.3777 554.391 47.1918 557.25 41.63C559.888 36.5751 563.948 32.4034 568.93 29.63C574.23 26.7489 580.188 25.2947 586.22 25.41C592.069 25.2827 597.85 26.6747 603 29.45C607.829 32.1306 611.788 36.1388 614.41 41C617.206 46.2235 618.618 52.0762 618.51 58C618.525 60.2221 618.368 62.4421 618.04 64.64C618.037 64.67 618.024 64.6981 618.002 64.7184C617.979 64.7388 617.95 64.7501 617.92 64.75ZM604 53.66C604.017 53.66 604.034 53.6566 604.05 53.6501C604.066 53.6436 604.08 53.634 604.092 53.6219C604.104 53.6098 604.114 53.5955 604.12 53.5797C604.127 53.564 604.13 53.5471 604.13 53.53C604.157 51.2555 603.685 49.0027 602.749 46.9297C601.813 44.8567 600.434 43.0137 598.71 41.53C595.053 38.4274 590.373 36.795 585.58 36.95C581.098 36.8541 576.747 38.4664 573.41 41.46C569.987 44.6119 567.85 48.9178 567.41 53.55C567.409 53.5671 567.411 53.5842 567.416 53.6005C567.421 53.6168 567.43 53.6319 567.441 53.6449C567.452 53.658 567.466 53.6686 567.481 53.6764C567.496 53.6841 567.513 53.6887 567.53 53.69L604 53.66Z" fill="#232241"/>
<path d="M651.13 28.18C654.732 26.2362 658.778 25.261 662.87 25.35C662.904 25.35 662.938 25.3637 662.962 25.3881C662.986 25.4125 663 25.4455 663 25.48V39.48C663 39.4971 662.997 39.514 662.99 39.5298C662.984 39.5455 662.974 39.5599 662.962 39.5719C662.95 39.584 662.936 39.5936 662.92 39.6001C662.904 39.6066 662.887 39.61 662.87 39.61H659.5C654.12 39.61 650.043 40.9733 647.27 43.7C644.497 46.4267 643.113 51.1667 643.12 57.92V92.69C643.12 92.7245 643.106 92.7576 643.082 92.7819C643.058 92.8063 643.024 92.82 642.99 92.82C639.38 92.82 635.919 91.3861 633.366 88.8337C630.814 86.2814 629.38 82.8196 629.38 79.21V26.56C629.38 26.5434 629.383 26.5269 629.39 26.5117C629.397 26.4964 629.406 26.4827 629.419 26.4714C629.431 26.4601 629.445 26.4515 629.461 26.4461C629.477 26.4407 629.493 26.4386 629.51 26.44H633.91C636.351 26.44 638.692 27.409 640.419 29.134C642.146 30.8591 643.117 33.1991 643.12 35.64C643.121 35.6653 643.131 35.6895 643.146 35.7091C643.162 35.7288 643.184 35.743 643.208 35.7497C643.233 35.7563 643.259 35.7551 643.282 35.7462C643.306 35.7373 643.326 35.7211 643.34 35.7C645.255 32.5721 647.936 29.9839 651.13 28.18Z" fill="#232241"/>
<path d="M57.26 43.63C56.2437 43.3937 55.3372 42.8204 54.6883 42.0033C54.0394 41.1862 53.6861 40.1735 53.6861 39.13C53.6861 38.0866 54.0394 37.0738 54.6883 36.2567C55.3372 35.4396 56.2437 34.8663 57.26 34.63C57.7575 34.5315 58.2044 34.2611 58.5225 33.8662C58.8406 33.4713 59.0097 32.977 59 32.47C58.9974 30.2642 58.1199 28.1495 56.5602 26.5898C55.0005 25.0301 52.8858 24.1527 50.68 24.15H46C45.4696 24.15 44.9609 24.3607 44.5858 24.7358C44.2107 25.1109 44 25.6196 44 26.15V28.23C44.0196 28.3707 44.0111 28.5139 43.9748 28.6512C43.9385 28.7886 43.8752 28.9173 43.7886 29.03C43.7021 29.1426 43.5939 29.2369 43.4706 29.3073C43.3472 29.3777 43.211 29.4228 43.07 29.44C42.9282 29.464 42.7829 29.4586 42.6433 29.4242C42.5036 29.3898 42.3726 29.327 42.2582 29.2398C42.1438 29.1526 42.0485 29.0428 41.9783 28.9173C41.9081 28.7917 41.8644 28.6531 41.85 28.51C41.8046 27.6806 41.8046 26.8494 41.85 26.02C41.85 25.5347 41.6572 25.0692 41.314 24.726C40.9708 24.3828 40.5054 24.19 40.02 24.19H31.84C31.5954 24.1914 31.3531 24.1438 31.1272 24.0499C30.9014 23.956 30.6967 23.8179 30.5251 23.6435C30.3536 23.4692 30.2188 23.2623 30.1286 23.0349C30.0384 22.8076 29.9947 22.5645 30 22.32V18.65C30 18.4115 29.9529 18.1753 29.8613 17.955C29.7697 17.7348 29.6355 17.5348 29.4663 17.3666C29.2972 17.1984 29.0965 17.0653 28.8757 16.9749C28.655 16.8845 28.4185 16.8387 28.18 16.84C27.03 16.84 25.77 16.84 25.67 16.84C25.535 16.7939 25.4105 16.7216 25.3037 16.6271C25.1968 16.5326 25.1097 16.4179 25.0474 16.2896C24.9851 16.1613 24.9489 16.022 24.9407 15.8796C24.9326 15.7372 24.9527 15.5946 25 15.46C25.0557 15.3044 25.1458 15.1634 25.2635 15.0474C25.3813 14.9314 25.5236 14.8434 25.68 14.79C26.5138 14.7043 27.3525 14.6776 28.19 14.71C28.4281 14.7113 28.664 14.6654 28.8842 14.5749C29.1044 14.4844 29.3045 14.3512 29.4728 14.1828C29.6412 14.0145 29.7744 13.8144 29.8649 13.5942C29.9554 13.374 30.0013 13.1381 30 12.9V6.43001C29.9921 4.72018 29.3066 3.08324 28.0938 1.87795C26.881 0.67266 25.2399 -0.0026563 23.53 8.95305e-06H21.53C21.0451 0.00484365 20.5759 0.171936 20.197 0.474625C19.8182 0.777314 19.5517 1.19816 19.44 1.67001C19.1462 2.85591 18.3965 3.87807 17.3537 4.51462C16.3109 5.15117 15.0591 5.35074 13.87 5.07001C13.0389 4.87544 12.2778 4.45492 11.6707 3.85491C11.0637 3.2549 10.6343 2.49875 10.43 1.67001C10.3208 1.19311 10.0522 0.767728 9.66857 0.464101C9.28494 0.160474 8.80924 -0.00323493 8.32 8.95305e-06H6.49C5.64166 -0.00393986 4.80085 0.159246 4.01558 0.480248C3.2303 0.80125 2.51594 1.27378 1.91329 1.87087C1.31063 2.46795 0.831487 3.17789 0.503205 3.96015C0.174923 4.74241 0.00393544 5.58167 4.91686e-06 6.43001V12.74C4.91686e-06 13.2545 0.204397 13.748 0.568218 14.1118C0.932038 14.4756 1.42548 14.68 1.94 14.68H4C4.14339 14.6553 4.29029 14.6599 4.43188 14.6934C4.57347 14.7269 4.70683 14.7886 4.82395 14.8749C4.94108 14.9613 5.03956 15.0704 5.11347 15.1957C5.18739 15.321 5.23522 15.46 5.2541 15.6042C5.27297 15.7485 5.26251 15.8951 5.22332 16.0352C5.18413 16.1753 5.11704 16.3061 5.02606 16.4196C4.93509 16.5332 4.82211 16.6272 4.6939 16.696C4.5657 16.7648 4.42492 16.807 4.28 16.82C4.19 16.82 2.92 16.82 1.8 16.82C1.56014 16.8226 1.32316 16.8726 1.10268 16.9671C0.882211 17.0616 0.682594 17.1988 0.515315 17.3707C0.348035 17.5426 0.216392 17.7459 0.127957 17.9689C0.0395208 18.1919 -0.00396323 18.4302 4.91686e-06 18.67V86.29C-0.00130922 87.225 0.181554 88.1511 0.538154 89.0155C0.894754 89.8798 1.41811 90.6655 2.07833 91.3275C2.73856 91.9896 3.52272 92.5152 4.38606 92.8742C5.24939 93.2332 6.17499 93.4187 7.11 93.42H24.76C25.2454 93.42 25.7108 93.2272 26.054 92.884C26.3972 92.5408 26.59 92.0753 26.59 91.59C26.59 90.45 26.59 89.18 26.59 89.07C26.6348 88.9306 26.7074 88.8018 26.8036 88.6913C26.8997 88.5809 27.0172 88.4911 27.1491 88.4275C27.281 88.3639 27.4244 88.3278 27.5707 88.3213C27.717 88.3149 27.863 88.3383 28 88.39C28.1614 88.4371 28.3083 88.524 28.4271 88.6429C28.546 88.7617 28.6329 88.9086 28.68 89.07C28.7761 89.9063 28.8095 90.7487 28.78 91.59C28.7774 91.8294 28.8222 92.0669 28.912 92.2888C29.0018 92.5107 29.1347 92.7126 29.303 92.8828C29.4714 93.053 29.6718 93.1881 29.8927 93.2803C30.1136 93.3726 30.3506 93.42 30.59 93.42H35.22C37.4498 93.4121 39.5858 92.5221 41.1616 90.9445C42.7373 89.3669 43.6247 87.2298 43.63 85C43.6318 84.5093 43.4649 84.0328 43.1572 83.6505C42.8495 83.2682 42.4198 83.0032 41.94 82.9C40.9374 82.648 40.0477 82.0684 39.4121 81.2532C38.7764 80.4379 38.4312 79.4338 38.4312 78.4C38.4312 77.3662 38.7764 76.3621 39.4121 75.5469C40.0477 74.7316 40.9374 74.152 41.94 73.9C42.4292 73.797 42.8666 73.5251 43.1756 73.132C43.4846 72.739 43.6454 72.2497 43.63 71.75C43.6274 69.5442 42.7499 67.4295 41.1902 65.8698C39.6305 64.3101 37.5158 63.4327 35.31 63.43H32C31.4696 63.43 30.9609 63.2193 30.5858 62.8442C30.2107 62.4692 30 61.9604 30 61.43V56.12C30.0131 55.5983 30.2295 55.1023 30.6032 54.738C30.9768 54.3737 31.4781 54.1698 32 54.17H40.11C40.3499 54.17 40.5873 54.1226 40.8088 54.0305C41.0303 53.9384 41.2314 53.8035 41.4005 53.6334C41.5696 53.4633 41.7035 53.2615 41.7943 53.0396C41.8852 52.8176 41.9313 52.5799 41.93 52.34C41.93 51.21 41.93 49.95 41.93 49.84C41.973 49.7048 42.0425 49.5794 42.1345 49.4713C42.2264 49.3632 42.3389 49.2744 42.4655 49.2102C42.5921 49.146 42.7302 49.1076 42.8717 49.0973C43.0133 49.0869 43.1554 49.1049 43.29 49.15C43.4489 49.2048 43.5929 49.2956 43.7109 49.4153C43.8288 49.535 43.9175 49.6804 43.97 49.84C44.0668 50.673 44.0935 51.5126 44.05 52.35C44.05 52.5899 44.0974 52.8273 44.1895 53.0488C44.2816 53.2703 44.4165 53.4714 44.5866 53.6405C44.7567 53.8096 44.9585 53.9435 45.1805 54.0343C45.4024 54.1252 45.6402 54.1713 45.88 54.17H50.51C51.6234 54.1766 52.7271 53.9628 53.7575 53.541C54.7879 53.1192 55.7247 52.4977 56.5139 51.7122C57.303 50.9268 57.929 49.9929 58.3557 48.9645C58.7824 47.9361 59.0013 46.8334 59 45.72C58.9953 45.2245 58.8195 44.7458 58.5024 44.365C58.1854 43.9841 57.7465 43.7245 57.26 43.63ZM12.26 16.82H9.36C9.07622 16.82 8.80406 16.7073 8.6034 16.5066C8.40274 16.306 8.29 16.0338 8.29 15.75C8.29 15.4662 8.40274 15.1941 8.6034 14.9934C8.80406 14.7927 9.07622 14.68 9.36 14.68H12.3C12.5838 14.68 12.8559 14.7927 13.0566 14.9934C13.2573 15.1941 13.37 15.4662 13.37 15.75C13.37 16.0338 13.2573 16.306 13.0566 16.5066C12.8559 16.7073 12.5838 16.82 12.3 16.82H12.26ZM20.55 16.82H17.68C17.3962 16.82 17.1241 16.7073 16.9234 16.5066C16.7227 16.306 16.61 16.0338 16.61 15.75C16.61 15.4662 16.7227 15.1941 16.9234 14.9934C17.1241 14.7927 17.3962 14.68 17.68 14.68H20.59C20.8738 14.68 21.1459 14.7927 21.3466 14.9934C21.5473 15.1941 21.66 15.4662 21.66 15.75C21.66 16.0338 21.5473 16.306 21.3466 16.5066C21.1459 16.7073 20.8738 16.82 20.59 16.82H20.55ZM44.08 44.74C44.0945 44.8899 44.0774 45.0411 44.03 45.1841C43.9826 45.327 43.9058 45.4584 43.8045 45.5699C43.7033 45.6813 43.5799 45.7704 43.4422 45.8314C43.3045 45.8923 43.1556 45.9238 43.005 45.9238C42.8544 45.9238 42.7055 45.8923 42.5678 45.8314C42.4301 45.7704 42.3067 45.6813 42.2055 45.5699C42.1042 45.4584 42.0274 45.327 41.98 45.1841C41.9326 45.0411 41.9155 44.8899 41.93 44.74V41.83C41.9155 41.6801 41.9326 41.5289 41.98 41.386C42.0274 41.243 42.1042 41.1116 42.2055 41.0002C42.3067 40.8887 42.4301 40.7996 42.5678 40.7386C42.7055 40.6777 42.8544 40.6462 43.005 40.6462C43.1556 40.6462 43.3045 40.6777 43.4422 40.7386C43.5799 40.7996 43.7033 40.8887 43.8045 41.0002C43.9058 41.1116 43.9826 41.243 44.03 41.386C44.0774 41.5289 44.0945 41.6801 44.08 41.83V44.74ZM44.08 36.47C44.0945 36.6199 44.0774 36.7711 44.03 36.9141C43.9826 37.057 43.9058 37.1884 43.8045 37.2999C43.7033 37.4113 43.5799 37.5004 43.4422 37.5614C43.3045 37.6223 43.1556 37.6538 43.005 37.6538C42.8544 37.6538 42.7055 37.6223 42.5678 37.5614C42.4301 37.5004 42.3067 37.4113 42.2055 37.2999C42.1042 37.1884 42.0274 37.057 41.98 36.9141C41.9326 36.7711 41.9155 36.6199 41.93 36.47V33.52C41.9155 33.3701 41.9326 33.2189 41.98 33.076C42.0274 32.933 42.1042 32.8016 42.2055 32.6902C42.3067 32.5787 42.4301 32.4896 42.5678 32.4286C42.7055 32.3677 42.8544 32.3362 43.005 32.3362C43.1556 32.3362 43.3045 32.3677 43.4422 32.4286C43.5799 32.4896 43.7033 32.5787 43.8045 32.6902C43.9058 32.8016 43.9826 32.933 44.03 33.076C44.0774 33.2189 44.0945 33.3701 44.08 33.52V36.47Z" fill="url(#paint0_linear_30_3406)"/>
</g>
<defs>
<linearGradient id="paint0_linear_30_3406" x1="-10.65" y1="78.6" x2="48.93" y2="19.01" gradientUnits="userSpaceOnUse">
<stop stop-color="#EB7E96"/>
<stop offset="1" stop-color="#F5911E"/>
</linearGradient>
<clipPath id="clip0_30_3406">
<rect width="663" height="93.9" fill="white"/>
</clipPath>
</defs>
</svg>
