<svg width="74" height="69" viewBox="0 0 74 69" fill="none" xmlns="http://www.w3.org/2000/svg">
<g filter="url(#filter0_d_502_18026)">
<circle cx="37" cy="30" r="19" fill="#EB7E96"/>
</g>
<path d="M30 28C28.9 28 28 28.9 28 30C28 31.1 28.9 32 30 32C31.1 32 32 31.1 32 30C32 28.9 31.1 28 30 28ZM44 28C42.9 28 42 28.9 42 30C42 31.1 42.9 32 44 32C45.1 32 46 31.1 46 30C46 28.9 45.1 28 44 28ZM37 28C35.9 28 35 28.9 35 30C35 31.1 35.9 32 37 32C38.1 32 39 31.1 39 30C39 28.9 38.1 28 37 28Z" stroke="white" stroke-width="1.5"/>
<defs>
<filter id="filter0_d_502_18026" x="0" y="0" width="74" height="74" filterUnits="userSpaceOnUse" color-interpolation-filters="sRGB">
<feFlood flood-opacity="0" result="BackgroundImageFix"/>
<feColorMatrix in="SourceAlpha" type="matrix" values="0 0 0 0 0 0 0 0 0 0 0 0 0 0 0 0 0 0 127 0" result="hardAlpha"/>
<feMorphology radius="6" operator="dilate" in="SourceAlpha" result="effect1_dropShadow_502_18026"/>
<feOffset dy="7"/>
<feGaussianBlur stdDeviation="6"/>
<feComposite in2="hardAlpha" operator="out"/>
<feColorMatrix type="matrix" values="0 0 0 0 0.166667 0 0 0 0 0.157623 0 0 0 0 0.147222 0 0 0 0.03 0"/>
<feBlend mode="normal" in2="BackgroundImageFix" result="effect1_dropShadow_502_18026"/>
<feBlend mode="normal" in="SourceGraphic" in2="effect1_dropShadow_502_18026" result="shape"/>
</filter>
</defs>
</svg>
