<svg xmlns="http://www.w3.org/2000/svg" width="24" height="24" viewBox="0 0 24 24" fill="none">
  <path fill-rule="evenodd" clip-rule="evenodd" d="M10.9301 3.84744C10.93 3.84763 10.9302 3.84725 10.9301 3.84744L9.17203 7.36355C8.98469 7.74439 8.67178 8.06981 8.35042 8.30808C8.02813 8.54705 7.62764 8.75006 7.21553 8.82004L7.21289 8.82049L4.02327 9.35042C4.02314 9.35044 4.02339 9.3504 4.02327 9.35042C3.13367 9.49877 2.84387 9.84912 2.77693 10.0588C2.70974 10.2692 2.7433 10.7233 3.3803 11.3603L5.8603 13.8403C6.18269 14.1627 6.39834 14.5938 6.51726 15.0092C6.63627 15.425 6.68078 15.9031 6.58181 16.3447L6.5807 16.3496L5.87068 19.4196C5.60626 20.5623 5.87372 20.9794 6.00954 21.0785C6.14596 21.1781 6.62632 21.3056 7.6372 20.7057L10.6328 18.9323C11.0487 18.6903 11.5468 18.5906 12.0037 18.5906C12.4598 18.5906 12.9581 18.6901 13.372 18.9352C13.3719 18.9352 13.3721 18.9353 13.372 18.9352L16.3614 20.7049C16.3612 20.7048 16.3616 20.705 16.3614 20.7049C17.3805 21.3067 17.8604 21.1797 17.9944 21.0821C18.1271 20.9853 18.3945 20.5708 18.1291 19.4191L17.4181 16.3447C17.3191 15.9031 17.3637 15.425 17.4827 15.0092C17.6016 14.5938 17.8172 14.1627 18.1396 13.8403L20.6196 11.3603L20.6215 11.3585C21.2626 10.7217 21.2942 10.2687 21.2272 10.0601C21.1596 9.84986 20.8674 9.49896 19.977 9.35048C19.9769 9.35046 19.9772 9.3505 19.977 9.35048L16.787 8.82048C16.3707 8.75109 15.9671 8.54885 15.6422 8.30912C15.3186 8.07038 15.0054 7.74466 14.8179 7.36361L13.0584 3.84463C12.6377 2.99861 12.21 2.82812 11.9987 2.82812C11.7861 2.82812 11.3558 3.00077 10.9301 3.84744ZM14.4012 3.17596C13.8719 2.11232 13.0447 1.32812 11.9987 1.32812C10.9539 1.32812 10.1241 2.11098 9.58985 3.17381L7.82915 6.69522L7.82642 6.70072C7.77359 6.80858 7.64731 6.96207 7.45702 7.10317C7.26737 7.24378 7.0834 7.32073 6.96547 7.34103C6.96511 7.34109 6.96476 7.34115 6.96441 7.34121L3.77705 7.87077C2.62694 8.06245 1.66106 8.62216 1.34801 9.60248C1.03519 10.5821 1.49663 11.598 2.31964 12.421L4.79964 14.901C4.89724 14.9986 5.0066 15.1824 5.07518 15.422C5.14334 15.6601 5.1491 15.8761 5.11856 16.0146C5.11842 16.0153 5.11827 16.0159 5.11813 16.0166L4.40928 19.0815C4.40927 19.0816 4.40928 19.0815 4.40928 19.0815C4.11373 20.3588 4.21624 21.6269 5.12539 22.2902C6.03398 22.9532 7.27361 22.6657 8.40273 21.9956L11.3871 20.2289C11.3878 20.2285 11.3884 20.2282 11.389 20.2278C11.5232 20.1503 11.7443 20.0906 12.0037 20.0906C12.265 20.0906 12.4816 20.1511 12.6076 20.2258L15.5979 21.996C16.7284 22.6638 17.9695 22.9565 18.878 22.2942C19.7878 21.6309 19.8854 20.3605 19.5908 19.0822L18.8818 16.0166C18.8817 16.0159 18.8815 16.0153 18.8814 16.0146C18.8508 15.8761 18.8566 15.6601 18.9248 15.422C18.9933 15.1824 19.1027 14.9986 19.2003 14.901L21.6785 12.4228C21.6788 12.4224 21.6792 12.4221 21.6795 12.4217C22.5077 11.5988 22.9706 10.5821 22.6552 9.60112C22.3403 8.62141 21.3726 8.06239 20.2233 7.87083L17.0333 7.34083C17.0331 7.34081 17.0334 7.34085 17.0333 7.34083M14.4012 3.17596C14.4011 3.17574 14.4013 3.17618 14.4012 3.17596V3.17596Z" fill="#F4A525"/>
</svg>
