<svg width="71" height="71" viewBox="0 0 71 71" fill="none" xmlns="http://www.w3.org/2000/svg">
<g clip-path="url(#clip0_82_6000)">
<path d="M35.5 71C55.1061 71 71 55.1061 71 35.5C71 15.8939 55.1061 0 35.5 0C15.8939 0 0 15.8939 0 35.5C0 55.1061 15.8939 71 35.5 71Z" fill="#00A6DE"/>
<path d="M53.18 24.7566C52.3409 26.0171 51.3156 27.1431 50.1391 28.0964C49.9908 28.22 49.8719 28.3751 49.7911 28.5504C49.7103 28.7258 49.6696 28.9169 49.672 29.11V29.2268C49.6583 31.7582 49.1933 34.2669 48.2987 36.6351C47.377 39.1206 46.0075 41.4162 44.2583 43.4081C41.9076 46.0842 38.8836 48.0824 35.5 49.1955C33.2768 49.9171 30.9523 50.2782 28.6149 50.2652C24.9067 50.2647 21.2647 49.2833 18.0583 47.4205C17.9434 47.3552 17.853 47.2542 17.8007 47.1328C17.7485 47.0114 17.7372 46.8763 17.7687 46.7479C17.8011 46.6216 17.8747 46.5097 17.978 46.4302C18.0813 46.3506 18.2082 46.3079 18.3386 46.3088H19.2261C22.0441 46.3157 24.7998 45.4796 27.1389 43.9079C25.7449 43.6822 24.4403 43.076 23.3689 42.1562C22.2974 41.2364 21.5007 40.0387 21.0665 38.695C21.0443 38.6277 21.0402 38.5557 21.0548 38.4864C21.0694 38.417 21.102 38.3528 21.1495 38.3001C21.1969 38.2474 21.2574 38.2083 21.3249 38.1866C21.3923 38.1649 21.4644 38.1614 21.5336 38.1765C21.9587 38.2565 22.3902 38.2971 22.8228 38.298H22.9863C21.6391 37.679 20.4999 36.6831 19.7066 35.4306C18.9133 34.178 18.4998 32.7225 18.5161 31.24C18.5166 31.1706 18.535 31.1026 18.5696 31.0424C18.6042 30.9823 18.6538 30.9322 18.7135 30.8969C18.7733 30.8616 18.8411 30.8424 18.9105 30.8411C18.9798 30.8399 19.0483 30.8566 19.1093 30.8897C19.6573 31.1956 20.2453 31.4236 20.8563 31.567C19.6486 30.3721 18.8718 28.8101 18.6478 27.1261C18.4237 25.442 18.7652 23.7313 19.6185 22.2622C19.6507 22.2058 19.6962 22.1581 19.751 22.1231C19.8058 22.0881 19.8683 22.067 19.9331 22.0615C19.9978 22.056 20.063 22.0662 20.1229 22.0915C20.1828 22.1167 20.2357 22.156 20.2771 22.2062C21.9642 24.2951 24.0536 26.0239 26.4214 27.2901C28.7893 28.5562 31.3873 29.3339 34.0614 29.5771H34.0987C34.138 29.576 34.1767 29.5668 34.2123 29.5503C34.248 29.5337 34.2799 29.5101 34.3061 29.4808C34.3323 29.4515 34.3523 29.4172 34.3648 29.38C34.3774 29.3427 34.3822 29.3033 34.379 29.2641C34.2747 28.3267 34.3348 27.3783 34.5565 26.4615C34.8579 25.2153 35.4765 24.0683 36.3523 23.132C37.2281 22.1956 38.3312 21.5017 39.5545 21.1178C40.3394 20.8727 41.1566 20.7467 41.9788 20.7441C43.8431 20.742 45.644 21.4215 47.0422 22.6546C47.2234 22.8167 47.4578 22.9064 47.7008 22.9068C47.7797 22.9052 47.8581 22.8942 47.9344 22.8741C49.2482 22.5422 50.5069 22.0214 51.6712 21.328C51.7409 21.285 51.8222 21.2647 51.9039 21.2696C51.9856 21.2746 52.0638 21.3048 52.1277 21.3559C52.1916 21.4071 52.2382 21.4767 52.261 21.5553C52.2838 21.634 52.2817 21.7177 52.2551 21.7951C51.8664 23.0179 51.1737 24.1221 50.2419 25.0041C51.0813 24.804 51.9006 24.5272 52.6895 24.1774C52.7674 24.1473 52.8527 24.1423 52.9335 24.1629C53.0144 24.1835 53.0868 24.2288 53.1408 24.2925C53.1947 24.3562 53.2274 24.4351 53.2345 24.5183C53.2415 24.6015 53.2225 24.6847 53.18 24.7566Z" fill="white"/>
</g>
<defs>
<clipPath id="clip0_82_6000">
<rect width="71" height="71" fill="white"/>
</clipPath>
</defs>
</svg>
