<svg width="48" height="48" viewBox="0 0 48 48" fill="none" xmlns="http://www.w3.org/2000/svg">
<rect width="48" height="48" rx="15" fill="#00A6DE" fill-opacity="0.85098"/>
<path d="M36.959 15.9902C36.3442 16.9295 35.593 17.7686 34.731 18.4791C34.6223 18.5712 34.5352 18.6868 34.476 18.8174C34.4168 18.9481 34.387 19.0906 34.3887 19.2344V19.3214C34.3787 21.2079 34.0379 23.0775 33.3825 24.8423C32.7071 26.6946 31.7037 28.4053 30.422 29.8897C28.6996 31.8839 26.4839 33.3731 24.0047 34.2026C22.3757 34.7403 20.6726 35.0095 18.9599 34.9997C16.2429 34.9994 13.5743 34.268 11.225 32.8798C11.1408 32.8312 11.0746 32.7559 11.0363 32.6654C10.998 32.5749 10.9897 32.4742 11.0128 32.3786C11.0365 32.2844 11.0905 32.2011 11.1662 32.1418C11.2418 32.0825 11.3348 32.0507 11.4304 32.0514H12.0807C14.1455 32.0565 16.1646 31.4334 17.8784 30.2621C16.8571 30.0939 15.9012 29.6422 15.1161 28.9568C14.331 28.2713 13.7473 27.3787 13.4291 26.3774C13.4128 26.3272 13.4099 26.2736 13.4206 26.2219C13.4312 26.1702 13.4552 26.1223 13.4899 26.0831C13.5247 26.0439 13.569 26.0147 13.6185 25.9985C13.6679 25.9823 13.7207 25.9797 13.7714 25.991C14.0829 26.0506 14.3991 26.0809 14.716 26.0815H14.8358C13.8487 25.6202 13.014 24.8781 12.4328 23.9446C11.8515 23.0112 11.5485 21.9266 11.5604 20.8217C11.5608 20.7701 11.5743 20.7193 11.5996 20.6745C11.625 20.6297 11.6613 20.5923 11.7051 20.5661C11.7489 20.5398 11.7986 20.5255 11.8494 20.5245C11.9002 20.5236 11.9504 20.536 11.9951 20.5607C12.3966 20.7887 12.8274 20.9586 13.2751 21.0654C12.3902 20.175 11.8211 19.0109 11.6569 17.756C11.4927 16.501 11.7429 15.2261 12.3681 14.1313C12.3918 14.0893 12.4251 14.0537 12.4653 14.0276C12.5054 14.0016 12.5512 13.9858 12.5987 13.9817C12.6461 13.9776 12.6939 13.9853 12.7378 14.004C12.7817 14.0228 12.8204 14.0522 12.8507 14.0895C14.0869 15.6462 15.6178 16.9346 17.3528 17.8782C19.0877 18.8217 20.9913 19.4013 22.9506 19.5825H22.978C23.0068 19.5817 23.0351 19.5749 23.0612 19.5625C23.0873 19.5502 23.1107 19.5326 23.1299 19.5108C23.1491 19.489 23.1638 19.4634 23.173 19.4356C23.1821 19.4079 23.1857 19.3785 23.1833 19.3493C23.1069 18.6507 23.1509 17.9439 23.3134 17.2607C23.5342 16.332 23.9875 15.4773 24.6292 14.7795C25.2709 14.0817 26.0792 13.5646 26.9755 13.2785C27.5506 13.0958 28.1493 13.0019 28.7518 13C30.1178 12.9984 31.4373 13.5048 32.4618 14.4237C32.5945 14.5445 32.7663 14.6114 32.9444 14.6117C33.0022 14.6104 33.0596 14.6023 33.1155 14.5873C34.0782 14.3399 35.0005 13.9518 35.8535 13.4351C35.9046 13.4031 35.9641 13.3879 36.024 13.3916C36.0839 13.3953 36.1412 13.4178 36.188 13.4559C36.2349 13.494 36.269 13.5459 36.2857 13.6045C36.3024 13.6631 36.3009 13.7255 36.2814 13.7832C35.9966 14.6945 35.489 15.5173 34.8063 16.1746C35.4213 16.0255 36.0216 15.8193 36.5997 15.5585C36.6567 15.5361 36.7192 15.5323 36.7784 15.5477C36.8377 15.5631 36.8908 15.5969 36.9303 15.6443C36.9698 15.6918 36.9938 15.7506 36.999 15.8126C37.0041 15.8746 36.9901 15.9366 36.959 15.9902Z" fill="white"/>
</svg>
