    <svg xmlns="http://www.w3.org/2000/svg" width="40" height="40" viewBox="0 0 40 40" fill="none">
      <path d="M36.1334 28.2654L30.9167 16.082C29.15 11.9487 25.9 11.782 23.7167 15.7154L20.5667 21.3987C18.9667 24.282 15.9834 24.532 13.9167 21.9487L13.55 21.482C11.4 18.782 8.36671 19.1154 6.81671 22.1987L3.95004 27.9487C1.93337 31.9487 4.85004 36.6654 9.31671 36.6654H30.5834C34.9167 36.6654 37.8334 32.2487 36.1334 28.2654ZM11.6167 13.332C12.9428 13.332 14.2146 12.8052 15.1522 11.8676C16.0899 10.9299 16.6167 9.65811 16.6167 8.33203C16.6167 7.00595 16.0899 5.73418 15.1522 4.7965C14.2146 3.85882 12.9428 3.33203 11.6167 3.33203C10.2906 3.33203 9.01885 3.85882 8.08117 4.7965C7.14349 5.73418 6.61671 7.00595 6.61671 8.33203C6.61671 9.65811 7.14349 10.9299 8.08117 11.8676C9.01885 12.8052 10.2906 13.332 11.6167 13.332Z" stroke="#727178" stroke-width="1.5" stroke-linecap="round" stroke-linejoin="round"/>
    </svg>
