<svg xmlns="http://www.w3.org/2000/svg" width="24" height="24" viewBox="0 0 24 24" fill="none">
  <path d="M16.41 4.00072C18.35 4.00072 19.91 5.57072 19.91 7.50072C19.91 9.39072 18.41 10.9307 16.54 11.0007C16.4536 10.9907 16.3664 10.9907 16.28 11.0007M18.34 20.0007C19.06 19.8507 19.74 19.5607 20.3 19.1307C21.86 17.9607 21.86 16.0307 20.3 14.8607C19.75 14.4407 19.08 14.1607 18.37 14.0007M9.16 10.8707C9.06 10.8607 8.94 10.8607 8.83 10.8707C7.6822 10.8318 6.59464 10.3476 5.79763 9.52068C5.00062 8.6938 4.55674 7.58918 4.56 6.44072C4.56 3.99072 6.54 2.00072 9 2.00072C10.1762 1.97951 11.3127 2.42641 12.1595 3.24314C13.0062 4.05986 13.4938 5.17949 13.515 6.35572C13.5362 7.53196 13.0893 8.66845 12.2726 9.51517C11.4559 10.3619 10.3362 10.8495 9.16 10.8707ZM4.16 14.5607C1.74 16.1807 1.74 18.8207 4.16 20.4307C6.91 22.2707 11.42 22.2707 14.17 20.4307C16.59 18.8107 16.59 16.1707 14.17 14.5607C11.43 12.7307 6.92 12.7307 4.16 14.5607Z" stroke="#4BAE4F" stroke-width="1.5" stroke-linecap="round" stroke-linejoin="round"/>
</svg>
