<svg width="71" height="71" viewBox="0 0 71 71" fill="none" xmlns="http://www.w3.org/2000/svg">
<g clip-path="url(#clip0_82_5997)">
<path d="M35.5 71C55.1061 71 71 55.1061 71 35.5C71 15.8939 55.1061 0 35.5 0C15.8939 0 0 15.8939 0 35.5C0 55.1061 15.8939 71 35.5 71Z" fill="#2AA81A"/>
<path d="M48.023 22.9769C45.0689 19.9894 41.1441 18.1565 36.9572 17.8091C32.7702 17.4617 28.597 18.6227 25.1909 21.0825C21.7849 23.5422 19.3706 27.1387 18.3838 31.2225C17.397 35.3064 17.9028 39.6084 19.8098 43.352L17.9414 52.4232C17.9214 52.5138 17.9206 52.6076 17.9391 52.6985C17.9576 52.7895 17.995 52.8755 18.0488 52.9511C18.1259 53.0655 18.2361 53.1536 18.3647 53.2037C18.4932 53.2538 18.634 53.2634 18.7682 53.2313L27.6432 51.1247C31.3765 52.9817 35.6477 53.4538 39.6965 52.4569C43.7453 51.4599 47.3089 49.0586 49.7532 45.6804C52.1974 42.3022 53.3636 38.1663 53.0442 34.0088C52.7248 29.8514 50.9405 25.9421 48.009 22.9769H48.023ZM45.2484 45.1037C43.2054 47.1431 40.5745 48.4909 37.7258 48.9576C34.8771 49.4242 31.9537 48.9864 29.3668 47.7055L28.1243 47.0889L22.6732 48.3781V48.308L23.8223 42.8102L23.215 41.6144C21.8923 39.0204 21.4252 36.0741 21.8809 33.1982C22.3366 30.3223 23.6916 27.6647 25.7514 25.6067C28.3378 23.023 31.8441 21.5717 35.4999 21.5717C39.1557 21.5717 42.662 23.023 45.2484 25.6067L45.3091 25.6908C47.8619 28.2827 49.2869 31.7784 49.2738 35.4163C49.2607 39.0543 47.8104 42.5396 45.239 45.113L45.2484 45.1037Z" fill="white"/>
<path d="M44.7673 41.1053C44.0994 42.1563 43.039 43.4408 41.7171 43.7631C39.3816 44.3236 35.8269 43.7631 31.3754 39.6479L31.3194 39.5965C27.4471 35.9811 26.4194 32.9683 26.6483 30.5814C26.7838 29.2221 27.9142 27.9983 28.8671 27.1949C29.0186 27.0671 29.1979 26.9766 29.3906 26.9305C29.5833 26.8844 29.7842 26.8841 29.9771 26.9294C30.17 26.9748 30.3496 27.0647 30.5016 27.1919C30.6535 27.3191 30.7736 27.4801 30.8523 27.662L32.2863 30.9037C32.3799 31.1124 32.415 31.3426 32.3879 31.5697C32.3607 31.7967 32.2723 32.0122 32.1321 32.1929L31.4035 33.1271C31.252 33.321 31.1618 33.5557 31.1443 33.8011C31.1268 34.0466 31.1829 34.2916 31.3054 34.5051C31.9975 35.5252 32.8257 36.4462 33.767 37.2423C34.7798 38.2169 35.9283 39.0398 37.1769 39.6853C37.4048 39.7771 37.6548 39.7991 37.8952 39.7483C38.1356 39.6976 38.3555 39.5764 38.5268 39.4003L39.3629 38.5502C39.522 38.3791 39.7254 38.2554 39.9504 38.1927C40.1755 38.1301 40.4135 38.1309 40.6381 38.1952L44.048 39.1715C44.2412 39.2264 44.4188 39.3261 44.5663 39.4625C44.7139 39.5988 44.8272 39.768 44.8973 39.9562C44.9673 40.1445 44.992 40.3466 44.9695 40.5463C44.9469 40.7459 44.8777 40.9374 44.7673 41.1053Z" fill="white"/>
</g>
<defs>
<clipPath id="clip0_82_5997">
<rect width="71" height="71" fill="white"/>
</clipPath>
</defs>
</svg>
